<?xml version="1.0" encoding="utf-8"?>
<!-- Generator: Adobe Illustrator 17.1.0, SVG Export Plug-In . SVG Version: 6.00 Build 0)  -->
<!DOCTYPE svg PUBLIC "-//W3C//DTD SVG 1.1//EN" "http://www.w3.org/Graphics/SVG/1.1/DTD/svg11.dtd">
<svg version="1.1" id="Layer_1" xmlns="http://www.w3.org/2000/svg" xmlns:xlink="http://www.w3.org/1999/xlink" x="0px" y="0px"
	 viewBox="0 0 60 18" enable-background="new 0 0 60 18" xml:space="preserve">
<symbol  id="grass2" viewBox="-31.379 -13.214 62.757 26.731">
	<g>
		<defs>
			<polygon id="SVGID_1_" points="29.932,-4.482 -30.068,-4.482 -30.068,13.518 29.932,13.518 			"/>
		</defs>
		<clipPath id="SVGID_2_">
			<use xlink:href="#SVGID_1_"  overflow="visible"/>
		</clipPath>
		<g clip-path="url(#SVGID_2_)">
			<g>
				<path fill="#61A246" d="M-2.649-7.211c0,0-0.096,1.492,0.079,3.588c0.146,0.801,0.478,1.794,1.209,2.744
					c0,0-0.185-1.266-0.32-2.744c-0.136-3.257-0.219-6.99-0.003-8.823L-2.649-7.211z"/>
			</g>
			<g>
				<path fill="#61A246" d="M8.587-3.469c0,0,0.105-0.063,0.258-0.155C9.249-4.15,9.983-5.106,9.983-5.106S9.964-4.565,9.935-3.624
					c-0.106,1.57-0.341,5.557-0.257,8.816c0.04,3.375,0.152,6.391,0.386,8.31c0,0-0.641-2.394-1.096-8.31
					C8.638,3.221,8.406,0.4,8.587-3.469z"/>
			</g>
			<g>
				<path fill="#61A246" d="M11.372-8.63l2.34,1.592c0,0,0.025,1.32,0.073,3.414c0.106,2.113,0.324,5.938,0.643,8.816
					c0.208,4.098,0.46,3.446,0.75,4.152c0,0-0.667,0.515-1.449-4.152c-0.948-2.604-2.064-6.099-2.358-8.816
					C11.278-5.503,11.267-7.21,11.372-8.63z"/>
			</g>
			<g>
				<path fill="#61A246" d="M3.534-13.214l-1.208,1.592c0,0,0.038,3.563,0.054,7.998c0.024,3.089-0.005,7.099-0.296,7.729
					c0,0,0.912-3.895,1.313-7.729C3.561-7.041,3.639-10.435,3.534-13.214z"/>
			</g>
			<g>
				<path fill="#61A246" d="M20.102-5.676l1.644,1.594c0,0,0.002,0.162,0.005,0.458c0.03,1.196,0.782,6.654,0.823,8.332
					c0.007,0.61,0,3.132,0,3.132s-0.647-2.035-0.737-2.648c-0.468-1.466-1.913-6.221-1.854-8.816
					C19.991-4.409,20.028-5.104,20.102-5.676z"/>
			</g>
			<g>
				<path fill="#437021" d="M6.975-7.608c0,0,0,1.579-0.018,3.985C6.919-1.297,6.802,2.715,6.439,5.192
					C6.323,6.917,6.181,8.3,6.009,9.113c0,0,0-1.561-0.006-3.921C5.989,2.787,5.946-1.424,5.81-3.624
					C5.775-4.849,5.734-5.787,5.686-6.299L6.975-7.608z"/>
			</g>
			<g>
				<path fill="#97B73E" d="M15.883-6.702c0,0,0.196,1.247,0.628,3.079c0.985,1.92,3.197,5.236,7.11,6.327
					c0,0-3.771-3.364-5.04-6.327c-0.345-1.752-0.504-3.439-0.354-4.898L15.883-6.702z"/>
			</g>
			<g>
				<path fill="#437021" d="M9.85-5.319c0,0,0.092,0.634,0.228,1.696c0.142,0.508,0.334,1.229,0.522,2.055
					c1.082,2.174,1.493,4.988,1.032,6.761c-0.151,0.579-0.393,1.083-0.676,1.509c0,0-0.066-0.557-0.196-1.509
					c-0.045-0.152-0.098-0.327-0.159-0.52c-0.279-1.934-0.908-5.756-1.845-8.296C8.629-4.373,8.496-5.07,8.358-5.7L9.85-5.319z"/>
			</g>
			<g>
				<path fill="#61A246" d="M6.76-8.068c0,0-0.031,1.773-0.032,4.444C6.726-1.257,6.835,2.644,7.491,5.192
					c0.101,0.852,0.214,1.635,0.343,2.325c0,0-0.019-0.875-0.046-2.325C7.711,3.32,7.57-0.637,7.599-3.624
					c0.016-3.507,0.082-6.398,0.234-7.63L6.76-8.068z"/>
			</g>
			<g>
				<path fill="#97B73E" d="M5.735-6.236c0,0,0.006,1.006,0.007,2.612c0.002,2.132-0.038,6.565-0.38,8.816
					C5.313,5.882,5.259,6.477,5.198,6.951c0,0-0.004-0.655-0.014-1.759C5.15,3.416,5.037-0.884,4.732-3.624
					C4.651-5.211,4.556-6.558,4.445-7.496L5.735-6.236z"/>
			</g>
			<g>
				<path fill="#61A246" d="M23.916-11.304c0,0-0.169,3.539,0.076,7.681c0.253,1.972,0.95,4.24,2.739,5.305
					c0,0-1.004-3.138-0.993-5.305c0.003-1.312,0.085-2.461,0.288-3.253L23.916-11.304z"/>
			</g>
			<g>
				<path fill="#437021" d="M20.724-6.172c0,0,0.106,0.993,0.346,2.548c0.678,2.022,2.429,6.114,5.891,7.806
					c0,0-2.564-4.192-3.986-7.806c-0.588-3.251-0.981-6.287-0.917-8.375L20.724-6.172z"/>
			</g>
			<g>
				<path fill="#97B73E" d="M-0.021-4.879c0,0-0.026,0.463-0.072,1.255C-0.311-1.922-0.97,3.09-1.482,5.192
					C-1.588,6.14-1.687,6.816-1.775,7.099c0,0,0.026-0.715,0.065-1.907c0.132-1.842,0.414-6.163,0.378-8.816
					C-1.344-5.497-1.39-6.989-1.485-7.789L-0.021-4.879z"/>
			</g>
			<g>
				<path fill="#97B73E" d="M4.539-4.879c0,0-0.026,0.463-0.072,1.255C4.249-1.922,3.59,3.09,3.078,5.192
					C2.972,6.14,2.873,6.816,2.785,7.099c0,0,0.026-0.715,0.065-1.907C2.981,3.35,3.264-0.971,3.228-3.624
					C3.216-5.497,3.17-6.989,3.075-7.789L4.539-4.879z"/>
			</g>
			<g>
				<path fill="#97B73E" d="M13.456-7.901c0,0,0.172,1.742,0.484,4.277c0.67,2.499,1.989,6.674,3.649,8.227c0,0-1.97-7.365-1.97-9.1
					c0,0-0.052-1.001-0.144-1.06C14.857-6.433,13.456-7.901,13.456-7.901z"/>
			</g>
			<g>
				<path fill="#61A246" d="M25.852-8.845c0,0,0.215,2.185,0.603,5.221c0.7,2.523,1.647,8.141,2.535,9.724
					c0,0,0.129-7.621,0.03-9.724C29.013-3.9,29.01-4.149,29.01-4.364L25.852-8.845z"/>
			</g>
			<g>
				<path fill="#97B73E" d="M7.751-3.891c0,0,0.006,0.093,0.016,0.267c0.102,0.797,0.658,5.31,0.643,8.816
					c-0.006,2.914-0.095,5.508-0.324,7.211c0,0,0.267-2.969,0.542-7.211C8.985,2.67,9.355-0.832,9.182-3.624
					C9.143-4.984,9.077-6.267,8.977-7.432L7.751-3.891z"/>
			</g>
			<g>
				<path fill="#61A246" d="M-22.792-4.358l-3.049-1.489c0,0,0.025,0.833,0.053,2.224c0.08,1.829,0.185,5.756-0.201,8.816
					c-0.195,3.359-0.515,6.238-1.026,7.807c0,0,1.305-2.87,2.483-7.807c1.129-2.175,2.142-5.222,1.778-8.816
					C-22.765-3.867-22.778-4.112-22.792-4.358z"/>
			</g>
			<g>
				<path fill="#437021" d="M-7.937-6.469l1.072,2.031c0,0-0.003,0.293-0.008,0.815c-0.026,1.36-0.102,6.097,0.028,8.816
					c0.041,1.877,0.103,3.312,0.194,3.929c0,0-0.175-1.492-0.397-3.929c-0.401-2.019-0.959-5.448-0.932-8.816
					C-7.976-4.577-7.962-5.528-7.937-6.469z"/>
			</g>
			<g>
				<path fill="#61A246" d="M-9.769-9.119c0,0,0.509,0.307,1.08,0.652c0.333,0.44,0.713,0.94,0.713,0.94s-0.017,1.561-0.032,3.903
					c-0.036,2.5-0.068,6.936,0.126,8.816c0.04,0.839,0.089,1.444,0.15,1.73c0,0-0.068-0.636-0.176-1.73
					c-0.191-0.893-0.505-2.45-0.78-4.217c-0.5-1.475-0.939-3.096-1.109-4.598C-9.901-5.59-9.906-7.464-9.769-9.119z"/>
			</g>
			<g>
				<path fill="#97B73E" d="M-3.939-4.48l0.753-1.308c0,0,0.004,0.83,0.011,2.164C-3.15-1.299-3.089,4.36-3.08,5.192
					c0.001,0.146,0.001,0.224,0.001,0.224s-0.006-0.078-0.018-0.224c-0.138-0.816-1.039-6.266-0.879-8.816
					C-3.967-3.929-3.955-4.215-3.939-4.48z"/>
			</g>
			<g>
				<path fill="#437021" d="M-19.277-4.48c0,0,0,0.309,0.004,0.856c0.025,1.389,0.186,6.122,1.24,8.816
					c0.24,1.336,0.527,2.442,0.869,3.178c0,0,0-1.243,0.01-3.178c0.025-2.273,0.115-6.622,0.433-8.816
					c0.074-1.105,0.16-1.959,0.26-2.446L-19.277-4.48z"/>
			</g>
			<g>
				<path fill="#61A246" d="M-1.059-4.537c0,0,0.014,0.333,0.051,0.913c0.187,1.37,0.959,5.744,3.385,7.847
					c0,0-1.907-4.713-2.467-7.847c-0.143-1.742-0.198-3.26-0.111-4.325L-1.059-4.537z"/>
			</g>
			<g>
				<path fill="#61A246" d="M-13.008-4.537c0,0,0.014,0.333,0.051,0.913c0.187,1.37,0.959,5.744,3.385,7.847
					c0,0-1.907-4.713-2.467-7.847c-0.143-1.742-0.198-3.26-0.111-4.325L-13.008-4.537z"/>
			</g>
			<g>
				<path fill="#437021" d="M2.593-12.03c0,0-0.075,3.701-0.228,8.407C2.139-0.451,1.745,3.716,1.17,4.961
					c0,0,0.238-5.144,0.248-8.584C1.422-6.488,1.393-8.81,1.304-9.755L2.593-12.03z"/>
			</g>
			<g>
				<path fill="#437021" d="M-5.872-7.439c0,0,0.114,1.59,0.37,3.816c0.486,1.949,1.484,4.959,3.174,5.989
					c0,0-1.598-3.113-2.237-5.989C-4.77-5.638-4.876-7.598-4.798-9.261L-5.872-7.439z"/>
			</g>
			<g>
				<path fill="#97B73E" d="M-25.429-4.8c0,0,0.001,1.039,0.001,1.177c0.006,0.831-1.361,6.067-4.021,8.816
					c-0.223,0.23-0.437,0.453-0.673,0.638c0,0,0.048-0.226,0.131-0.638c0.512-1.17,2.352-5.595,2.385-8.816
					c0.006-1.231-0.044-2.381-0.167-3.398L-25.429-4.8z"/>
			</g>
			<g>
				<path fill="#61A246" d="M-18.807-8.809c0,0,0.08,2.106,0.069,5.185c-0.02,2.501-0.326,6.399-1.868,8.816
					c-0.167,0.57-0.349,1.102-0.546,1.588c0,0,0.028-0.584,0.07-1.588c0.15-1.631,0.485-5.676,0.447-8.816
					c-0.021-3.836-0.161-7.052-0.517-8.369L-18.807-8.809z"/>
			</g>
			<g>
				<path fill="#61A246" d="M-17.099-5.909c0,0-0.033,0.861-0.054,2.286c-0.06,1.876-0.02,5.88,1.174,8.816
					c0.319,1.706,0.72,3.246,1.224,4.487c0,0-0.084-1.788-0.185-4.487c-0.191-2.348-0.44-6.196-0.288-8.816
					c0.067-2.51,0.212-4.502,0.473-5.469L-17.099-5.909z"/>
			</g>
			<g>
				<path fill="#97B73E" d="M-15.208-6.312c0,0-0.014,1.041-0.015,2.688c-0.002,2.22,0.109,6.835,1.015,8.816
					c0.055,0.262,0.113,0.503,0.174,0.72c0,0,0.003-0.257,0.011-0.72c0.045-1.25,0.245-5.767,0.894-8.816
					c0.2-2.038,0.442-3.775,0.735-4.911L-15.208-6.312z"/>
			</g>
			<g>
				<path fill="#61A246" d="M1.997-5.274c0,0-0.027,0.622-0.1,1.65C1.64-1.977,0.813,1.932-1.439,3.883c0,0,1.774-4.384,2.402-7.507
					c0.19-2.051,0.275-3.851,0.175-5.065L1.997-5.274z"/>
			</g>
			<g>
				<path fill="#437021" d="M-3.31-7.155c0,0,0,1.417,0.057,3.532c0.126,2.151,0.532,5.874,1.836,7.593c0,0-0.679-4.016-0.964-7.593
					c-0.131-3.583-0.179-6.964-0.039-9.196L-3.31-7.155z"/>
			</g>
			<g>
				<path fill="#437021" d="M-28.203-7.155c0,0,0,1.417,0.057,3.532c0.126,2.151,0.532,5.874,1.836,7.593
					c0,0-0.679-4.016-0.964-7.593c-0.131-3.583-0.179-6.964-0.039-9.196L-28.203-7.155z"/>
			</g>
			<g>
				<path fill="#97B73E" d="M-11.965-5.617c0,0,0.093,0.757,0.253,1.994c0.565,2.005,1.96,6.751,3.022,8.632
					c0.017,0.065,0.033,0.126,0.05,0.184c0.073,0.56,0.142,0.964,0.205,1.166c0,0-0.015-0.425-0.04-1.166
					C-8.524,4.527-8.61,3.31-8.69,1.911c-0.226-1.81-0.432-3.923-0.418-5.534c0.009-2.219,0.105-4,0.34-4.902L-11.965-5.617z"/>
			</g>
			<g>
				<path fill="#97B73E" d="M-7.439-7.673c0,0,0.074,1.638,0.209,4.05c0.303,2.485,0.913,6.757,1.684,8.332
					c0,0-0.446-6.399-0.446-8.133c0,0-0.053-0.076-0.14-0.199C-6.495-4.748-7.439-7.673-7.439-7.673z"/>
			</g>
			<g>
				<path fill="#97B73E" d="M-1.306-9.586c0,0,0.115,2.546,0.32,5.962C-0.658-1.11-0.099,2.429,0.587,3.83
					c0,0-0.358-5.138-0.433-7.454C0.145-4.208,0.14-4.71,0.14-5.103L-1.306-9.586z"/>
			</g>
			<g>
				<path fill="#97B73E" d="M10.642-7.653c0,0,0.115,2.546,0.32,5.962c0.328,2.514,0.887,6.052,1.573,7.454
					c0,0-0.358-5.138-0.433-7.454c-0.009-0.585-0.013-1.087-0.013-1.479L10.642-7.653z"/>
			</g>
			<g>
				<path fill="#97B73E" d="M-20.972-4.632c0,0-0.048,0.363-0.128,1.008c-0.371,1.387-1.978,3.674-1.869,6.883
					c0.041,2.611-0.189,4.915,0.269,6.472c0,0-0.515-0.695-1.077-4.539c-0.776-2.443-0.645-5.954-0.357-8.816
					c0.076-1.636,0.231-3.174,0.488-4.547L-20.972-4.632z"/>
			</g>
			<g>
				<path fill="#437021" d="M-14.49-5.149c0,0,0.159,0.57,0.384,1.525c0.889,1.736,3.795,6.239,0.904,8.219
					c0,0,0.345-5.308-2.549-8.219c-0.203-0.444-0.422-0.863-0.658-1.251L-14.49-5.149z"/>
			</g>
			<g>
				<path fill="#61A246" d="M-5.615-5.571c0,0,0.128,0.732,0.296,1.948c0.508,1.684,1.387,5.391,0.257,8.007
					c0,0-0.353-4.934-1.211-8.007c-0.232-1.809-0.501-3.322-0.811-4.245L-5.615-5.571z"/>
			</g>
			<g>
				<path fill="#61A246" d="M17.453-7.673c0,0,0.074,1.638,0.209,4.05c0.303,2.485,0.913,6.757,1.684,8.332
					c0,0-0.446-6.399-0.446-8.133c0,0-0.053-0.076-0.14-0.199C18.397-4.748,17.453-7.673,17.453-7.673z"/>
			</g>
			<g>
				<path fill="#97B73E" d="M26.248-5.571c0,0,0.128,0.732,0.296,1.948c0.508,1.684,1.938,6.424,0.807,9.04
					c0,0-0.904-5.967-1.762-9.04c-0.232-1.809-0.501-3.322-0.811-4.245L26.248-5.571z"/>
			</g>
			<g>
				<path fill="#61A246" d="M4.196-7.702c0,0,0.227,1.64,0.426,4.079C4.962-1.705,5.22,1.29,4.115,3.419c0,0-0.001-3.971-0.46-7.043
					c-0.192-2.795-0.464-5.248-0.849-6.585L4.196-7.702z"/>
			</g>
			<g>
				<path fill="#97B73E" d="M30.077-4.537c0,0-0.031,0.333-0.111,0.913c-0.409,1.37-2.191,3.438-5.187,7.593
					c0,0,1.959-4.459,3.181-7.593c0.312-1.742,0.432-3.26,0.242-4.325L30.077-4.537z"/>
			</g>
			<g>
				<path fill="#437021" d="M-31.38-10.325c0,0,0,2.904,0.129,6.701c0.199,2.679,0.703,6.324,1.98,7.591c0,0,0.002-4.67,0.313-7.591
					c0.097-1.992,0.225-3.611,0.392-4.426L-31.38-10.325z"/>
			</g>
			<g>
				<path fill="#437021" d="M28.563-10.325c0,0,0,2.904,0.129,6.701c0.199,2.679,0.703,6.324,1.98,7.591c0,0,0.002-4.67,0.313-7.591
					c0.097-1.992,0.225-3.611,0.392-4.426L28.563-10.325z"/>
			</g>
			<g>
				<path fill="#437021" d="M-20.764-12.03c0,0-0.075,3.701-0.228,8.407c-0.225,3.173-0.619,7.339-1.194,8.584
					c0,0,0.238-5.144,0.248-8.584c0.004-2.864-0.026-5.186-0.114-6.131L-20.764-12.03z"/>
			</g>
			<g>
				<path fill="#437021" d="M13.652-5.476c0,0,0.112,0.713,0.353,1.852c0.806,1.749,3.053,5.683,7.385,6.891
					c0,0-4.271-3.809-5.254-6.891c-0.192-1.309-0.259-2.559-0.143-3.674L13.652-5.476z"/>
			</g>
		</g>
	</g>
</symbol>
<use xlink:href="#grass2"  width="62.757" height="26.731" id="XMLID_21_" x="-31.379" y="-13.214" transform="matrix(0.9993 0 0 -0.9993 30.09 13.5)" overflow="visible"/>
</svg>
