<?xml version="1.0" encoding="utf-8"?>
<!-- Generator: Adobe Illustrator 17.1.0, SVG Export Plug-In . SVG Version: 6.00 Build 0)  -->
<!DOCTYPE svg PUBLIC "-//W3C//DTD SVG 1.1//EN" "http://www.w3.org/Graphics/SVG/1.1/DTD/svg11.dtd">
<svg version="1.1" xmlns="http://www.w3.org/2000/svg" xmlns:xlink="http://www.w3.org/1999/xlink" x="0px" y="0px"
	 viewBox="0 0 50 220" enable-background="new 0 0 50 220" xml:space="preserve">
<g id="Layer_1">
	<rect y="165" display="none" fill="#80B841" width="50" height="55"/>
	<rect display="none" fill="#443F99" width="50" height="55"/>
	<rect y="55" display="none" fill="#4EB680" width="50" height="55"/>
	<rect y="110" display="none" fill="#AF5FA5" width="50" height="55"/>
	<path fill="#0095B7" d="M20.901,52c-4.871,0-10.162-1.858-15.724-5.521l-1.569-1.032L3.13,43.632
		c-0.112-0.436-2.726-10.749,3.596-19.589c4.813-6.731,13.187-10.565,24.89-11.394l0.34-0.012c0.024-0.005,3.106-0.184,6.246-3.328
		L47.5,0l-0.952,13.131C46.431,14.719,43.466,52,20.901,52z"/>
	<g>
		
			<linearGradient id="SVGID_1_" gradientUnits="userSpaceOnUse" x1="-649.8357" y1="-379.8969" x2="-623.4387" y2="-379.8969" gradientTransform="matrix(0.7942 0.6077 -0.6077 0.7942 301.0891 717.0477)">
			<stop  offset="0" style="stop-color:#B1D235"/>
			<stop  offset="1" style="stop-color:#80B841"/>
		</linearGradient>
		<path fill="url(#SVGID_1_)" d="M7.993,42.708c0,0-6.097-23.162,24.602-25.337c0,0,5.054-0.007,9.905-4.857
			C42.5,12.514,38.836,62.992,7.993,42.708z"/>
		<path fill="#6EA341" d="M7.993,42.708c0,0,22.539-7.966,30.909-26.13C38.902,16.578,32.054,36.93,7.993,42.708z"/>
	</g>
	<path fill="#0095B7" d="M20.901,107c-4.871,0-10.162-1.858-15.724-5.521l-1.569-1.032L3.13,98.632
		c-0.112-0.436-2.726-10.749,3.596-19.589c4.813-6.731,13.187-10.565,24.89-11.394l0.34-0.012c0.024-0.005,3.106-0.184,6.246-3.328
		L47.5,55l-0.952,13.131C46.431,69.719,43.466,107,20.901,107z"/>
	<g>
		<linearGradient id="SVGID_2_" gradientUnits="userSpaceOnUse" x1="7.5" y1="85.0143" x2="42.5" y2="85.0143">
			<stop  offset="0" style="stop-color:#FFCD2A"/>
			<stop  offset="0.9978" style="stop-color:#D79F29"/>
		</linearGradient>
		<path fill="url(#SVGID_2_)" d="M7.993,97.708c0,0-6.097-23.162,24.602-25.337c0,0,5.054-0.007,9.905-4.857
			C42.5,67.514,38.836,117.992,7.993,97.708z"/>
		<path fill="#D48E29" d="M7.993,97.708c0,0,22.539-7.966,30.909-26.13C38.902,71.578,32.054,91.93,7.993,97.708z"/>
	</g>
	<path fill="#0095B7" d="M20.901,217c-4.871,0-10.162-1.858-15.724-5.521l-1.569-1.032l-0.478-1.816
		c-0.112-0.436-2.726-10.749,3.596-19.589c4.813-6.731,13.187-10.565,24.89-11.394l0.34-0.012c0.024-0.005,3.106-0.184,6.246-3.328
		L47.5,165l-0.952,13.131C46.431,179.719,43.466,217,20.901,217z"/>
	<g>
		<linearGradient id="SVGID_3_" gradientUnits="userSpaceOnUse" x1="7.5" y1="195.0143" x2="42.5" y2="195.0143">
			<stop  offset="0" style="stop-color:#8B5E3C"/>
			<stop  offset="1" style="stop-color:#603913"/>
		</linearGradient>
		<path fill="url(#SVGID_3_)" d="M7.993,207.708c0,0-6.097-23.162,24.602-25.337c0,0,5.054-0.007,9.905-4.857
			C42.5,177.514,38.836,227.992,7.993,207.708z"/>
		<path fill="#4D2711" d="M7.993,207.708c0,0,22.539-7.966,30.909-26.13C38.902,181.578,32.054,201.93,7.993,207.708z"/>
	</g>
	<g>
		<path fill="#0095B7" d="M20.901,162c-4.871,0-10.162-1.858-15.724-5.521l-1.569-1.032l-0.478-1.816
			c-0.112-0.436-2.726-10.749,3.596-19.589c4.813-6.731,13.187-10.565,24.89-11.394l0.34-0.012c0.024-0.005,3.106-0.184,6.246-3.328
			L47.5,110l-0.952,13.131C46.431,124.719,43.466,162,20.901,162z"/>
		<g>
			<linearGradient id="SVGID_4_" gradientUnits="userSpaceOnUse" x1="7.5" y1="140.0143" x2="42.5" y2="140.0143">
				<stop  offset="0" style="stop-color:#EE6129"/>
				<stop  offset="0.9907" style="stop-color:#ED2B24"/>
			</linearGradient>
			<path fill="url(#SVGID_4_)" d="M7.993,152.708c0,0-6.097-23.162,24.602-25.337c0,0,5.054-0.007,9.905-4.857
				C42.5,122.514,38.836,172.992,7.993,152.708z"/>
			<path fill="#AD1F2A" d="M7.993,152.708c0,0,22.539-7.966,30.909-26.13C38.902,126.578,32.054,146.93,7.993,152.708z"/>
		</g>
	</g>
</g>
<g id="Layer_2">
</g>
</svg>
