<?xml version="1.0" encoding="utf-8"?>
<!-- Generator: Adobe Illustrator 17.1.0, SVG Export Plug-In . SVG Version: 6.00 Build 0)  -->
<!DOCTYPE svg PUBLIC "-//W3C//DTD SVG 1.1//EN" "http://www.w3.org/Graphics/SVG/1.1/DTD/svg11.dtd">
<svg version="1.1" id="Layer_1" xmlns="http://www.w3.org/2000/svg" xmlns:xlink="http://www.w3.org/1999/xlink" x="0px" y="0px"
	 viewBox="0 0 35 35" enable-background="new 0 0 35 35" xml:space="preserve">
<path display="none" fill="#0195B6" d="M13.401,39.453c-4.871,0-10.162-1.858-15.724-5.521l-1.569-1.032l-0.478-1.816
	c-0.112-0.436-2.726-10.749,3.596-19.589C4.039,4.765,12.413,0.93,24.116,0.101l0.34-0.012c0.024-0.005,3.106-0.184,6.246-3.328
	L40-12.547L39.048,0.584C38.931,2.172,35.966,39.453,13.401,39.453z"/>
<g display="none">
	
		<linearGradient id="SVGID_1_" gradientUnits="userSpaceOnUse" x1="-612.8871" y1="-404.1141" x2="-586.4901" y2="-404.1141" gradientTransform="matrix(0.7942 0.6077 -0.6077 0.7942 249.5273 701.2805)">
		<stop  offset="0" style="stop-color:#B0D135"/>
		<stop  offset="1" style="stop-color:#7FB742"/>
	</linearGradient>
	<path display="inline" fill="url(#SVGID_1_)" d="M0.493,30.161c0,0-6.097-23.162,24.602-25.337c0,0,5.054-0.007,9.905-4.857
		C35-0.033,31.336,50.445,0.493,30.161z"/>
	<path display="inline" fill="#6EA342" d="M0.493,30.161c0,0,22.539-7.966,30.909-26.13C31.402,4.031,24.554,24.383,0.493,30.161z"
		/>
</g>
<path display="none" fill="#0195B6" d="M13.401,39.453c-4.871,0-10.162-1.858-15.724-5.521l-1.569-1.032l-0.478-1.816
	c-0.112-0.436-2.726-10.749,3.596-19.589C4.039,4.765,12.413,0.93,24.116,0.101l0.34-0.012c0.024-0.005,3.106-0.184,6.246-3.328
	L40-12.547L39.048,0.584C38.931,2.172,35.966,39.453,13.401,39.453z"/>
<g display="none">
	<linearGradient id="SVGID_2_" gradientUnits="userSpaceOnUse" x1="1.045561e-05" y1="17.4674" x2="35" y2="17.4674">
		<stop  offset="0" style="stop-color:#FFCD2A"/>
		<stop  offset="0.9978" style="stop-color:#D79E29"/>
	</linearGradient>
	<path display="inline" fill="url(#SVGID_2_)" d="M0.493,30.161c0,0-6.097-23.162,24.602-25.337c0,0,5.054-0.007,9.905-4.857
		C35-0.033,31.336,50.445,0.493,30.161z"/>
	<path display="inline" fill="#D48D29" d="M0.493,30.161c0,0,22.539-7.966,30.909-26.13C31.402,4.031,24.554,24.383,0.493,30.161z"
		/>
</g>
<path display="none" fill="#0195B6" d="M13.401,39.453c-4.871,0-10.162-1.858-15.724-5.521l-1.569-1.032l-0.478-1.816
	c-0.112-0.436-2.726-10.749,3.596-19.589C4.039,4.765,12.413,0.93,24.116,0.101l0.34-0.012c0.024-0.005,3.106-0.184,6.246-3.328
	L40-12.547L39.048,0.584C38.931,2.172,35.966,39.453,13.401,39.453z"/>
<g display="none">
	<linearGradient id="SVGID_3_" gradientUnits="userSpaceOnUse" x1="2.963015e-06" y1="17.4674" x2="35" y2="17.4674">
		<stop  offset="0" style="stop-color:#8A5D3B"/>
		<stop  offset="1" style="stop-color:#603813"/>
	</linearGradient>
	<path display="inline" fill="url(#SVGID_3_)" d="M0.493,30.161c0,0-6.097-23.162,24.602-25.337c0,0,5.054-0.007,9.905-4.857
		C35-0.033,31.336,50.445,0.493,30.161z"/>
	<path display="inline" fill="#4D2710" d="M0.493,30.161c0,0,22.539-7.966,30.909-26.13C31.402,4.031,24.554,24.383,0.493,30.161z"
		/>
</g>
<path display="none" fill="#0195B6" d="M13.401,39.453c-4.871,0-10.162-1.858-15.724-5.521l-1.569-1.032l-0.478-1.816
	c-0.112-0.436-2.726-10.749,3.596-19.589C4.039,4.765,12.413,0.93,24.116,0.101l0.34-0.012c0.024-0.005,3.106-0.184,6.246-3.328
	L40-12.547L39.048,0.584C38.931,2.172,35.966,39.453,13.401,39.453z"/>
<g>
	<linearGradient id="SVGID_4_" gradientUnits="userSpaceOnUse" x1="7.981869e-06" y1="17.4674" x2="35" y2="17.4674">
		<stop  offset="0" style="stop-color:#EE6129"/>
		<stop  offset="0.9907" style="stop-color:#ED2A24"/>
	</linearGradient>
	<path fill="url(#SVGID_4_)" d="M0.493,30.161c0,0-6.097-23.162,24.602-25.337c0,0,5.054-0.007,9.905-4.857
		C35-0.033,31.336,50.445,0.493,30.161z"/>
	<path fill="#AC1F2A" d="M0.493,30.161c0,0,22.539-7.966,30.909-26.13C31.402,4.031,24.554,24.383,0.493,30.161z"/>
</g>
</svg>
