<?xml version="1.0" encoding="utf-8"?>
<!-- Generator: Adobe Illustrator 17.1.0, SVG Export Plug-In . SVG Version: 6.00 Build 0)  -->
<!DOCTYPE svg PUBLIC "-//W3C//DTD SVG 1.1//EN" "http://www.w3.org/Graphics/SVG/1.1/DTD/svg11.dtd">
<svg version="1.1" id="Layer_1" xmlns="http://www.w3.org/2000/svg" xmlns:xlink="http://www.w3.org/1999/xlink" x="0px" y="0px"
	 viewBox="0 0 35 35" enable-background="new 0 0 35 35" xml:space="preserve">
<path display="none" fill="#0195B6" d="M13.401,45C8.53,45,3.238,43.142-2.324,39.479l-1.569-1.032l-0.478-1.816
	c-0.112-0.436-2.726-10.749,3.596-19.589c4.813-6.731,13.187-10.565,24.89-11.394l0.34-0.012c0.024-0.005,3.106-0.184,6.246-3.328
	L40-7L39.048,6.131C38.931,7.719,35.966,45,13.401,45z"/>
<g>
	<linearGradient id="SVGID_1_" gradientUnits="userSpaceOnUse" x1="12.3491" y1="11.0888" x2="26.8751" y2="21.8753">
		<stop  offset="0" style="stop-color:#CCCCCC"/>
		<stop  offset="1" style="stop-color:#888888"/>
	</linearGradient>
	<path fill="url(#SVGID_1_)" d="M0.493,30.193c0,0-6.097-23.162,24.602-25.337c0,0,5.054-0.007,9.905-4.857
		C35,0,31.336,50.478,0.493,30.193z"/>
	<linearGradient id="SVGID_2_" gradientUnits="userSpaceOnUse" x1="0.4928" y1="17.1283" x2="31.4019" y2="17.1283">
		<stop  offset="0" style="stop-color:#777777"/>
		<stop  offset="1" style="stop-color:#888888"/>
	</linearGradient>
	<path fill="url(#SVGID_2_)" d="M0.493,30.193c0,0,22.539-7.966,30.909-26.13C31.402,4.063,24.554,24.415,0.493,30.193z"/>
</g>
<path display="none" fill="#0195B6" d="M13.401,45C8.53,45,3.238,43.142-2.324,39.479l-1.569-1.032l-0.478-1.816
	c-0.112-0.436-2.726-10.749,3.596-19.589c4.813-6.731,13.187-10.565,24.89-11.394l0.34-0.012c0.024-0.005,3.106-0.184,6.246-3.328
	L40-7L39.048,6.131C38.931,7.719,35.966,45,13.401,45z"/>
<g display="none">
	<linearGradient id="SVGID_3_" gradientUnits="userSpaceOnUse" x1="1.045561e-05" y1="23.0143" x2="35" y2="23.0143">
		<stop  offset="0" style="stop-color:#FFCD2A"/>
		<stop  offset="0.9978" style="stop-color:#D79E29"/>
	</linearGradient>
	<path display="inline" fill="url(#SVGID_3_)" d="M0.493,35.708c0,0-6.097-23.162,24.602-25.337c0,0,5.054-0.007,9.905-4.857
		C35,5.514,31.336,55.992,0.493,35.708z"/>
	<path display="inline" fill="#D48D29" d="M0.493,35.708c0,0,22.539-7.966,30.909-26.13C31.402,9.578,24.554,29.93,0.493,35.708z"/>
</g>
<path display="none" fill="#0195B6" d="M13.401,45C8.53,45,3.238,43.142-2.324,39.479l-1.569-1.032l-0.478-1.816
	c-0.112-0.436-2.726-10.749,3.596-19.589c4.813-6.731,13.187-10.565,24.89-11.394l0.34-0.012c0.024-0.005,3.106-0.184,6.246-3.328
	L40-7L39.048,6.131C38.931,7.719,35.966,45,13.401,45z"/>
<g display="none">
	<linearGradient id="SVGID_4_" gradientUnits="userSpaceOnUse" x1="2.963015e-06" y1="23.0143" x2="35" y2="23.0143">
		<stop  offset="0" style="stop-color:#8A5D3B"/>
		<stop  offset="1" style="stop-color:#603813"/>
	</linearGradient>
	<path display="inline" fill="url(#SVGID_4_)" d="M0.493,35.708c0,0-6.097-23.162,24.602-25.337c0,0,5.054-0.007,9.905-4.857
		C35,5.514,31.336,55.992,0.493,35.708z"/>
	<path display="inline" fill="#4D2710" d="M0.493,35.708c0,0,22.539-7.966,30.909-26.13C31.402,9.578,24.554,29.93,0.493,35.708z"/>
</g>
<path display="none" fill="#0195B6" d="M13.401,45C8.53,45,3.238,43.142-2.324,39.479l-1.569-1.032l-0.478-1.816
	c-0.112-0.436-2.726-10.749,3.596-19.589c4.813-6.731,13.187-10.565,24.89-11.394l0.34-0.012c0.024-0.005,3.106-0.184,6.246-3.328
	L40-7L39.048,6.131C38.931,7.719,35.966,45,13.401,45z"/>
<g display="none">
	<linearGradient id="SVGID_5_" gradientUnits="userSpaceOnUse" x1="7.981868e-06" y1="23.0143" x2="35" y2="23.0143">
		<stop  offset="0" style="stop-color:#EE6129"/>
		<stop  offset="0.9907" style="stop-color:#ED2A24"/>
	</linearGradient>
	<path display="inline" fill="url(#SVGID_5_)" d="M0.493,35.708c0,0-6.097-23.162,24.602-25.337c0,0,5.054-0.007,9.905-4.857
		C35,5.514,31.336,55.992,0.493,35.708z"/>
	<path display="inline" fill="#AC1F2A" d="M0.493,35.708c0,0,22.539-7.966,30.909-26.13C31.402,9.578,24.554,29.93,0.493,35.708z"/>
</g>
<g id="green_leaf_right">
</g>
</svg>
