<?xml version="1.0" encoding="utf-8"?>
<!-- Generator: Adobe Illustrator 17.1.0, SVG Export Plug-In . SVG Version: 6.00 Build 0)  -->
<!DOCTYPE svg PUBLIC "-//W3C//DTD SVG 1.1//EN" "http://www.w3.org/Graphics/SVG/1.1/DTD/svg11.dtd">
<svg version="1.1" id="Layer_1" xmlns="http://www.w3.org/2000/svg" xmlns:xlink="http://www.w3.org/1999/xlink" x="0px" y="0px"
	 viewBox="0 0 45 52" enable-background="new 0 0 45 52" xml:space="preserve">
<path fill="#0195B6" d="M18.401,52c-4.871,0-10.162-1.858-15.724-5.521l-1.569-1.032L0.63,43.632
	c-0.112-0.436-2.726-10.749,3.596-19.589c4.813-6.731,13.187-10.565,24.89-11.394l0.34-0.012c0.024-0.005,3.106-0.184,6.246-3.328
	L45,0l-0.952,13.131C43.931,14.719,40.966,52,18.401,52z"/>
<g>
	<linearGradient id="SVGID_1_" gradientUnits="userSpaceOnUse" x1="17.3491" y1="23.6031" x2="31.8751" y2="34.3896">
		<stop  offset="0" style="stop-color:#7BA22E"/>
		<stop  offset="1" style="stop-color:#416F21"/>
	</linearGradient>
	<path fill="url(#SVGID_1_)" d="M5.493,42.708c0,0-6.097-23.162,24.602-25.337c0,0,5.054-0.007,9.905-4.857
		C40,12.514,36.336,62.992,5.493,42.708z"/>
	<path fill="#47642E" d="M5.493,42.708c0,0,22.539-7.966,30.909-26.13C36.402,16.578,29.554,36.93,5.493,42.708z"/>
</g>
<path display="none" fill="#0195B6" d="M18.401,52c-4.871,0-10.162-1.858-15.724-5.521l-1.569-1.032L0.63,43.632
	c-0.112-0.436-2.726-10.749,3.596-19.589c4.813-6.731,13.187-10.565,24.89-11.394l0.34-0.012c0.024-0.005,3.106-0.184,6.246-3.328
	L45,0l-0.952,13.131C43.931,14.719,40.966,52,18.401,52z"/>
<g display="none">
	<linearGradient id="SVGID_2_" gradientUnits="userSpaceOnUse" x1="5" y1="30.0143" x2="40" y2="30.0143">
		<stop  offset="0" style="stop-color:#FFCD2A"/>
		<stop  offset="0.9978" style="stop-color:#D79E29"/>
	</linearGradient>
	<path display="inline" fill="url(#SVGID_2_)" d="M5.493,42.708c0,0-6.097-23.162,24.602-25.337c0,0,5.054-0.007,9.905-4.857
		C40,12.514,36.336,62.992,5.493,42.708z"/>
	<path display="inline" fill="#D48D29" d="M5.493,42.708c0,0,22.539-7.966,30.909-26.13C36.402,16.578,29.554,36.93,5.493,42.708z"
		/>
</g>
<path display="none" fill="#0195B6" d="M18.401,52c-4.871,0-10.162-1.858-15.724-5.521l-1.569-1.032L0.63,43.632
	c-0.112-0.436-2.726-10.749,3.596-19.589c4.813-6.731,13.187-10.565,24.89-11.394l0.34-0.012c0.024-0.005,3.106-0.184,6.246-3.328
	L45,0l-0.952,13.131C43.931,14.719,40.966,52,18.401,52z"/>
<g display="none">
	<linearGradient id="SVGID_3_" gradientUnits="userSpaceOnUse" x1="5" y1="30.0143" x2="40" y2="30.0143">
		<stop  offset="0" style="stop-color:#8A5D3B"/>
		<stop  offset="1" style="stop-color:#603813"/>
	</linearGradient>
	<path display="inline" fill="url(#SVGID_3_)" d="M5.493,42.708c0,0-6.097-23.162,24.602-25.337c0,0,5.054-0.007,9.905-4.857
		C40,12.514,36.336,62.992,5.493,42.708z"/>
	<path display="inline" fill="#4D2710" d="M5.493,42.708c0,0,22.539-7.966,30.909-26.13C36.402,16.578,29.554,36.93,5.493,42.708z"
		/>
</g>
<path display="none" fill="#0195B6" d="M18.401,52c-4.871,0-10.162-1.858-15.724-5.521l-1.569-1.032L0.63,43.632
	c-0.112-0.436-2.726-10.749,3.596-19.589c4.813-6.731,13.187-10.565,24.89-11.394l0.34-0.012c0.024-0.005,3.106-0.184,6.246-3.328
	L45,0l-0.952,13.131C43.931,14.719,40.966,52,18.401,52z"/>
<g display="none">
	<linearGradient id="SVGID_4_" gradientUnits="userSpaceOnUse" x1="5" y1="30.0143" x2="40" y2="30.0143">
		<stop  offset="0" style="stop-color:#EE6129"/>
		<stop  offset="0.9907" style="stop-color:#ED2A24"/>
	</linearGradient>
	<path display="inline" fill="url(#SVGID_4_)" d="M5.493,42.708c0,0-6.097-23.162,24.602-25.337c0,0,5.054-0.007,9.905-4.857
		C40,12.514,36.336,62.992,5.493,42.708z"/>
	<path display="inline" fill="#AC1F2A" d="M5.493,42.708c0,0,22.539-7.966,30.909-26.13C36.402,16.578,29.554,36.93,5.493,42.708z"
		/>
</g>
<g id="green_leaf_right">
</g>
</svg>
