<?xml version="1.0" encoding="utf-8"?>
<!-- Generator: Adobe Illustrator 15.0.0, SVG Export Plug-In . SVG Version: 6.00 Build 0)  -->
<!DOCTYPE svg PUBLIC "-//W3C//DTD SVG 1.1//EN" "http://www.w3.org/Graphics/SVG/1.1/DTD/svg11.dtd">
<svg version="1.1" id="Layer_1" xmlns="http://www.w3.org/2000/svg" xmlns:xlink="http://www.w3.org/1999/xlink" x="0px" y="0px"
	 width="1000px" height="1000px" viewBox="0 0 1000 1000" enable-background="new 0 0 1000 1000" xml:space="preserve">
<g id="rain">
	<g opacity="0.5">
		<path fill="#FFFFFF" d="M455.357,330.02c0,0,0.831,15.662,2.078,39.162c1.312,23.5,2.337,54.825,3.604,86.156
			c0.539,15.662,1.812,31.331,1.961,46.013c-0.032,14.688-0.863,28.396-1.961,40.143c-2.039,23.5-5.682,39.163-5.682,39.163h-1.624
			c0,0-3.643-15.663-5.682-39.163c-1.097-11.746-1.929-25.454-1.961-40.143c0.149-14.688,1.422-30.351,1.961-46.013
			c1.267-31.331,2.292-62.656,3.604-86.156c1.246-23.5,2.077-39.162,2.077-39.162H455.357z"/>
	</g>
	<g opacity="0.5">
		<path fill="#FFFFFF" d="M650.162,596.253c0,0,0.831,14.448,2.078,36.117c1.312,21.669,2.338,50.565,3.604,79.461
			c0.539,14.448,1.812,28.896,1.961,42.441c-0.032,13.546-0.863,26.188-1.961,37.02c-2.039,21.669-5.682,36.117-5.682,36.117h-1.623
			c0,0-3.643-14.448-5.682-36.117c-1.098-10.838-1.929-23.474-1.961-37.02c0.149-13.545,1.422-27.993,1.961-42.441
			c1.266-28.896,2.292-57.786,3.604-79.461c1.247-21.669,2.078-36.117,2.078-36.117H650.162L650.162,596.253z"/>
	</g>
	<g opacity="0.5">
		<path fill="#FFFFFF" d="M546.267,265.084c0,0,0.831,14.039,2.077,35.104c1.312,21.065,2.338,49.143,3.604,77.227
			c0.539,14.039,1.812,28.084,1.961,41.247c-0.032,13.162-0.863,25.448-1.961,35.98c-2.039,21.065-5.682,35.104-5.682,35.104h-1.624
			c0,0-3.643-14.039-5.682-35.104c-1.098-10.532-1.929-22.818-1.961-35.98c0.149-13.162,1.422-27.208,1.961-41.247
			c1.267-28.084,2.292-56.162,3.604-77.227c1.247-21.065,2.078-35.104,2.078-35.104H546.267z"/>
	</g>
	<g opacity="0.5">
		<path fill="#FFFFFF" d="M507.143,498.851c0,0,0.662,13.637,1.663,34.091c1.052,20.455,1.87,47.728,2.883,74.993
			c0.435,13.637,1.448,27.273,1.571,40.053c-0.026,12.785-0.695,24.714-1.571,34.941c-1.63,20.454-4.546,34.091-4.546,34.091h-1.299
			c0,0-2.915-13.637-4.545-34.091c-0.877-10.228-1.546-22.156-1.571-34.941c0.123-12.786,1.136-26.423,1.571-40.053
			c1.013-27.272,1.831-54.538,2.883-74.993c1-20.454,1.662-34.091,1.662-34.091H507.143z"/>
	</g>
	<g opacity="0.5">
		<path fill="#FFFFFF" d="M377.272,778.071c0,0,0.663,13.637,1.663,34.091c1.052,20.455,1.87,47.728,2.883,74.994
			c0.435,13.636,1.448,27.272,1.571,40.052c-0.026,12.785-0.694,24.714-1.571,34.941c-1.63,20.454-4.546,34.091-4.546,34.091h-1.299
			c0,0-2.915-13.637-4.545-34.091c-0.877-10.228-1.546-22.156-1.571-34.941c0.123-12.786,1.136-26.423,1.571-40.052
			c1.013-27.273,1.831-54.539,2.883-74.994c1-20.454,1.662-34.091,1.662-34.091H377.272z"/>
	</g>
	<g opacity="0.35">
		<path fill="#FFFFFF" d="M598.052,330.02c0,0,0.649,19.721,1.624,49.305c1.11,29.584,1.902,69.033,2.922,108.481
			c0.474,19.721,1.383,39.447,1.571,57.935c-0.026,18.493-0.695,35.747-1.571,50.539c-1.662,29.584-4.546,49.305-4.546,49.305
			h-1.299c0,0-2.883-19.721-4.545-49.305c-0.877-14.792-1.546-32.052-1.571-50.539c0.188-18.493,1.097-38.214,1.571-57.935
			c1.02-39.448,1.812-78.89,2.922-108.481c0.974-29.584,1.623-49.305,1.623-49.305H598.052z"/>
	</g>
	<g opacity="0.35">
		<path fill="#FFFFFF" d="M416.233,29.221c0,0,0.649,15.663,1.624,39.163c1.11,23.5,1.902,54.825,2.922,86.156
			c0.474,15.662,1.383,31.331,1.571,46.013c-0.026,14.688-0.694,28.39-1.571,40.143c-1.662,23.5-4.546,39.163-4.546,39.163h-1.298
			c0,0-2.884-15.663-4.546-39.163c-0.877-11.747-1.546-25.455-1.571-40.143c0.188-14.688,1.098-30.351,1.571-46.013
			c1.02-31.331,1.812-62.656,2.922-86.156c0.975-23.5,1.624-39.163,1.624-39.163H416.233z"/>
	</g>
	<g opacity="0.35">
		<path fill="#FFFFFF" d="M312.338,278.071c0,0,0.649,14.851,1.623,37.13c1.11,22.279,1.902,51.987,2.922,81.695
			c0.475,14.851,1.384,29.707,1.572,43.63c-0.026,13.922-0.695,26.922-1.572,38.058c-1.662,22.279-4.545,37.13-4.545,37.13h-1.299
			c0,0-2.883-14.851-4.546-37.13c-0.876-11.143-1.545-24.136-1.571-38.058c0.188-13.923,1.098-28.779,1.571-43.63
			c1.02-29.708,1.812-59.41,2.923-81.695c0.974-22.279,1.623-37.13,1.623-37.13H312.338z"/>
	</g>
	<g opacity="0.5">
		<path fill="#FFFFFF" d="M331.818,589.76c0,0,0.649,15.662,1.623,39.162c1.11,23.5,1.902,54.825,2.922,86.156
			c0.475,15.662,1.384,31.331,1.572,46.013c-0.026,14.688-0.695,28.39-1.572,40.143c-1.662,23.5-4.545,39.163-4.545,39.163h-1.299
			c0,0-2.883-15.663-4.546-39.163c-0.876-11.746-1.545-25.454-1.571-40.143c0.188-14.688,1.098-30.351,1.571-46.013
			c1.02-31.331,1.812-62.656,2.923-86.156c0.974-23.5,1.623-39.162,1.623-39.162H331.818z"/>
	</g>
	<g opacity="0.5">
		<path fill="#FFFFFF" d="M442.37,615.733c0,0,0.831,19.721,2.078,49.306c1.312,29.584,2.338,69.032,3.604,108.48
			c0.539,19.721,1.812,39.448,1.961,57.936c-0.032,18.493-0.863,35.746-1.961,50.538c-2.039,29.585-5.682,49.306-5.682,49.306
			h-1.623c0,0-3.644-19.721-5.683-49.306c-1.097-14.792-1.928-32.052-1.961-50.538c0.149-18.494,1.423-38.215,1.961-57.936
			c1.267-39.448,2.293-78.89,3.604-108.48c1.247-29.584,2.078-49.306,2.078-49.306H442.37L442.37,615.733z"/>
	</g>
	<g opacity="0.5">
		<path fill="#FFFFFF" d="M364.448,96.253c0,0,0.831,19.721,2.078,49.305c1.312,29.591,2.337,69.032,3.604,108.48
			c0.539,19.721,1.812,39.448,1.961,57.935c-0.032,18.494-0.863,35.747-1.961,50.539c-2.039,29.584-5.682,49.305-5.682,49.305
			h-1.624c0,0-3.643-19.721-5.682-49.305c-1.097-14.792-1.929-32.052-1.961-50.539c0.149-18.487,1.422-38.214,1.961-57.935
			c1.267-39.448,2.293-78.89,3.604-108.48c1.246-29.584,2.077-49.305,2.077-49.305H364.448z"/>
	</g>
	<g opacity="0.25">
		<path fill="#FFFFFF" d="M493.993,154.695c0,0,0.487,14.448,1.221,36.117c0.838,21.669,1.429,50.565,2.188,79.461
			c0.436,14.448,1.014,28.896,1.176,42.442c-0.137,6.772-0.071,13.318-0.364,19.526c-0.201,6.208-0.48,12.078-0.812,17.494
			c-0.279,5.416-0.792,10.383-1.11,14.786c-0.318,4.402-0.675,8.24-1.071,11.402c-0.662,6.318-1.228,9.935-1.228,9.935h-0.974
			c0,0-0.559-3.61-1.228-9.935c-0.396-3.162-0.753-7-1.071-11.402c-0.318-4.403-0.831-9.37-1.11-14.786
			c-0.338-5.416-0.61-11.286-0.812-17.494c-0.292-6.208-0.228-12.753-0.363-19.526c0.162-13.545,0.74-27.994,1.175-42.442
			c0.767-28.896,1.357-57.786,2.188-79.461c0.733-21.668,1.221-36.117,1.221-36.117H493.993z"/>
	</g>
	<g opacity="0.25">
		<path fill="#FFFFFF" d="M396.591,427.422c0,0,0.487,14.448,1.221,36.117c0.838,21.669,1.429,50.564,2.188,79.461
			c0.436,14.448,1.013,28.896,1.176,42.441c-0.137,6.772-0.072,13.318-0.364,19.526c-0.201,6.208-0.48,12.077-0.812,17.493
			c-0.279,5.416-0.792,10.383-1.11,14.786c-0.318,4.402-0.676,8.24-1.071,11.402c-0.662,6.318-1.228,9.935-1.228,9.935h-0.974
			c0,0-0.559-3.61-1.228-9.935c-0.396-3.162-0.753-7-1.071-11.402c-0.318-4.403-0.831-9.37-1.11-14.786
			c-0.338-5.416-0.61-11.285-0.812-17.493c-0.293-6.208-0.228-12.754-0.364-19.526c0.163-13.545,0.74-27.993,1.176-42.441
			c0.766-28.896,1.356-57.786,2.188-79.461c0.733-21.669,1.221-36.117,1.221-36.117H396.591L396.591,427.422z"/>
	</g>
	<g opacity="0.25">
		<path fill="#FFFFFF" d="M685.228,265.357c0,0,0.915,18.876,2.279,47.182c1.435,28.312,2.623,66.059,4.052,103.812
			c0.623,18.877,1.974,37.747,2.201,55.441c0.046,17.695-0.721,34.221-1.753,48.384c-1.916,28.324-5.48,47.221-5.48,47.221
			l-1.624,0.006c0,0-3.727-18.863-5.883-47.169c-1.156-14.155-2.064-30.668-2.169-48.363c0.078-17.701,1.267-36.578,1.721-55.461
			c1.104-37.76,1.968-75.52,3.156-103.838c1.123-28.318,1.876-47.201,1.876-47.201L685.228,265.357z"/>
	</g>
	<g opacity="0.25">
		<path fill="#FFFFFF" d="M559.253,661.188c0,0,0.831,18.909,2.078,47.279c1.312,28.37,2.338,66.188,3.604,104.013
			c0.538,18.909,1.812,37.824,1.961,55.552c-0.033,17.728-0.864,34.279-1.961,48.461c-2.039,28.37-5.683,47.279-5.683,47.279h-1.623
			c0,0-3.643-18.909-5.682-47.279c-1.098-14.182-1.929-30.733-1.961-48.461c0.149-17.727,1.422-36.643,1.961-55.552
			c1.266-37.824,2.292-75.643,3.604-104.013c1.247-28.37,2.078-47.279,2.078-47.279H559.253L559.253,661.188z"/>
	</g>
	<g opacity="0.5">
		<path fill="#FFFFFF" d="M637.176-1.149c0,0,0.831,19.721,2.077,49.305c1.312,29.584,2.338,69.033,3.604,108.48
			c0.539,19.721,1.812,39.448,1.961,57.935c-0.032,18.494-0.863,35.747-1.961,50.539c-2.039,29.584-5.682,49.305-5.682,49.305
			h-1.624c0,0-3.643-19.721-5.682-49.305c-1.098-14.792-1.929-32.052-1.961-50.539c0.149-18.493,1.422-38.214,1.961-57.935
			c1.267-39.448,2.292-78.89,3.604-108.48c1.247-29.584,2.078-49.305,2.078-49.305H637.176z"/>
	</g>
	<g opacity="0.4">
		<path fill="#FFFFFF" d="M546.267,44.305c0,0,0.967,9.169,2.077,22.929c1.234,13.76,2.585,32.097,3.604,50.441
			c0.539,9.169,1.812,18.344,1.961,26.941c-0.032,8.598-0.863,16.624-1.961,23.5c-2.039,13.76-5.682,22.929-5.682,22.929h-1.624
			c0,0-3.643-9.169-5.682-22.929c-1.098-6.876-1.929-14.902-1.961-23.5c0.149-8.597,1.422-17.766,1.961-26.941
			c1.02-18.344,2.37-36.682,3.604-50.441c1.111-13.76,2.078-22.929,2.078-22.929H546.267z"/>
	</g>
	<g opacity="0.4">
		<path fill="#FFFFFF" d="M487.824,817.032c0,0,0.968,9.169,2.078,22.929c1.234,13.76,2.585,32.098,3.604,50.441
			c0.539,9.169,1.812,18.345,1.961,26.941c-0.032,8.598-0.864,16.624-1.961,23.5c-2.039,13.76-5.683,22.929-5.683,22.929h-1.623
			c0,0-3.643-9.169-5.682-22.929c-1.098-6.876-1.929-14.902-1.961-23.5c0.149-8.597,1.422-17.766,1.961-26.941
			c1.02-18.344,2.37-36.682,3.604-50.441c1.11-13.76,2.078-22.929,2.078-22.929H487.824z"/>
	</g>
</g>
<g id="rain_1_">
	<g opacity="0.5">
		<path fill="#FFFFFF" d="M170.357,336.779c0,0,0.831,15.662,2.078,39.162c1.312,23.5,2.337,54.825,3.604,86.156
			c0.539,15.662,1.812,31.331,1.961,46.013c-0.032,14.688-0.863,28.396-1.961,40.143c-2.039,23.5-5.682,39.163-5.682,39.163h-1.624
			c0,0-3.643-15.663-5.682-39.163c-1.097-11.746-1.929-25.454-1.961-40.143c0.149-14.688,1.422-30.351,1.961-46.013
			c1.267-31.331,2.292-62.656,3.604-86.156c1.246-23.5,2.077-39.162,2.077-39.162H170.357z"/>
	</g>
	<g opacity="0.5">
		<path fill="#FFFFFF" d="M365.162,603.013c0,0,0.831,14.448,2.078,36.117c1.312,21.669,2.338,50.565,3.604,79.461
			c0.539,14.448,1.812,28.896,1.961,42.441c-0.032,13.546-0.863,26.188-1.961,37.02c-2.039,21.669-5.682,36.117-5.682,36.117h-1.623
			c0,0-3.643-14.448-5.682-36.117c-1.098-10.838-1.929-23.474-1.961-37.02c0.149-13.545,1.422-27.993,1.961-42.441
			c1.266-28.896,2.292-57.786,3.604-79.461c1.247-21.669,2.078-36.117,2.078-36.117H365.162L365.162,603.013z"/>
	</g>
	<g opacity="0.5">
		<path fill="#FFFFFF" d="M261.267,271.844c0,0,0.831,14.039,2.077,35.104c1.312,21.065,2.338,49.143,3.604,77.227
			c0.539,14.039,1.812,28.084,1.961,41.247c-0.032,13.162-0.863,25.448-1.961,35.98c-2.039,21.065-5.682,35.104-5.682,35.104h-1.624
			c0,0-3.643-14.039-5.682-35.104c-1.098-10.532-1.929-22.818-1.961-35.98c0.149-13.162,1.422-27.208,1.961-41.247
			c1.267-28.084,2.292-56.162,3.604-77.227c1.247-21.065,2.078-35.104,2.078-35.104H261.267z"/>
	</g>
	<g opacity="0.5">
		<path fill="#FFFFFF" d="M222.143,505.61c0,0,0.662,13.637,1.663,34.091c1.052,20.455,1.87,47.728,2.883,74.993
			c0.435,13.637,1.448,27.273,1.571,40.053c-0.026,12.785-0.695,24.714-1.571,34.941c-1.63,20.454-4.546,34.091-4.546,34.091h-1.299
			c0,0-2.915-13.637-4.545-34.091c-0.877-10.228-1.546-22.156-1.571-34.941c0.123-12.786,1.136-26.423,1.571-40.053
			c1.013-27.272,1.831-54.538,2.883-74.993c1-20.454,1.662-34.091,1.662-34.091H222.143z"/>
	</g>
	<g opacity="0.5">
		<path fill="#FFFFFF" d="M92.272,784.831c0,0,0.663,13.637,1.663,34.091c1.052,20.455,1.87,47.728,2.883,74.994
			c0.435,13.636,1.448,27.272,1.571,40.052c-0.026,12.785-0.694,24.714-1.571,34.941c-1.63,20.454-4.546,34.091-4.546,34.091h-1.299
			c0,0-2.915-13.637-4.545-34.091c-0.877-10.228-1.546-22.156-1.571-34.941c0.123-12.786,1.136-26.423,1.571-40.052
			c1.013-27.273,1.831-54.539,2.883-74.994c1-20.454,1.662-34.091,1.662-34.091H92.272z"/>
	</g>
	<g opacity="0.35">
		<path fill="#FFFFFF" d="M313.052,336.779c0,0,0.649,19.721,1.624,49.305c1.11,29.584,1.902,69.033,2.922,108.481
			c0.474,19.721,1.383,39.447,1.571,57.935c-0.026,18.493-0.695,35.747-1.571,50.539c-1.662,29.584-4.546,49.305-4.546,49.305
			h-1.299c0,0-2.883-19.721-4.545-49.305c-0.877-14.792-1.546-32.052-1.571-50.539c0.188-18.493,1.097-38.214,1.571-57.935
			c1.02-39.448,1.812-78.89,2.922-108.481c0.974-29.584,1.623-49.305,1.623-49.305H313.052z"/>
	</g>
	<g opacity="0.35">
		<path fill="#FFFFFF" d="M131.233,35.98c0,0,0.649,15.663,1.624,39.163c1.11,23.5,1.902,54.825,2.922,86.156
			c0.474,15.662,1.383,31.331,1.571,46.013c-0.026,14.688-0.694,28.39-1.571,40.143c-1.662,23.5-4.546,39.163-4.546,39.163h-1.298
			c0,0-2.884-15.663-4.546-39.163c-0.877-11.747-1.546-25.455-1.571-40.143c0.188-14.688,1.098-30.351,1.571-46.013
			c1.02-31.331,1.812-62.656,2.922-86.156c0.975-23.5,1.624-39.163,1.624-39.163H131.233z"/>
	</g>
	<g opacity="0.35">
		<path fill="#FFFFFF" d="M27.338,284.831c0,0,0.649,14.851,1.623,37.13c1.11,22.279,1.902,51.987,2.922,81.695
			c0.475,14.851,1.384,29.707,1.572,43.63c-0.026,13.922-0.695,26.922-1.572,38.058c-1.662,22.279-4.545,37.13-4.545,37.13h-1.299
			c0,0-2.883-14.851-4.546-37.13c-0.876-11.143-1.545-24.136-1.571-38.058c0.188-13.923,1.098-28.779,1.571-43.63
			c1.02-29.708,1.812-59.41,2.923-81.695c0.974-22.279,1.623-37.13,1.623-37.13H27.338z"/>
	</g>
	<g opacity="0.5">
		<path fill="#FFFFFF" d="M46.818,596.52c0,0,0.649,15.662,1.623,39.162c1.11,23.5,1.902,54.825,2.922,86.156
			c0.475,15.662,1.384,31.331,1.572,46.013c-0.026,14.688-0.695,28.39-1.572,40.143c-1.662,23.5-4.545,39.163-4.545,39.163H45.52
			c0,0-2.883-15.663-4.546-39.163c-0.876-11.746-1.545-25.454-1.571-40.143c0.188-14.688,1.098-30.351,1.571-46.013
			c1.02-31.331,1.812-62.656,2.923-86.156c0.974-23.5,1.623-39.162,1.623-39.162H46.818z"/>
	</g>
	<g opacity="0.5">
		<path fill="#FFFFFF" d="M157.37,622.493c0,0,0.831,19.721,2.078,49.306c1.312,29.584,2.338,69.032,3.604,108.48
			c0.539,19.721,1.812,39.448,1.961,57.936c-0.032,18.493-0.863,35.746-1.961,50.538c-2.039,29.585-5.682,49.306-5.682,49.306
			h-1.623c0,0-3.644-19.721-5.683-49.306c-1.097-14.792-1.928-32.052-1.961-50.538c0.149-18.494,1.423-38.215,1.961-57.936
			c1.267-39.448,2.293-78.89,3.604-108.48c1.247-29.584,2.078-49.306,2.078-49.306H157.37L157.37,622.493z"/>
	</g>
	<g opacity="0.5">
		<path fill="#FFFFFF" d="M79.448,103.013c0,0,0.831,19.721,2.078,49.305c1.312,29.591,2.337,69.032,3.604,108.48
			c0.539,19.721,1.812,39.448,1.961,57.935c-0.032,18.494-0.863,35.747-1.961,50.539c-2.039,29.584-5.682,49.305-5.682,49.305
			h-1.624c0,0-3.643-19.721-5.682-49.305c-1.097-14.792-1.929-32.052-1.961-50.539c0.149-18.487,1.422-38.214,1.961-57.935
			c1.267-39.448,2.293-78.89,3.604-108.48c1.246-29.584,2.077-49.305,2.077-49.305H79.448z"/>
	</g>
	<g opacity="0.25">
		<path fill="#FFFFFF" d="M208.993,161.455c0,0,0.487,14.448,1.221,36.117c0.838,21.669,1.429,50.565,2.188,79.461
			c0.436,14.448,1.014,28.896,1.176,42.442c-0.137,6.772-0.071,13.318-0.364,19.526c-0.201,6.208-0.48,12.078-0.812,17.494
			c-0.279,5.416-0.792,10.383-1.11,14.786c-0.318,4.402-0.675,8.24-1.071,11.402c-0.662,6.318-1.228,9.935-1.228,9.935h-0.974
			c0,0-0.559-3.61-1.228-9.935c-0.396-3.162-0.753-7-1.071-11.402c-0.318-4.403-0.831-9.37-1.11-14.786
			c-0.338-5.416-0.61-11.286-0.812-17.494c-0.292-6.208-0.228-12.753-0.363-19.526c0.162-13.545,0.74-27.994,1.175-42.442
			c0.767-28.896,1.357-57.786,2.188-79.461c0.733-21.668,1.221-36.117,1.221-36.117H208.993z"/>
	</g>
	<g opacity="0.25">
		<path fill="#FFFFFF" d="M111.591,434.182c0,0,0.487,14.448,1.221,36.117c0.838,21.669,1.429,50.564,2.188,79.461
			c0.436,14.448,1.013,28.896,1.176,42.441c-0.137,6.772-0.072,13.318-0.364,19.526c-0.201,6.208-0.48,12.077-0.812,17.493
			c-0.279,5.416-0.792,10.383-1.11,14.786c-0.318,4.402-0.676,8.24-1.071,11.402c-0.662,6.318-1.228,9.935-1.228,9.935h-0.974
			c0,0-0.559-3.61-1.228-9.935c-0.396-3.162-0.753-7-1.071-11.402c-0.318-4.403-0.831-9.37-1.11-14.786
			c-0.338-5.416-0.61-11.285-0.812-17.493c-0.293-6.208-0.228-12.754-0.364-19.526c0.163-13.545,0.74-27.993,1.176-42.441
			c0.766-28.896,1.356-57.786,2.188-79.461c0.733-21.669,1.221-36.117,1.221-36.117H111.591L111.591,434.182z"/>
	</g>
	<g opacity="0.25">
		<path fill="#FFFFFF" d="M400.228,272.117c0,0,0.915,18.876,2.279,47.182c1.435,28.312,2.623,66.059,4.052,103.812
			c0.623,18.877,1.974,37.747,2.201,55.441c0.046,17.695-0.721,34.221-1.753,48.384c-1.916,28.324-5.48,47.221-5.48,47.221
			l-1.624,0.006c0,0-3.727-18.863-5.883-47.169c-1.156-14.155-2.064-30.668-2.169-48.363c0.078-17.701,1.267-36.578,1.721-55.461
			c1.104-37.76,1.968-75.52,3.156-103.838c1.123-28.318,1.876-47.201,1.876-47.201L400.228,272.117z"/>
	</g>
	<g opacity="0.25">
		<path fill="#FFFFFF" d="M274.253,667.948c0,0,0.831,18.909,2.078,47.279c1.312,28.37,2.338,66.188,3.604,104.013
			c0.538,18.909,1.812,37.824,1.961,55.552c-0.033,17.728-0.864,34.279-1.961,48.461c-2.039,28.37-5.683,47.279-5.683,47.279h-1.623
			c0,0-3.643-18.909-5.682-47.279c-1.098-14.182-1.929-30.733-1.961-48.461c0.149-17.727,1.422-36.643,1.961-55.552
			c1.266-37.824,2.292-75.643,3.604-104.013c1.247-28.37,2.078-47.279,2.078-47.279H274.253L274.253,667.948z"/>
	</g>
	<g opacity="0.5">
		<path fill="#FFFFFF" d="M352.176,5.61c0,0,0.831,19.721,2.077,49.305c1.312,29.584,2.338,69.033,3.604,108.48
			c0.539,19.721,1.812,39.448,1.961,57.935c-0.032,18.494-0.863,35.747-1.961,50.539c-2.039,29.584-5.682,49.305-5.682,49.305
			h-1.624c0,0-3.643-19.721-5.682-49.305c-1.098-14.792-1.929-32.052-1.961-50.539c0.149-18.493,1.422-38.214,1.961-57.935
			c1.267-39.448,2.292-78.89,3.604-108.48c1.247-29.584,2.078-49.305,2.078-49.305H352.176z"/>
	</g>
	<g opacity="0.4">
		<path fill="#FFFFFF" d="M261.267,51.065c0,0,0.967,9.169,2.077,22.929c1.234,13.76,2.585,32.097,3.604,50.441
			c0.539,9.169,1.812,18.344,1.961,26.941c-0.032,8.598-0.863,16.624-1.961,23.5c-2.039,13.76-5.682,22.929-5.682,22.929h-1.624
			c0,0-3.643-9.169-5.682-22.929c-1.098-6.876-1.929-14.902-1.961-23.5c0.149-8.597,1.422-17.766,1.961-26.941
			c1.02-18.344,2.37-36.682,3.604-50.441c1.111-13.76,2.078-22.929,2.078-22.929H261.267z"/>
	</g>
	<g opacity="0.4">
		<path fill="#FFFFFF" d="M202.824,823.792c0,0,0.968,9.169,2.078,22.929c1.234,13.76,2.585,32.098,3.604,50.441
			c0.539,9.169,1.812,18.345,1.961,26.941c-0.032,8.598-0.864,16.624-1.961,23.5c-2.039,13.76-5.683,22.929-5.683,22.929h-1.623
			c0,0-3.643-9.169-5.682-22.929c-1.098-6.876-1.929-14.902-1.961-23.5c0.149-8.597,1.422-17.766,1.961-26.941
			c1.02-18.344,2.37-36.682,3.604-50.441c1.11-13.76,2.078-22.929,2.078-22.929H202.824z"/>
	</g>
</g>
</svg>
