<?xml version="1.0" encoding="utf-8"?>
<!-- Generator: Adobe Illustrator 17.1.0, SVG Export Plug-In . SVG Version: 6.00 Build 0)  -->
<!DOCTYPE svg PUBLIC "-//W3C//DTD SVG 1.1//EN" "http://www.w3.org/Graphics/SVG/1.1/DTD/svg11.dtd">
<svg version="1.1" id="Layer_1" xmlns="http://www.w3.org/2000/svg" xmlns:xlink="http://www.w3.org/1999/xlink" x="0px" y="0px"
	 viewBox="0 0 145 100" enable-background="new 0 0 145 100" xml:space="preserve">
<g opacity="0.3">
	<path fill="#C2AF6B" d="M27.683,62.813c0.673,0.684,1.78,0.691,2.464,0.014c0.684-0.669,0.694-1.776,0.021-2.459
		c-0.673-0.687-1.776-0.698-2.464-0.021C27.017,61.019,27.01,62.122,27.683,62.813z"/>
	<path fill="#8C8162" d="M39.021,48.993c0.342,0.349,0.895,0.352,1.234,0.018c0.349-0.342,0.352-0.891,0.014-1.237
		c-0.338-0.342-0.888-0.352-1.234-0.007C38.69,48.102,38.69,48.655,39.021,48.993z"/>
	<path fill="#E5CF9B" d="M8.898,58.563c0.772,0.574,1.871,0.416,2.442-0.356c0.578-0.772,0.423-1.867-0.352-2.445
		c-0.776-0.578-1.868-0.419-2.446,0.356C7.964,56.89,8.122,57.985,8.898,58.563z"/>
	<path fill="#F3DCBB" d="M0.358,58.926c0.38,0.285,0.93,0.204,1.219-0.176c0.289-0.391,0.208-0.941-0.176-1.223
		c-0.388-0.292-0.934-0.215-1.223,0.176C-0.111,58.084-0.037,58.637,0.358,58.926z"/>
	<path fill="#908039" d="M50.122,28.272c0.754,0.839,2.051,0.909,2.89,0.152c0.839-0.758,0.906-2.051,0.148-2.889
		c-0.754-0.839-2.051-0.906-2.89-0.152S49.368,27.434,50.122,28.272z"/>
	<path fill="#E5CF9B" d="M126.124,41.79c0.543,0.599,1.466,0.648,2.065,0.106c0.599-0.536,0.649-1.462,0.106-2.065
		c-0.536-0.599-1.463-0.641-2.058-0.106C125.634,40.268,125.588,41.191,126.124,41.79z"/>
	<path fill="#C1AF6B" d="M29.089,92.551c0.698,0.67,1.812,0.652,2.488-0.046c0.67-0.694,0.652-1.807-0.042-2.481
		c-0.698-0.669-1.812-0.659-2.485,0.039C28.377,90.761,28.391,91.878,29.089,92.551z"/>
	<path fill="#FAF7E3" d="M28.849,95.349c0.469,0.455,1.209,0.441,1.664-0.025c0.448-0.469,0.437-1.209-0.032-1.66
		c-0.462-0.447-1.202-0.437-1.653,0.032C28.377,94.158,28.384,94.898,28.849,95.349z"/>
	<path fill="#2B2700" d="M24.616,87.104c0.582,0.564,1.509,0.55,2.069-0.028c0.564-0.585,0.55-1.512-0.035-2.075
		c-0.578-0.56-1.505-0.546-2.069,0.042C24.021,85.617,24.035,86.544,24.616,87.104z"/>
	<path fill="#C7C1AF" d="M32.684,80.575c0.585,0.56,1.512,0.546,2.076-0.039c0.564-0.585,0.546-1.508-0.035-2.072
		c-0.582-0.564-1.512-0.55-2.072,0.035C32.085,79.077,32.102,80.008,32.684,80.575z"/>
	<path fill="#908039" d="M34.136,87.809c0.567,0.55,1.477,0.535,2.03-0.035c0.55-0.571,0.536-1.48-0.035-2.026
		c-0.571-0.553-1.48-0.539-2.03,0.032C33.551,86.343,33.565,87.256,34.136,87.809z"/>
	<path fill="#FAF7E4" d="M15.083,89.659c0.522,0.391,1.255,0.289,1.65-0.233c0.388-0.518,0.285-1.251-0.236-1.645
		c-0.518-0.388-1.251-0.279-1.642,0.232C14.463,88.534,14.569,89.267,15.083,89.659z"/>
	<path fill="#8F8138" d="M79.805,30.354c0.906,0.68,2.192,0.504,2.876-0.405c0.684-0.909,0.5-2.198-0.409-2.875
		c-0.902-0.684-2.192-0.504-2.876,0.402C78.713,28.385,78.896,29.675,79.805,30.354z"/>
	<path fill="#E4CF9C" d="M18.794,64.884c0.648,0.49,1.568,0.356,2.061-0.292c0.48-0.645,0.353-1.568-0.296-2.054
		c-0.649-0.483-1.568-0.356-2.051,0.289C18.015,63.475,18.149,64.402,18.794,64.884z"/>
	<path fill="#E5CF9B" d="M2.374,92.054c0.807,0.539,1.896,0.314,2.432-0.49c0.536-0.807,0.317-1.899-0.493-2.435
		c-0.804-0.536-1.896-0.314-2.432,0.497C1.345,90.43,1.567,91.519,2.374,92.054z"/>
	<path fill="#C2AF6B" d="M14.815,28.462c0.804,0.529,1.889,0.31,2.425-0.497c0.536-0.803,0.314-1.892-0.49-2.424
		c-0.807-0.539-1.896-0.317-2.428,0.486C13.786,26.835,14.004,27.927,14.815,28.462z"/>
	<path fill="#FAF7E3" d="M15.082,31.246c0.543,0.363,1.269,0.219,1.628-0.324c0.353-0.539,0.208-1.261-0.331-1.621
		c-0.539-0.356-1.262-0.211-1.621,0.328C14.402,30.172,14.547,30.894,15.082,31.246z"/>
	<path fill="#A19A81" d="M1.524,96.829c0.673,0.451,1.583,0.268,2.026-0.402c0.444-0.677,0.261-1.582-0.409-2.03
		c-0.673-0.444-1.579-0.261-2.026,0.412C0.672,95.48,0.858,96.385,1.524,96.829z"/>
	<path fill="#F3DCBB" d="M8.253,88.957c0.677,0.444,1.579,0.261,2.03-0.412c0.444-0.673,0.264-1.582-0.409-2.026
		c-0.677-0.451-1.583-0.268-2.03,0.408C7.396,87.601,7.579,88.506,8.253,88.957z"/>
	<path fill="#908039" d="M10.988,95.793c0.659,0.437,1.551,0.254,1.988-0.402c0.437-0.662,0.254-1.55-0.402-1.984
		c-0.659-0.44-1.551-0.261-1.988,0.402C10.149,94.465,10.332,95.353,10.988,95.793z"/>
	<path fill="#F3DCBB" d="M15.185,85.409c0.405,0.271,0.951,0.162,1.216-0.243c0.271-0.409,0.162-0.951-0.247-1.219
		c-0.398-0.268-0.944-0.159-1.212,0.246C14.674,84.595,14.787,85.145,15.185,85.409z"/>
	<path fill="#F5BB22" d="M37.047,53.405c0.726,0.342,1.593,0.032,1.935-0.698c0.342-0.726,0.032-1.589-0.694-1.931
		c-0.726-0.345-1.593-0.035-1.931,0.694C36.011,52.196,36.321,53.059,37.047,53.405z"/>
	<path fill="#928039" d="M40.72,59.726c0.708,0.338,1.558,0.028,1.893-0.68c0.335-0.708,0.032-1.557-0.68-1.892
		c-0.708-0.335-1.558-0.028-1.893,0.677C39.705,58.542,40.008,59.391,40.72,59.726z"/>
	<path fill="#E6CF9A" d="M36.793,43.761c0.726,0.342,1.593,0.032,1.935-0.694c0.342-0.722,0.032-1.586-0.694-1.927
		c-0.722-0.342-1.59-0.032-1.928,0.691C35.761,42.559,36.071,43.419,36.793,43.761z"/>
	<path fill="#8C8162" d="M78.784,39.487c0.564,0.574,1.484,0.585,2.058,0.025c0.571-0.567,0.582-1.49,0.018-2.061
		c-0.564-0.578-1.484-0.585-2.058-0.021S78.22,38.916,78.784,39.487z"/>
	<path fill="#8C8162" d="M86.255,37.468c0.345,0.342,0.895,0.342,1.237,0.011c0.349-0.345,0.349-0.888,0.011-1.24
		c-0.331-0.335-0.888-0.345-1.234-0.007C85.928,36.566,85.924,37.122,86.255,37.468z"/>
	<path fill="#E5CF9B" d="M81.885,30.34c0.564,0.574,1.487,0.581,2.058,0.018c0.571-0.56,0.578-1.48,0.014-2.054
		c-0.557-0.571-1.48-0.578-2.051-0.014C81.335,28.853,81.328,29.772,81.885,30.34z"/>
	<path fill="#E5CF9B" d="M29.383,56.086c0.772,0.578,1.872,0.416,2.446-0.352c0.578-0.775,0.42-1.868-0.356-2.446
		c-0.768-0.578-1.868-0.423-2.446,0.356C28.449,54.416,28.611,55.512,29.383,56.086z"/>
	<path fill="#C2AF6B" d="M60.122,56.53c0.772,0.574,1.864,0.416,2.442-0.352c0.574-0.772,0.416-1.871-0.352-2.442
		c-0.775-0.574-1.868-0.416-2.446,0.352C59.188,54.856,59.35,55.956,60.122,56.53z"/>
	<path fill="#FAF7E3" d="M21.567,72.674c0.518,0.391,1.248,0.282,1.632-0.233c0.384-0.518,0.278-1.247-0.236-1.628
		c-0.515-0.384-1.241-0.282-1.628,0.233C20.947,71.564,21.052,72.29,21.567,72.674z"/>
	<path fill="#A19A81" d="M55.022,51.731c0.649,0.483,1.558,0.349,2.037-0.292c0.486-0.641,0.352-1.557-0.296-2.037
		c-0.641-0.479-1.551-0.349-2.034,0.296C54.25,50.339,54.38,51.252,55.022,51.731z"/>
	<path fill="#908039" d="M115.487,42.91c0.631,0.472,1.526,0.349,1.995-0.289c0.472-0.627,0.342-1.522-0.289-1.994
		c-0.627-0.472-1.526-0.342-1.995,0.289C114.726,41.547,114.856,42.445,115.487,42.91z"/>
	<path fill="#E5CF9B" d="M63.826,34.744c0.648,0.483,1.558,0.352,2.044-0.292c0.479-0.645,0.345-1.55-0.303-2.037
		c-0.641-0.479-1.551-0.345-2.03,0.296C63.054,33.356,63.184,34.265,63.826,34.744z"/>
	<path fill="#FCCA92" d="M88.444,54.631c0.539,0.599,1.463,0.648,2.065,0.109c0.603-0.543,0.652-1.466,0.109-2.068
		c-0.543-0.595-1.466-0.645-2.069-0.102C87.947,53.112,87.901,54.032,88.444,54.631z"/>
	<path fill="#FCCA92" d="M96.046,52.922c0.324,0.363,0.881,0.391,1.234,0.067c0.367-0.328,0.395-0.881,0.067-1.24
		c-0.321-0.359-0.878-0.391-1.241-0.063C95.75,52.013,95.722,52.57,96.046,52.922z"/>
	<path fill="#E5CF9B" d="M91.958,45.579c0.546,0.595,1.466,0.645,2.069,0.102c0.599-0.536,0.645-1.459,0.102-2.065
		c-0.536-0.599-1.459-0.641-2.058-0.106C91.472,44.053,91.422,44.976,91.958,45.579z"/>
	<path fill="#908039" d="M81.371,66.041c0.571,0.55,1.48,0.535,2.03-0.035c0.55-0.571,0.536-1.476-0.035-2.03
		c-0.564-0.546-1.48-0.532-2.03,0.035C80.785,64.579,80.8,65.492,81.371,66.041z"/>
	<path fill="#FCCA92" d="M126.772,50c0.649,0.493,1.572,0.359,2.058-0.289c0.49-0.648,0.359-1.572-0.289-2.058
		c-0.649-0.49-1.572-0.359-2.058,0.289C125.994,48.594,126.124,49.517,126.772,50z"/>
	<path fill="#E5CF9B" d="M49.608,80.522c0.811,0.536,1.896,0.314,2.432-0.49c0.536-0.814,0.317-1.899-0.49-2.435
		s-1.896-0.314-2.432,0.493C48.583,78.897,48.805,79.986,49.608,80.522z"/>
	<path fill="#F3DCBB" d="M41.069,81.361c0.398,0.268,0.948,0.155,1.212-0.243c0.271-0.409,0.159-0.951-0.243-1.216
		c-0.409-0.271-0.948-0.162-1.219,0.246C40.558,80.547,40.663,81.093,41.069,81.361z"/>
	<path fill="#E6CF9A" d="M33.161,57.291c0.87,0.412,1.914,0.039,2.322-0.831c0.409-0.871,0.035-1.907-0.835-2.319
		c-0.87-0.409-1.907-0.035-2.319,0.831C31.917,55.847,32.294,56.883,33.161,57.291z"/>
	<path fill="#F5BB22" d="M38.494,53.405c0.726,0.342,1.593,0.032,1.931-0.694c0.345-0.726,0.035-1.589-0.691-1.934
		c-0.726-0.342-1.593-0.032-1.935,0.694C37.458,52.196,37.768,53.063,38.494,53.405z"/>
	<path fill="#928039" d="M35.313,2.408c0.705,0.335,1.558,0.032,1.889-0.68c0.338-0.708,0.035-1.554-0.677-1.892
		c-0.712-0.334-1.558-0.032-1.896,0.68C34.295,1.228,34.601,2.074,35.313,2.408z"/>
	<path fill="#F5BB22" d="M18.036,2.028c0.43,0.204,0.952,0.018,1.156-0.412c0.208-0.444,0.021-0.958-0.413-1.163
		c-0.44-0.208-0.955-0.021-1.163,0.416C17.416,1.299,17.599,1.82,18.036,2.028z"/>
	<path fill="#F5BB22" d="M44.795,48.923c0.441,0.208,0.959,0.018,1.163-0.412c0.204-0.437,0.021-0.955-0.419-1.163
		c-0.433-0.201-0.952-0.021-1.16,0.419C44.175,48.201,44.365,48.722,44.795,48.923z"/>
	<path fill="#E6CF9A" d="M5.501,10.352c0.726,0.345,1.59,0.035,1.931-0.694c0.342-0.722,0.032-1.585-0.694-1.924
		C6.015,7.389,5.148,7.702,4.81,8.421C4.464,9.147,4.775,10.018,5.501,10.352z"/>
	<path fill="#918039" d="M81.485,46.7c0.55,0.564,1.452,0.574,2.016,0.021c0.557-0.55,0.564-1.459,0.014-2.015
		c-0.55-0.56-1.452-0.571-2.012-0.017C80.942,45.237,80.935,46.143,81.485,46.7z"/>
	<path fill="#E5CF9B" d="M57.575,47.035c0.775,0.574,1.871,0.416,2.446-0.36c0.578-0.771,0.423-1.871-0.352-2.445
		c-0.775-0.578-1.868-0.419-2.446,0.356C56.645,45.357,56.803,46.453,57.575,47.035z"/>
	<path fill="#C2AF6B" d="M141.793,4.42c0.768,0.574,1.861,0.416,2.443-0.359c0.574-0.768,0.412-1.867-0.356-2.435
		c-0.775-0.581-1.868-0.423-2.442,0.345C140.859,2.743,141.018,3.839,141.793,4.42z"/>
	<path fill="#FAF7E3" d="M54.832,2c0.515,0.391,1.244,0.282,1.628-0.236c0.388-0.514,0.282-1.24-0.236-1.628
		c-0.515-0.384-1.244-0.278-1.625,0.233C54.211,0.89,54.317,1.616,54.832,2z"/>
	<path fill="#908039" d="M110.237,51.742c0.628,0.469,1.53,0.338,1.995-0.292c0.472-0.631,0.342-1.526-0.289-1.998
		c-0.627-0.469-1.526-0.342-1.995,0.289C109.476,50.371,109.606,51.266,110.237,51.742z"/>
	<path fill="#F3DCBB" d="M49.039,47.394c0.381,0.285,0.93,0.204,1.219-0.18c0.289-0.388,0.208-0.937-0.176-1.219
		c-0.388-0.293-0.934-0.215-1.226,0.176C48.57,46.555,48.644,47.101,49.039,47.394z"/>
	<path fill="#FAF7E3" d="M78.206,11.763c0.437,0.483,1.17,0.521,1.656,0.085c0.479-0.43,0.515-1.17,0.085-1.649
		c-0.437-0.479-1.17-0.518-1.649-0.085C77.811,10.544,77.776,11.284,78.206,11.763z"/>
	<path fill="#FCCA92" d="M89.887,54.635c0.543,0.599,1.466,0.648,2.065,0.109c0.603-0.543,0.652-1.47,0.109-2.072
		c-0.539-0.603-1.466-0.648-2.069-0.109C89.394,53.106,89.344,54.029,89.887,54.635z"/>
	<circle fill="#908039" cx="113.441" cy="10.282" r="2.046"/>
	<path fill="#FCCA92" d="M97.486,52.926c0.331,0.359,0.888,0.384,1.241,0.063c0.363-0.328,0.395-0.877,0.063-1.244
		c-0.321-0.352-0.874-0.384-1.237-0.06C97.197,52.006,97.165,52.563,97.486,52.926z"/>
	<path fill="#E5CF9B" d="M93.404,45.572c0.543,0.603,1.466,0.648,2.065,0.109c0.599-0.539,0.648-1.462,0.106-2.061
		c-0.536-0.599-1.463-0.648-2.058-0.109C92.915,44.05,92.869,44.973,93.404,45.572z"/>
	<path fill="#2B2700" d="M66.445,18.254c0.582,0.567,1.508,0.55,2.069-0.032c0.564-0.581,0.55-1.508-0.035-2.075
		c-0.578-0.557-1.505-0.543-2.065,0.042C65.849,16.767,65.863,17.69,66.445,18.254z"/>
	<path fill="#908039" d="M110.51,21.795c0.571,0.553,1.477,0.539,2.03-0.035c0.55-0.567,0.536-1.476-0.035-2.03
		c-0.571-0.55-1.48-0.536-2.03,0.035C109.925,20.333,109.94,21.245,110.51,21.795z"/>
	<path fill="#E4CF9C" d="M50.907,56.446c0.782,0.585,1.886,0.426,2.471-0.352c0.585-0.775,0.43-1.882-0.349-2.467
		c-0.775-0.585-1.882-0.43-2.467,0.353C49.976,54.754,50.131,55.857,50.907,56.446z"/>
	<path fill="#8F8138" d="M124.735,14.174c0.906,0.687,2.196,0.5,2.876-0.398c0.684-0.909,0.501-2.202-0.405-2.886
		c-0.906-0.68-2.196-0.5-2.879,0.412C123.646,12.204,123.826,13.497,124.735,14.174z"/>
	<path fill="#FCCA92" d="M116.312,25.209c0.388,0.289,0.944,0.211,1.234-0.176c0.296-0.391,0.215-0.944-0.173-1.233
		c-0.391-0.296-0.941-0.218-1.237,0.176C115.847,24.36,115.921,24.913,116.312,25.209z"/>
	<path fill="#E5CF9B" d="M44.202,23.204c0.807,0.536,1.896,0.314,2.432-0.49c0.536-0.81,0.317-1.899-0.493-2.435
		c-0.804-0.532-1.896-0.31-2.432,0.493C43.176,21.584,43.395,22.669,44.202,23.204z"/>
	<path fill="#C2AF6B" d="M136.817,42.227c0.804,0.529,1.893,0.31,2.429-0.497c0.532-0.8,0.314-1.892-0.49-2.428
		c-0.811-0.536-1.896-0.314-2.432,0.493C135.788,40.599,136.006,41.695,136.817,42.227z"/>
	<path fill="#A19A81" d="M43.352,27.979c0.673,0.451,1.582,0.268,2.027-0.405c0.444-0.673,0.261-1.582-0.409-2.026
		c-0.673-0.444-1.579-0.261-2.027,0.412C42.503,26.629,42.683,27.538,43.352,27.979z"/>
	<path fill="#908039" d="M98.661,25.91c0.656,0.433,1.547,0.257,1.988-0.405c0.434-0.652,0.254-1.543-0.402-1.98
		c-0.663-0.437-1.551-0.261-1.988,0.405C97.823,24.582,98.002,25.47,98.661,25.91z"/>
	<path fill="#F3DCBB" d="M35.662,24.047c0.398,0.264,0.948,0.155,1.209-0.247c0.275-0.409,0.159-0.951-0.24-1.216
		c-0.409-0.271-0.952-0.155-1.219,0.247C35.144,23.229,35.253,23.775,35.662,24.047z"/>
	<path fill="#703F20" d="M35.637,26.101c0,0.363,0.296,0.659,0.656,0.659c0.367,0,0.663-0.296,0.663-0.659
		c0-0.363-0.296-0.659-0.663-0.659C35.934,25.442,35.637,25.738,35.637,26.101z"/>
	<path fill="#A39384" d="M49.679,2.743c0,0.606,0.493,1.103,1.093,1.103c0.606,0,1.1-0.497,1.1-1.103c0-0.599-0.493-1.092-1.1-1.092
		C50.172,1.651,49.679,2.144,49.679,2.743z"/>
	<path fill="#703F20" d="M51.526,9.706c0,0.359,0.296,0.655,0.656,0.655c0.367,0,0.659-0.296,0.659-0.655
		c0-0.366-0.293-0.662-0.659-0.662C51.822,9.043,51.526,9.339,51.526,9.706z"/>
	<path fill="#703F20" d="M65.045,19.931c0,0.366,0.296,0.655,0.656,0.655c0.367,0,0.659-0.289,0.659-0.655
		c0-0.359-0.293-0.655-0.659-0.655C65.341,19.276,65.045,19.572,65.045,19.931z"/>
	<path fill="#FCC588" d="M85.114,3.955c0,0.726,0.592,1.318,1.318,1.318s1.311-0.592,1.311-1.318s-0.585-1.307-1.311-1.307
		S85.114,3.229,85.114,3.955z"/>
	<path fill="#A39384" d="M40.607,13.92c0,0.606,0.49,1.099,1.093,1.099c0.606,0,1.1-0.493,1.1-1.099c0-0.599-0.493-1.092-1.1-1.092
		C41.097,12.828,40.607,13.321,40.607,13.92z"/>
	<circle fill="#9F795F" cx="98.781" cy="15.139" r="1.071"/>
	<path fill="#FCC588" d="M99.109,9.522c0,0.606,0.49,1.096,1.096,1.096c0.603,0,1.093-0.49,1.093-1.096
		c0-0.599-0.49-1.092-1.093-1.092C99.599,8.43,99.109,8.923,99.109,9.522z"/>
	<path fill="#A39384" d="M54.733,29.684c0,0.606,0.49,1.092,1.093,1.092c0.606,0,1.096-0.486,1.096-1.092s-0.49-1.092-1.096-1.092
		C55.223,28.592,54.733,29.078,54.733,29.684z"/>
	<path fill="#703F20" d="M62.437,30.621c0,0.606,0.49,1.092,1.096,1.092s1.096-0.486,1.096-1.092c0-0.606-0.49-1.099-1.096-1.099
		S62.437,30.015,62.437,30.621z"/>
	<path fill="#703F20" d="M125.22,44.61c0,0.359,0.296,0.655,0.655,0.655c0.367,0,0.659-0.296,0.659-0.655
		c0-0.367-0.293-0.659-0.659-0.659C125.515,43.951,125.22,44.244,125.22,44.61z"/>
	<path fill="#703F20" d="M67.523,33.476c0,0.366,0.296,0.662,0.656,0.662c0.367,0,0.659-0.296,0.659-0.662
		c0-0.359-0.293-0.655-0.659-0.655C67.819,32.82,67.523,33.116,67.523,33.476z"/>
	<path fill="#FCC588" d="M109.622,36.495c0,0.722,0.589,1.311,1.315,1.311c0.726,0,1.315-0.588,1.315-1.311
		c0-0.729-0.589-1.318-1.315-1.318C110.211,35.177,109.622,35.766,109.622,36.495z"/>
	<path fill="#A39384" d="M47.603,38.888c0,0.606,0.49,1.092,1.093,1.092c0.606,0,1.096-0.486,1.096-1.092
		c0-0.606-0.49-1.092-1.096-1.092C48.093,37.795,47.603,38.282,47.603,38.888z"/>
	<path fill="#703F20" d="M60.393,42.679c0,0.366,0.296,0.662,0.656,0.662c0.367,0,0.659-0.296,0.659-0.662
		c0-0.359-0.293-0.655-0.659-0.655C60.689,42.024,60.393,42.32,60.393,42.679z"/>
	<path fill="#C7A588" d="M67.927,72.499c0,0.715,0.589,1.307,1.315,1.307c0.722,0,1.311-0.592,1.311-1.307
		c0-0.729-0.589-1.321-1.311-1.321C68.515,71.178,67.927,71.77,67.927,72.499z"/>
	<circle fill="#703F20" cx="98.764" cy="39.821" r="1.096"/>
	<path fill="#FCC588" d="M119.783,9.103c0,0.606,0.49,1.096,1.096,1.096c0.603,0,1.092-0.49,1.092-1.096
		c0-0.603-0.49-1.092-1.092-1.092C120.273,8.011,119.783,8.501,119.783,9.103z"/>
	<path fill="#A39384" d="M141.385,43.425c0,0.606,0.49,1.099,1.093,1.099c0.606,0,1.096-0.493,1.096-1.099
		c0-0.599-0.49-1.089-1.096-1.089C141.875,42.336,141.385,42.826,141.385,43.425z"/>
	<path fill="#703F20" d="M9.246,7.662c0,0.606,0.494,1.099,1.1,1.099c0.606,0,1.093-0.493,1.093-1.099
		c0-0.606-0.486-1.092-1.093-1.092C9.74,6.57,9.246,7.056,9.246,7.662z"/>
	<path fill="#FCC588" d="M127.407,18.983c-0.747,0.807-0.698,2.061,0.109,2.808c0.807,0.747,2.065,0.701,2.809-0.106
		c0.747-0.81,0.698-2.065-0.106-2.812C129.416,18.127,128.154,18.176,127.407,18.983z"/>
	<path fill="#A39384" d="M106.126,87.661c-0.62,0.677-0.578,1.719,0.088,2.34c0.673,0.623,1.724,0.585,2.344-0.092
		c0.62-0.666,0.578-1.712-0.092-2.336C107.797,86.952,106.747,86.991,106.126,87.661z"/>
	<path fill="#703F20" d="M83.901,78.64c-0.62,0.673-0.582,1.719,0.092,2.34c0.673,0.627,1.72,0.585,2.344-0.088
		c0.624-0.67,0.582-1.72-0.088-2.343C85.572,77.929,84.525,77.971,83.901,78.64z"/>
	<path fill="#703F20" d="M86.611,87.041c-0.377,0.402-0.349,1.032,0.053,1.402c0.405,0.377,1.033,0.352,1.41-0.057
		c0.367-0.394,0.345-1.029-0.06-1.402C87.616,86.614,86.981,86.639,86.611,87.041z"/>
	<path fill="#FCC588" d="M130.487,60.882c-0.818,0.719-0.888,1.963-0.169,2.777c0.719,0.81,1.967,0.888,2.778,0.169
		c0.814-0.719,0.888-1.966,0.169-2.78C132.542,60.233,131.301,60.159,130.487,60.882z"/>
	<path fill="#C7A588" d="M119.089,63.109c-0.807,0.719-0.881,1.959-0.162,2.773c0.719,0.807,1.959,0.884,2.77,0.166
		c0.814-0.719,0.888-1.963,0.173-2.773C121.147,62.46,119.907,62.39,119.089,63.109z"/>
	<path fill="#703F20" d="M132.151,68.144c-0.677,0.603-0.74,1.638-0.141,2.315c0.603,0.684,1.639,0.743,2.319,0.141
		c0.677-0.595,0.74-1.631,0.141-2.315C133.863,67.608,132.831,67.545,132.151,68.144z"/>
	<path fill="#9F795F" d="M123.953,69.141c-0.663,0.585-0.726,1.6-0.138,2.269c0.589,0.659,1.603,0.719,2.266,0.134
		c0.663-0.588,0.726-1.603,0.138-2.269C125.63,68.616,124.615,68.552,123.953,69.141z"/>
	<path fill="#703F20" d="M132.034,51.379c-0.405,0.356-0.441,0.983-0.081,1.385c0.36,0.412,0.983,0.444,1.389,0.088
		c0.409-0.359,0.444-0.983,0.081-1.392C133.067,51.058,132.447,51.016,132.034,51.379z"/>
	<path fill="#703F20" d="M133.998,76.681c-0.409,0.363-0.444,0.986-0.085,1.388c0.359,0.408,0.98,0.447,1.389,0.084
		c0.405-0.359,0.444-0.98,0.084-1.388C135.027,76.361,134.399,76.326,133.998,76.681z"/>
	<path fill="#FCC588" d="M142.28,72.175c-0.684,0.599-0.744,1.631-0.141,2.315c0.599,0.673,1.635,0.736,2.312,0.134
		c0.677-0.596,0.74-1.635,0.141-2.304C143.989,71.636,142.953,71.572,142.28,72.175z"/>
	<path fill="#C7A588" d="M77.719,62.492c-0.779,0.751-0.804,1.991-0.053,2.77c0.747,0.779,1.991,0.8,2.767,0.053
		c0.782-0.747,0.803-1.991,0.056-2.77C79.742,61.766,78.498,61.742,77.719,62.492z"/>
	<path fill="#FFFACB" d="M95.884,59.469c-0.525,0.504-0.543,1.328-0.042,1.85s1.329,0.536,1.854,0.035
		c0.518-0.497,0.532-1.325,0.035-1.846C97.223,58.99,96.399,58.972,95.884,59.469z"/>
	<path fill="#A39384" d="M101.122,45.811c-0.652,0.627-0.673,1.66-0.049,2.308c0.627,0.655,1.66,0.673,2.312,0.046
		c0.649-0.624,0.67-1.656,0.043-2.308C102.806,45.209,101.77,45.188,101.122,45.811z"/>
	<path fill="#703F20" d="M112.202,64.338c-0.655,0.624-0.67,1.66-0.049,2.315c0.627,0.648,1.664,0.669,2.316,0.042
		c0.652-0.627,0.673-1.663,0.046-2.311C113.887,63.729,112.851,63.715,112.202,64.338z"/>
	<path fill="#9F795F" d="M104.075,65.663c-0.634,0.61-0.655,1.628-0.042,2.259c0.61,0.645,1.628,0.662,2.263,0.046
		c0.638-0.61,0.655-1.624,0.046-2.259C105.725,65.068,104.709,65.047,104.075,65.663z"/>
	<path fill="#703F20" d="M114.388,72.766c-0.395,0.377-0.402,0.997-0.032,1.388c0.377,0.391,0.997,0.402,1.392,0.021
		c0.388-0.37,0.402-0.99,0.021-1.385C115.396,72.404,114.775,72.39,114.388,72.766z"/>
	<path fill="#FCC588" d="M122.451,67.936c-0.655,0.631-0.677,1.663-0.049,2.315c0.627,0.648,1.656,0.666,2.312,0.042
		c0.649-0.624,0.669-1.66,0.042-2.308C124.129,67.337,123.1,67.316,122.451,67.936z"/>
	<path fill="#FFFACB" d="M120.062,85.092c-0.55,0.48-0.606,1.314-0.12,1.864c0.479,0.55,1.311,0.606,1.861,0.12
		c0.55-0.48,0.606-1.311,0.127-1.861C121.443,84.666,120.612,84.613,120.062,85.092z"/>
	<path fill="#9F795F" d="M141.776,51.811c-0.673,0.585-0.743,1.614-0.152,2.283c0.585,0.677,1.614,0.74,2.284,0.155
		c0.673-0.592,0.74-1.614,0.155-2.287C143.475,51.289,142.449,51.226,141.776,51.811z"/>
	<path fill="#703F20" d="M136.313,73.876c-0.409,0.36-0.451,0.987-0.095,1.396c0.367,0.416,0.994,0.454,1.403,0.099
		c0.416-0.367,0.458-0.986,0.092-1.402C137.356,73.56,136.729,73.51,136.313,73.876z"/>
	<path fill="#703F20" d="M138.135,90.193c-0.416,0.363-0.454,0.99-0.099,1.395c0.367,0.419,0.987,0.458,1.403,0.102
		c0.409-0.363,0.458-0.99,0.092-1.406C139.171,89.876,138.544,89.837,138.135,90.193z"/>
	<circle fill="#FCC588" cx="131.653" cy="27.627" r="2.005"/>
	<path fill="#A39384" d="M117.323,96.804c-0.68,0.627-0.723,1.681-0.102,2.358c0.627,0.677,1.678,0.722,2.361,0.099
		c0.677-0.62,0.719-1.677,0.092-2.354C119.054,96.226,118,96.181,117.323,96.804z"/>
	<path fill="#9F795F" d="M87.045,15.396c-0.666,0.61-0.708,1.645-0.099,2.308c0.61,0.669,1.646,0.712,2.312,0.099
		c0.663-0.61,0.708-1.645,0.099-2.311C88.744,14.829,87.707,14.787,87.045,15.396z"/>
	<path fill="#FFFACB" d="M93.417,30.667c-0.536,0.511-0.55,1.35-0.042,1.878c0.507,0.532,1.35,0.55,1.882,0.035
		c0.529-0.507,0.543-1.346,0.035-1.875C94.785,30.174,93.942,30.156,93.417,30.667z"/>
	<path fill="#703F20" d="M111.899,87.188c-0.663,0.641-0.684,1.691-0.049,2.357c0.638,0.659,1.692,0.68,2.355,0.042
		c0.663-0.638,0.684-1.688,0.046-2.35C113.612,86.575,112.562,86.554,111.899,87.188z"/>
	<path fill="#9F795F" d="M103.638,88.534c-0.648,0.62-0.669,1.653-0.049,2.304c0.624,0.642,1.657,0.662,2.305,0.042
		c0.649-0.617,0.67-1.656,0.043-2.304C105.316,87.932,104.286,87.911,103.638,88.534z"/>
	<path fill="#703F20" d="M111.096,70.219c-0.395,0.381-0.409,1.015-0.029,1.409c0.384,0.405,1.015,0.409,1.41,0.028
		c0.402-0.381,0.412-1.011,0.028-1.409C112.125,69.853,111.498,69.835,111.096,70.219z"/>
	<path fill="#C7A588" d="M19.362,95.314c-0.782,0.782-0.779,2.058,0.01,2.843c0.786,0.779,2.058,0.779,2.837-0.007
		c0.786-0.789,0.782-2.058,0-2.84C21.42,94.528,20.144,94.528,19.362,95.314z"/>
	<path fill="#FFFACB" d="M92.063,29.308c-0.522,0.529-0.522,1.374,0.007,1.896c0.525,0.521,1.371,0.521,1.896-0.007
		c0.522-0.521,0.522-1.37-0.003-1.888C93.434,28.783,92.588,28.783,92.063,29.308z"/>
	<path fill="#703F20" d="M99.817,89.722c-0.388,0.391-0.388,1.036,0,1.42c0.402,0.395,1.036,0.388,1.424,0
		c0.398-0.398,0.395-1.032,0-1.431C100.847,89.324,100.212,89.324,99.817,89.722z"/>
	<path fill="#F5BB22" d="M1.116,32.552c-0.455,0.398-0.504,1.092-0.109,1.547c0.398,0.458,1.089,0.511,1.548,0.113
		c0.454-0.398,0.504-1.085,0.109-1.547C2.265,32.207,1.574,32.158,1.116,32.552z"/>
	<path fill="#F5BB22" d="M1.158,21.355c-0.271,0.243-0.3,0.655-0.067,0.93c0.24,0.275,0.655,0.303,0.927,0.063
		c0.279-0.24,0.307-0.652,0.067-0.93C1.849,21.15,1.436,21.115,1.158,21.355z"/>
	<path fill="#F5BB22" d="M2.289,38.268c-0.275,0.24-0.303,0.655-0.07,0.927c0.243,0.278,0.655,0.307,0.93,0.067
		c0.275-0.236,0.303-0.652,0.064-0.93C2.98,38.063,2.561,38.031,2.289,38.268z"/>
	<path fill="#918039" d="M102.567,17.243c-0.469,0.363-0.557,1.036-0.197,1.505c0.363,0.472,1.036,0.557,1.509,0.201
		c0.468-0.363,0.557-1.036,0.197-1.512C103.715,16.971,103.039,16.88,102.567,17.243z"/>
	<path fill="#E5CF9B" d="M38.401,24.744c-0.479,0.37-0.571,1.057-0.201,1.536c0.37,0.479,1.054,0.571,1.533,0.197
		c0.479-0.366,0.571-1.046,0.204-1.526C39.567,24.473,38.88,24.378,38.401,24.744z"/>
	<path fill="#F3DCBB" d="M19.978,12.412c-0.279,0.226-0.321,0.641-0.095,0.923c0.233,0.282,0.645,0.324,0.924,0.099
		c0.285-0.233,0.328-0.645,0.095-0.93C20.676,12.225,20.264,12.179,19.978,12.412z"/>
	<path fill="#FCCA92" d="M20.167,45.776c-0.486,0.363-0.585,1.05-0.218,1.536c0.359,0.486,1.047,0.578,1.533,0.218
		c0.483-0.366,0.581-1.05,0.218-1.536C21.337,45.509,20.65,45.41,20.167,45.776z"/>
	<path fill="#FCCA92" d="M37.805,24.131c-0.285,0.218-0.345,0.631-0.13,0.92c0.219,0.292,0.634,0.349,0.923,0.13
		c0.289-0.218,0.349-0.627,0.127-0.916C38.51,23.976,38.098,23.913,37.805,24.131z"/>
	<path fill="#FCCA92" d="M37.742,41.079c-0.293,0.222-0.349,0.634-0.134,0.923c0.222,0.289,0.631,0.349,0.923,0.127
		c0.289-0.211,0.349-0.627,0.13-0.916C38.443,40.924,38.027,40.868,37.742,41.079z"/>
	<path fill="#C7C1AF" d="M129.458,0.21c-0.289,0.218-0.345,0.634-0.127,0.919c0.226,0.289,0.634,0.345,0.923,0.13
		c0.293-0.226,0.345-0.638,0.123-0.927C130.163,0.044,129.747-0.012,129.458,0.21z"/>
	<path fill="#C7C1AF" d="M31.637,52.693c-0.293,0.218-0.345,0.634-0.13,0.916c0.226,0.296,0.634,0.349,0.93,0.127
		c0.282-0.218,0.338-0.624,0.12-0.923C32.339,52.531,31.923,52.475,31.637,52.693z"/>
	<path fill="#C0AF6A" d="M134.406,18.085c-0.557,0.458-0.645,1.283-0.187,1.846c0.455,0.567,1.283,0.648,1.843,0.194
		c0.564-0.458,0.652-1.286,0.197-1.846C135.802,17.718,134.97,17.627,134.406,18.085z"/>
	<path fill="#FCCA92" d="M21.924,37.792c-0.468,0.381-0.539,1.068-0.158,1.54c0.381,0.472,1.072,0.543,1.54,0.162
		c0.472-0.381,0.546-1.068,0.158-1.543C23.083,37.482,22.396,37.408,21.924,37.792z"/>
	<path fill="#C2AF6B" d="M5.997,46.71c-0.56,0.458-0.642,1.286-0.183,1.846c0.458,0.567,1.283,0.645,1.847,0.19
		c0.564-0.462,0.641-1.286,0.187-1.85C7.389,46.336,6.561,46.252,5.997,46.71z"/>
	<path fill="#FAF7E3" d="M3.939,46.287c-0.374,0.314-0.43,0.86-0.123,1.237c0.306,0.373,0.856,0.426,1.234,0.123
		c0.374-0.31,0.43-0.856,0.123-1.233C4.866,46.04,4.312,45.984,3.939,46.287z"/>
	<path fill="#A19A81" d="M10.431,43.863c-0.472,0.384-0.543,1.075-0.159,1.54c0.384,0.469,1.072,0.543,1.54,0.159
		c0.472-0.384,0.539-1.068,0.155-1.543C11.587,43.553,10.896,43.482,10.431,43.863z"/>
	<path fill="#908039" d="M107.043,33.835c-0.458,0.377-0.525,1.05-0.152,1.508c0.377,0.458,1.054,0.529,1.512,0.155
		c0.458-0.377,0.528-1.054,0.152-1.512C108.178,33.525,107.501,33.461,107.043,33.835z"/>
	<path fill="#F3DCBB" d="M14.949,39.233c-0.282,0.226-0.32,0.641-0.092,0.92c0.229,0.285,0.645,0.321,0.924,0.095
		c0.282-0.233,0.324-0.641,0.092-0.927C15.647,39.043,15.231,39,14.949,39.233z"/>
	<path fill="#E6CF9A" d="M43.324,66.981c-0.546,0.476-0.606,1.307-0.13,1.857c0.476,0.546,1.304,0.606,1.854,0.13
		c0.55-0.476,0.606-1.307,0.134-1.857C44.702,66.565,43.874,66.509,43.324,66.981z"/>
	<path fill="#F5BB22" d="M44.427,60.649c-0.268,0.233-0.303,0.655-0.067,0.927c0.243,0.271,0.656,0.303,0.927,0.067
		c0.278-0.24,0.307-0.655,0.07-0.93C45.118,60.438,44.702,60.41,44.427,60.649z"/>
	<path fill="#F5BB22" d="M45.559,77.559c-0.275,0.24-0.303,0.655-0.067,0.927c0.24,0.275,0.652,0.307,0.93,0.067
		c0.268-0.236,0.303-0.652,0.063-0.927C46.246,77.351,45.83,77.322,45.559,77.559z"/>
	<circle fill="#E6CF9A" cx="51.838" cy="75.434" r="1.095"/>
	<path fill="#C2AF6B" d="M41.559,56.921c-0.571,0.444-0.677,1.268-0.236,1.843c0.441,0.574,1.265,0.68,1.836,0.24
		c0.578-0.44,0.684-1.269,0.247-1.843C42.961,56.59,42.137,56.481,41.559,56.921z"/>
	<path fill="#FAF7E3" d="M90.153,83.415c-0.384,0.293-0.458,0.842-0.162,1.223c0.296,0.391,0.846,0.458,1.234,0.162
		c0.381-0.296,0.451-0.846,0.155-1.226C91.084,83.186,90.538,83.115,90.153,83.415z"/>
	<path fill="#8C8162" d="M75.943,56.426c-0.289,0.222-0.338,0.638-0.12,0.92c0.222,0.292,0.634,0.345,0.923,0.12
		c0.286-0.215,0.342-0.627,0.12-0.916C76.648,56.26,76.232,56.207,75.943,56.426z"/>
	<path fill="#C2AF6B" d="M15.607,72.523c-0.56,0.455-0.645,1.279-0.187,1.843c0.458,0.567,1.283,0.648,1.847,0.19
		c0.56-0.455,0.649-1.283,0.19-1.843C16.999,72.146,16.171,72.061,15.607,72.523z"/>
	<path fill="#FAF7E3" d="M52.223,58.736c-0.377,0.307-0.434,0.86-0.127,1.237c0.303,0.374,0.856,0.43,1.234,0.12
		c0.374-0.303,0.43-0.849,0.127-1.226C53.147,58.486,52.597,58.429,52.223,58.736z"/>
	<path fill="#A19A81" d="M58.715,56.326c-0.469,0.384-0.539,1.071-0.159,1.54c0.384,0.472,1.071,0.543,1.54,0.159
		c0.469-0.381,0.539-1.068,0.155-1.54C59.875,56.019,59.184,55.945,58.715,56.326z"/>
	<path fill="#908039" d="M44.575,36.83c-0.462,0.373-0.529,1.054-0.159,1.508c0.377,0.458,1.054,0.529,1.512,0.155
		c0.458-0.37,0.529-1.05,0.155-1.505C45.71,36.527,45.034,36.456,44.575,36.83z"/>
	<path fill="#F3DCBB" d="M85.491,22.369c-0.278,0.226-0.321,0.641-0.095,0.92c0.233,0.289,0.645,0.324,0.923,0.099
		c0.285-0.233,0.328-0.641,0.099-0.927C86.188,22.179,85.776,22.14,85.491,22.369z"/>
	<path fill="#E5CF9B" d="M69.497,55.633c-0.472,0.388-0.543,1.075-0.159,1.543c0.381,0.469,1.068,0.539,1.537,0.155
		c0.469-0.381,0.539-1.068,0.162-1.533C70.649,55.326,69.962,55.256,69.497,55.633z"/>
	<path fill="#FCCA92" d="M109.277,70.149c-0.328-0.511-1.008-0.662-1.515-0.335c-0.511,0.324-0.659,1.004-0.335,1.512
		c0.328,0.514,1.004,0.659,1.515,0.335C109.453,71.333,109.601,70.66,109.277,70.149z"/>
	<path fill="#908039" d="M74.456,64.213c-0.677,0.504-0.814,1.469-0.307,2.142c0.511,0.677,1.47,0.814,2.146,0.307
		c0.677-0.504,0.814-1.473,0.307-2.146C76.094,63.836,75.132,63.702,74.456,64.213z"/>
	<path fill="#FCCA92" d="M81.011,80.374c-0.293,0.219-0.349,0.631-0.134,0.916c0.219,0.296,0.627,0.353,0.923,0.134
		c0.289-0.218,0.349-0.627,0.127-0.923C81.712,80.215,81.3,80.159,81.011,80.374z"/>
	<path fill="#E5CF9B" d="M86.766,77.819c-0.483,0.363-0.582,1.05-0.219,1.533c0.363,0.483,1.047,0.582,1.533,0.219
		c0.479-0.363,0.578-1.05,0.219-1.529C87.933,77.555,87.249,77.456,86.766,77.819z"/>
	<path fill="#C7C1AF" d="M74.1,86.205c-0.483,0.367-0.574,1.054-0.208,1.533c0.367,0.486,1.054,0.578,1.537,0.211
		c0.483-0.366,0.574-1.054,0.208-1.533C75.27,85.931,74.582,85.835,74.1,86.205z"/>
	<path fill="#908039" d="M68.591,86.466c-0.472,0.353-0.564,1.025-0.204,1.497c0.359,0.472,1.036,0.564,1.501,0.205
		c0.472-0.359,0.564-1.032,0.204-1.505C69.733,86.195,69.06,86.103,68.591,86.466z"/>
	<path fill="#C7C1AF" d="M74.907,91.98c-0.293,0.226-0.345,0.634-0.127,0.923s0.631,0.345,0.923,0.123
		c0.285-0.215,0.345-0.631,0.12-0.92C75.608,91.818,75.192,91.766,74.907,91.98z"/>
	<path fill="#FFF698" d="M80.645,89.391c-0.483,0.366-0.574,1.053-0.208,1.533c0.363,0.482,1.054,0.574,1.533,0.208
		c0.479-0.363,0.571-1.054,0.208-1.533C81.811,89.12,81.124,89.028,80.645,89.391z"/>
	<path fill="#FAF7E4" d="M54.571,72.911c-0.377,0.31-0.437,0.86-0.127,1.236c0.303,0.374,0.853,0.434,1.23,0.123
		c0.377-0.303,0.433-0.849,0.13-1.226C55.494,72.664,54.944,72.608,54.571,72.911z"/>
	<path fill="#FCCA92" d="M65.602,55.661c-0.278,0.226-0.321,0.641-0.092,0.923c0.229,0.282,0.641,0.324,0.92,0.099
		c0.285-0.229,0.328-0.641,0.095-0.93C66.3,55.478,65.888,55.432,65.602,55.661z"/>
	<path fill="#F3DCBB" d="M58.849,95.458c-0.282,0.232-0.321,0.645-0.092,0.927c0.233,0.282,0.641,0.324,0.923,0.092
		c0.282-0.226,0.324-0.641,0.092-0.923C59.547,95.271,59.131,95.229,58.849,95.458z"/>
	<path fill="#E5CF9B" d="M64.496,92.671c-0.465,0.388-0.536,1.075-0.155,1.544c0.381,0.465,1.071,0.535,1.544,0.152
		c0.465-0.381,0.536-1.068,0.155-1.54C65.652,92.361,64.964,92.291,64.496,92.671z"/>
</g>
</svg>
