<svg xmlns="http://www.w3.org/2000/svg" viewBox="0 0 267 267" preserveAspectRatio="xMidYMid meet"><path fill="#fff" d="M248.082 4.588h-229.27c-7.857 0-14.224 6.367-14.224 14.224v229.27c0 7.855 6.366 14.225 14.224 14.225h229.27c7.854 0 14.223-6.369 14.223-14.225v-229.27c0-7.857-6.368-14.224-14.223-14.224zm-25.802 75.245l-20.596.009c-16.148 0-19.275 7.674-19.275 18.935v24.832h38.515l-5.016 38.895h-33.499v99.803h-40.166v-99.803h-33.585v-38.895h33.585v-28.684c0-33.287 20.33-51.413 50.025-51.413 14.224 0 26.45 1.059 30.012 1.533v34.788z"/></svg>