<?xml version="1.0" encoding="utf-8"?>
<!-- Generator: Adobe Illustrator 17.1.0, SVG Export Plug-In . SVG Version: 6.00 Build 0)  -->
<!DOCTYPE svg PUBLIC "-//W3C//DTD SVG 1.1//EN" "http://www.w3.org/Graphics/SVG/1.1/DTD/svg11.dtd">
<svg version="1.1" id="Layer_1" xmlns="http://www.w3.org/2000/svg" xmlns:xlink="http://www.w3.org/1999/xlink" x="0px" y="0px"
	 viewBox="0 0 60 154" enable-background="new 0 0 60 154" xml:space="preserve">
<g id="rain">
	<g opacity="0.5">
		<path fill="#FFFFFF" d="M23.125,50.823c0,0,0.128,2.412,0.32,6.031c0.202,3.619,0.36,8.443,0.555,13.268
			c0.083,2.412,0.279,4.825,0.302,7.086C24.297,79.47,24.169,81.581,24,83.39c-0.314,3.619-0.875,6.031-0.875,6.031h-0.25
			c0,0-0.561-2.412-0.875-6.031c-0.169-1.809-0.297-3.92-0.302-6.182c0.023-2.262,0.219-4.674,0.302-7.086
			c0.195-4.825,0.353-9.649,0.555-13.268c0.192-3.619,0.32-6.031,0.32-6.031H23.125z"/>
	</g>
	<g opacity="0.5">
		<path fill="#FFFFFF" d="M53.125,91.823c0,0,0.128,2.225,0.32,5.562c0.202,3.337,0.36,7.787,0.555,12.237
			c0.083,2.225,0.279,4.45,0.302,6.536c-0.005,2.086-0.133,4.033-0.302,5.701c-0.314,3.337-0.875,5.562-0.875,5.562h-0.25
			c0,0-0.561-2.225-0.875-5.562c-0.169-1.669-0.297-3.615-0.302-5.701c0.023-2.086,0.219-4.311,0.302-6.536
			c0.195-4.45,0.353-8.899,0.555-12.237c0.192-3.337,0.32-5.562,0.32-5.562H53.125z"/>
	</g>
	<g opacity="0.5">
		<path fill="#FFFFFF" d="M37.125,40.823c0,0,0.128,2.162,0.32,5.406c0.202,3.244,0.36,7.568,0.555,11.893
			c0.083,2.162,0.279,4.325,0.302,6.352c-0.005,2.027-0.133,3.919-0.302,5.541c-0.314,3.244-0.875,5.406-0.875,5.406h-0.25
			c0,0-0.561-2.162-0.875-5.406c-0.169-1.622-0.297-3.514-0.302-5.541c0.023-2.027,0.219-4.19,0.302-6.352
			c0.195-4.325,0.353-8.649,0.555-11.893c0.192-3.244,0.32-5.406,0.32-5.406H37.125z"/>
	</g>
	<g opacity="0.5">
		<path fill="#FFFFFF" d="M31.1,76.823c0,0,0.102,2.1,0.256,5.25c0.162,3.15,0.288,7.35,0.444,11.549
			c0.067,2.1,0.223,4.2,0.242,6.168c-0.004,1.969-0.107,3.806-0.242,5.381c-0.251,3.15-0.7,5.25-0.7,5.25h-0.2
			c0,0-0.449-2.1-0.7-5.25c-0.135-1.575-0.238-3.412-0.242-5.381c0.019-1.969,0.175-4.069,0.242-6.168
			c0.156-4.2,0.282-8.399,0.444-11.549c0.154-3.15,0.256-5.25,0.256-5.25H31.1z"/>
	</g>
	<g opacity="0.5">
		<path fill="#FFFFFF" d="M11.1,119.823c0,0,0.102,2.1,0.256,5.25c0.162,3.15,0.288,7.35,0.444,11.549
			c0.067,2.1,0.223,4.2,0.242,6.168c-0.004,1.969-0.107,3.806-0.242,5.381c-0.251,3.15-0.7,5.25-0.7,5.25h-0.2
			c0,0-0.449-2.1-0.7-5.25c-0.135-1.575-0.238-3.412-0.242-5.381c0.019-1.969,0.175-4.069,0.242-6.168
			c0.156-4.2,0.282-8.399,0.444-11.549c0.154-3.15,0.256-5.25,0.256-5.25H11.1z"/>
	</g>
	<g opacity="0.35">
		<path fill="#FFFFFF" d="M45.1,50.823c0,0,0.1,3.037,0.25,7.593c0.171,4.556,0.293,10.631,0.45,16.706
			c0.073,3.037,0.213,6.075,0.242,8.922c-0.004,2.848-0.107,5.505-0.242,7.783c-0.256,4.556-0.7,7.593-0.7,7.593h-0.2
			c0,0-0.444-3.037-0.7-7.593c-0.135-2.278-0.238-4.936-0.242-7.783c0.029-2.848,0.169-5.885,0.242-8.922
			c0.157-6.075,0.279-12.149,0.45-16.706c0.15-4.556,0.25-7.593,0.25-7.593H45.1z"/>
	</g>
	<g opacity="0.35">
		<path fill="#FFFFFF" d="M17.1,4.5c0,0,0.1,2.412,0.25,6.031c0.171,3.619,0.293,8.443,0.45,13.268
			c0.073,2.412,0.213,4.825,0.242,7.086c-0.004,2.262-0.107,4.372-0.242,6.182c-0.256,3.619-0.7,6.031-0.7,6.031h-0.2
			c0,0-0.444-2.412-0.7-6.031c-0.135-1.809-0.238-3.92-0.242-6.182c0.029-2.262,0.169-4.674,0.242-7.086
			c0.157-4.825,0.279-9.649,0.45-13.268C16.8,6.912,16.9,4.5,16.9,4.5H17.1z"/>
	</g>
	<g opacity="0.35">
		<path fill="#FFFFFF" d="M1.1,42.823c0,0,0.1,2.287,0.25,5.718c0.171,3.431,0.293,8.006,0.45,12.581
			c0.073,2.287,0.213,4.575,0.242,6.719c-0.004,2.144-0.107,4.146-0.242,5.861c-0.256,3.431-0.7,5.718-0.7,5.718H0.9
			c0,0-0.444-2.287-0.7-5.718c-0.135-1.716-0.238-3.717-0.242-5.861c0.029-2.144,0.169-4.432,0.242-6.719
			c0.157-4.575,0.279-9.149,0.45-12.581C0.8,45.11,0.9,42.823,0.9,42.823H1.1z"/>
	</g>
	<g opacity="0.5">
		<path fill="#FFFFFF" d="M4.1,90.823c0,0,0.1,2.412,0.25,6.031c0.171,3.619,0.293,8.443,0.45,13.268
			c0.073,2.412,0.213,4.825,0.242,7.086c-0.004,2.262-0.107,4.372-0.242,6.182c-0.256,3.619-0.7,6.031-0.7,6.031H3.9
			c0,0-0.444-2.412-0.7-6.031c-0.135-1.809-0.238-3.92-0.242-6.182c0.029-2.262,0.169-4.674,0.242-7.086
			c0.157-4.825,0.279-9.649,0.45-13.268c0.15-3.619,0.25-6.031,0.25-6.031H4.1z"/>
	</g>
	<g opacity="0.5">
		<path fill="#FFFFFF" d="M21.125,94.823c0,0,0.128,3.037,0.32,7.593c0.202,4.556,0.36,10.631,0.555,16.706
			c0.083,3.037,0.279,6.075,0.302,8.922c-0.005,2.848-0.133,5.505-0.302,7.783c-0.314,4.556-0.875,7.593-0.875,7.593h-0.25
			c0,0-0.561-3.037-0.875-7.593c-0.169-2.278-0.297-4.936-0.302-7.783c0.023-2.848,0.219-5.885,0.302-8.922
			c0.195-6.075,0.353-12.149,0.555-16.706c0.192-4.556,0.32-7.593,0.32-7.593H21.125z"/>
	</g>
	<g opacity="0.5">
		<path fill="#FFFFFF" d="M9.125,14.823c0,0,0.128,3.037,0.32,7.593C9.647,26.973,9.805,33.047,10,39.122
			c0.083,3.037,0.279,6.075,0.302,8.922c-0.005,2.848-0.133,5.505-0.302,7.783c-0.314,4.556-0.875,7.593-0.875,7.593h-0.25
			c0,0-0.561-3.037-0.875-7.593c-0.169-2.278-0.297-4.936-0.302-7.783C7.721,45.197,7.917,42.159,8,39.122
			c0.195-6.075,0.353-12.149,0.555-16.706c0.192-4.556,0.32-7.593,0.32-7.593H9.125z"/>
	</g>
	<g opacity="0.25">
		<path fill="#FFFFFF" d="M29.075,23.823c0,0,0.075,2.225,0.188,5.562c0.129,3.337,0.22,7.787,0.337,12.237
			c0.067,2.225,0.156,4.45,0.181,6.536c-0.021,1.043-0.011,2.051-0.056,3.007c-0.031,0.956-0.074,1.86-0.125,2.694
			c-0.043,0.834-0.122,1.599-0.171,2.277c-0.049,0.678-0.104,1.269-0.165,1.756c-0.102,0.973-0.189,1.53-0.189,1.53h-0.15
			c0,0-0.086-0.556-0.189-1.53c-0.061-0.487-0.116-1.078-0.165-1.756c-0.049-0.678-0.128-1.443-0.171-2.277
			c-0.052-0.834-0.094-1.738-0.125-2.694c-0.045-0.956-0.035-1.964-0.056-3.007c0.025-2.086,0.114-4.311,0.181-6.536
			c0.118-4.45,0.209-8.899,0.337-12.237c0.113-3.337,0.188-5.562,0.188-5.562H29.075z"/>
	</g>
	<g opacity="0.25">
		<path fill="#FFFFFF" d="M14.075,65.823c0,0,0.075,2.225,0.188,5.562c0.129,3.337,0.22,7.787,0.337,12.237
			c0.067,2.225,0.156,4.45,0.181,6.536c-0.021,1.043-0.011,2.051-0.056,3.007c-0.031,0.956-0.074,1.86-0.125,2.694
			c-0.043,0.834-0.122,1.599-0.171,2.277c-0.049,0.678-0.104,1.269-0.165,1.756c-0.102,0.973-0.189,1.53-0.189,1.53h-0.15
			c0,0-0.086-0.556-0.189-1.53c-0.061-0.487-0.116-1.078-0.165-1.756c-0.049-0.678-0.128-1.443-0.171-2.277
			c-0.052-0.834-0.094-1.738-0.125-2.694c-0.045-0.956-0.035-1.964-0.056-3.007c0.025-2.086,0.114-4.311,0.181-6.536
			c0.118-4.45,0.209-8.899,0.337-12.237c0.113-3.337,0.188-5.562,0.188-5.562H14.075z"/>
	</g>
	<g opacity="0.25">
		<path fill="#FFFFFF" d="M58.525,40.865c0,0,0.141,2.907,0.351,7.266c0.221,4.36,0.404,10.173,0.624,15.987
			c0.096,2.907,0.304,5.813,0.339,8.538c0.007,2.725-0.111,5.27-0.27,7.451c-0.295,4.362-0.844,7.272-0.844,7.272l-0.25,0.001
			c0,0-0.574-2.905-0.906-7.264c-0.178-2.18-0.318-4.723-0.334-7.448c0.012-2.726,0.195-5.633,0.265-8.541
			c0.17-5.815,0.303-11.63,0.486-15.991c0.173-4.361,0.289-7.269,0.289-7.269L58.525,40.865z"/>
	</g>
	<g opacity="0.25">
		<path fill="#FFFFFF" d="M39.125,101.823c0,0,0.128,2.912,0.32,7.281c0.202,4.369,0.36,10.193,0.555,16.018
			c0.083,2.912,0.279,5.825,0.302,8.555c-0.005,2.73-0.133,5.279-0.302,7.463c-0.314,4.369-0.875,7.281-0.875,7.281h-0.25
			c0,0-0.561-2.912-0.875-7.281c-0.169-2.184-0.297-4.733-0.302-7.463c0.023-2.73,0.219-5.643,0.302-8.555
			c0.195-5.825,0.353-11.649,0.555-16.018c0.192-4.369,0.32-7.281,0.32-7.281H39.125z"/>
	</g>
	<g opacity="0.5">
		<path fill="#FFFFFF" d="M51.125-0.177c0,0,0.128,3.037,0.32,7.593c0.202,4.556,0.36,10.631,0.555,16.706
			c0.083,3.037,0.279,6.075,0.302,8.922c-0.005,2.848-0.133,5.505-0.302,7.783c-0.314,4.556-0.875,7.593-0.875,7.593h-0.25
			c0,0-0.561-3.037-0.875-7.593c-0.169-2.278-0.297-4.936-0.302-7.783c0.023-2.848,0.219-5.885,0.302-8.922
			c0.195-6.075,0.353-12.149,0.555-16.706c0.192-4.556,0.32-7.593,0.32-7.593H51.125z"/>
	</g>
	<g opacity="0.4">
		<path fill="#FFFFFF" d="M37.125,6.823c0,0,0.149,1.412,0.32,3.531c0.19,2.119,0.398,4.943,0.555,7.768
			c0.083,1.412,0.279,2.825,0.302,4.149c-0.005,1.324-0.133,2.56-0.302,3.619c-0.314,2.119-0.875,3.531-0.875,3.531h-0.25
			c0,0-0.561-1.412-0.875-3.531c-0.169-1.059-0.297-2.295-0.302-3.619c0.023-1.324,0.219-2.736,0.302-4.149
			c0.157-2.825,0.365-5.649,0.555-7.768c0.171-2.119,0.32-3.531,0.32-3.531H37.125z"/>
	</g>
	<g opacity="0.4">
		<path fill="#FFFFFF" d="M28.125,125.823c0,0,0.149,1.412,0.32,3.531c0.19,2.119,0.398,4.943,0.555,7.768
			c0.083,1.412,0.279,2.825,0.302,4.149c-0.005,1.324-0.133,2.56-0.302,3.619c-0.314,2.119-0.875,3.531-0.875,3.531h-0.25
			c0,0-0.561-1.412-0.875-3.531c-0.169-1.059-0.297-2.295-0.302-3.619c0.023-1.324,0.219-2.736,0.302-4.149
			c0.157-2.825,0.365-5.649,0.555-7.768c0.171-2.119,0.32-3.531,0.32-3.531H28.125z"/>
	</g>
</g>
</svg>
