<?xml version="1.0" encoding="utf-8"?>
<!-- Generator: Adobe Illustrator 17.1.0, SVG Export Plug-In . SVG Version: 6.00 Build 0)  -->
<!DOCTYPE svg PUBLIC "-//W3C//DTD SVG 1.1 Tiny//EN" "http://www.w3.org/Graphics/SVG/1.1/DTD/svg11-tiny.dtd">
<svg version="1.1" baseProfile="tiny" id="Layer_1" xmlns="http://www.w3.org/2000/svg" xmlns:xlink="http://www.w3.org/1999/xlink"
	 x="0px" y="0px" viewBox="0 0 35 35" height="35" width="35" xml:space="preserve">
<path display="none" fill="#0195B6" d="M13.401,39.5c-4.871,0-10.162-1.858-15.724-5.521l-1.569-1.032l-0.478-1.816
	c-0.112-0.436-2.726-10.749,3.596-19.589C4.039,4.811,12.413,0.977,24.116,0.148l0.34-0.012c0.024-0.005,3.106-0.184,6.246-3.328
	L40-12.5L39.048,0.631C38.931,2.219,35.966,39.5,13.401,39.5z"/>
<g display="none">
	<linearGradient id="SVGID_1_" gradientUnits="userSpaceOnUse" x1="12.3491" y1="11.1031" x2="26.8751" y2="21.8896">
		<stop  offset="0" style="stop-color:#7BA22E"/>
		<stop  offset="1" style="stop-color:#416F21"/>
	</linearGradient>
	<path display="inline" fill="url(#SVGID_1_)" d="M0.493,30.208c0,0-6.097-23.162,24.602-25.337c0,0,5.054-0.007,9.905-4.857
		C35,0.014,31.336,50.492,0.493,30.208z"/>
	<path display="inline" fill="#47642E" d="M0.493,30.208c0,0,22.539-7.966,30.909-26.13C31.402,4.078,24.554,24.43,0.493,30.208z"/>
</g>
<g display="none">
	<linearGradient id="SVGID_2_" gradientUnits="userSpaceOnUse" x1="12.3491" y1="11.1031" x2="26.8751" y2="21.8896">
		<stop  offset="0" style="stop-color:#8A5D3B"/>
		<stop  offset="1" style="stop-color:#603813"/>
	</linearGradient>
	<path display="inline" fill="url(#SVGID_2_)" d="M0.493,30.208c0,0-6.097-23.162,24.602-25.337c0,0,5.054-0.007,9.905-4.857
		C35,0.014,31.336,50.492,0.493,30.208z"/>
	<path display="inline" fill="#4D2710" d="M0.493,30.208c0,0,22.539-7.966,30.909-26.13C31.402,4.078,24.554,24.43,0.493,30.208z"/>
</g>
<g display="none">
	<linearGradient id="SVGID_3_" gradientUnits="userSpaceOnUse" x1="12.3491" y1="11.1031" x2="26.8751" y2="21.8896">
		<stop  offset="0" style="stop-color:#FFCD29"/>
		<stop  offset="1" style="stop-color:#D79E29"/>
	</linearGradient>
	<path display="inline" fill="url(#SVGID_3_)" d="M0.493,30.208c0,0-6.097-23.162,24.602-25.337c0,0,5.054-0.007,9.905-4.857
		C35,0.014,31.336,50.492,0.493,30.208z"/>
	<path display="inline" fill="#D48D29" d="M0.493,30.208c0,0,22.539-7.966,30.909-26.13C31.402,4.078,24.554,24.43,0.493,30.208z"/>
</g>
<g display="none">
	<linearGradient id="SVGID_4_" gradientUnits="userSpaceOnUse" x1="12.3491" y1="11.1031" x2="26.8751" y2="21.8896">
		<stop  offset="0" style="stop-color:#EE5F29"/>
		<stop  offset="1" style="stop-color:#ED2A24"/>
	</linearGradient>
	<path display="inline" fill="url(#SVGID_4_)" d="M0.493,30.208c0,0-6.097-23.162,24.602-25.337c0,0,5.054-0.007,9.905-4.857
		C35,0.014,31.336,50.492,0.493,30.208z"/>
	<path display="inline" fill="#AC1F2A" d="M0.493,30.208c0,0,22.539-7.966,30.909-26.13C31.402,4.078,24.554,24.43,0.493,30.208z"/>
</g>
<g>
	<linearGradient id="SVGID_5_" gradientUnits="userSpaceOnUse" x1="12.3491" y1="11.1031" x2="26.8751" y2="21.8896">
		<stop  offset="0" style="stop-color:#BBBBBB"/>
		<stop  offset="1" style="stop-color:#888888"/>
	</linearGradient>
	<path fill="url(#SVGID_5_)" d="M0.493,30.208c0,0-6.097-23.162,24.602-25.337c0,0,5.054-0.007,9.905-4.857
		C35,0.014,31.336,50.492,0.493,30.208z"/>
	<path fill="#777777" d="M0.493,30.208c0,0,22.539-7.966,30.909-26.13C31.402,4.078,24.554,24.43,0.493,30.208z"/>
</g>
<path display="none" fill="#0195B6" d="M13.401,39.5c-4.871,0-10.162-1.858-15.724-5.521l-1.569-1.032l-0.478-1.816
	c-0.112-0.436-2.726-10.749,3.596-19.589C4.039,4.811,12.413,0.977,24.116,0.148l0.34-0.012c0.024-0.005,3.106-0.184,6.246-3.328
	L40-12.5L39.048,0.631C38.931,2.219,35.966,39.5,13.401,39.5z"/>
<g display="none">
	<linearGradient id="SVGID_6_" gradientUnits="userSpaceOnUse" x1="1.045561e-05" y1="17.5143" x2="35" y2="17.5143">
		<stop  offset="0" style="stop-color:#FFCD2A"/>
		<stop  offset="0.9978" style="stop-color:#D79E29"/>
	</linearGradient>
	<path display="inline" fill="url(#SVGID_6_)" d="M0.493,30.208c0,0-6.097-23.162,24.602-25.337c0,0,5.054-0.007,9.905-4.857
		C35,0.014,31.336,50.492,0.493,30.208z"/>
	<path display="inline" fill="#D48D29" d="M0.493,30.208c0,0,22.539-7.966,30.909-26.13C31.402,4.078,24.554,24.43,0.493,30.208z"/>
</g>
<path display="none" fill="#0195B6" d="M13.401,39.5c-4.871,0-10.162-1.858-15.724-5.521l-1.569-1.032l-0.478-1.816
	c-0.112-0.436-2.726-10.749,3.596-19.589C4.039,4.811,12.413,0.977,24.116,0.148l0.34-0.012c0.024-0.005,3.106-0.184,6.246-3.328
	L40-12.5L39.048,0.631C38.931,2.219,35.966,39.5,13.401,39.5z"/>
<g display="none">
	<linearGradient id="SVGID_7_" gradientUnits="userSpaceOnUse" x1="2.963015e-06" y1="17.5143" x2="35" y2="17.5143">
		<stop  offset="0" style="stop-color:#8A5D3B"/>
		<stop  offset="1" style="stop-color:#603813"/>
	</linearGradient>
	<path display="inline" fill="url(#SVGID_7_)" d="M0.493,30.208c0,0-6.097-23.162,24.602-25.337c0,0,5.054-0.007,9.905-4.857
		C35,0.014,31.336,50.492,0.493,30.208z"/>
	<path display="inline" fill="#4D2710" d="M0.493,30.208c0,0,22.539-7.966,30.909-26.13C31.402,4.078,24.554,24.43,0.493,30.208z"/>
</g>
<path display="none" fill="#0195B6" d="M13.401,39.5c-4.871,0-10.162-1.858-15.724-5.521l-1.569-1.032l-0.478-1.816
	c-0.112-0.436-2.726-10.749,3.596-19.589C4.039,4.811,12.413,0.977,24.116,0.148l0.34-0.012c0.024-0.005,3.106-0.184,6.246-3.328
	L40-12.5L39.048,0.631C38.931,2.219,35.966,39.5,13.401,39.5z"/>
<g display="none">
	<linearGradient id="SVGID_8_" gradientUnits="userSpaceOnUse" x1="7.981868e-06" y1="17.5143" x2="35" y2="17.5143">
		<stop  offset="0" style="stop-color:#EE6129"/>
		<stop  offset="0.9907" style="stop-color:#ED2A24"/>
	</linearGradient>
	<path display="inline" fill="url(#SVGID_8_)" d="M0.493,30.208c0,0-6.097-23.162,24.602-25.337c0,0,5.054-0.007,9.905-4.857
		C35,0.014,31.336,50.492,0.493,30.208z"/>
	<path display="inline" fill="#AC1F2A" d="M0.493,30.208c0,0,22.539-7.966,30.909-26.13C31.402,4.078,24.554,24.43,0.493,30.208z"/>
</g>
</svg>
