<svg xmlns="http://www.w3.org/2000/svg" xmlns:xlink="http://www.w3.org/1999/xlink" viewBox="0 0 60 18" enable-background="new 0 0 60 18"><symbol id="c" viewBox="-31.379 -13.214 62.757 26.731"><defs><path id="a" d="M29.932-4.482h-60v18h60z"/></defs><clipPath id="b"><use xlink:href="#a" overflow="visible"/></clipPath><g clip-path="url(#b)"><path fill="#61A246" d="M-2.649-7.211s-.096 1.492.079 3.588c.146.801.478 1.794 1.209 2.744 0 0-.185-1.266-.32-2.744-.136-3.257-.219-6.99-.003-8.823l-.965 5.235zM8.587-3.469l.258-.155 1.138-1.482-.048 1.482c-.106 1.57-.341 5.557-.257 8.816.04 3.375.152 6.391.386 8.31 0 0-.641-2.394-1.096-8.31-.33-1.971-.562-4.792-.381-8.661zM11.372-8.63l2.34 1.592s.025 1.32.073 3.414c.106 2.113.324 5.938.643 8.816.208 4.098.46 3.446.75 4.152 0 0-.667.515-1.449-4.152-.948-2.604-2.064-6.099-2.358-8.816-.093-1.879-.104-3.586.001-5.006zM3.534-13.214l-1.208 1.592s.038 3.563.054 7.998c.024 3.089-.005 7.099-.296 7.729 0 0 .912-3.895 1.313-7.729.164-3.417.242-6.811.137-9.59zM20.102-5.676l1.644 1.594.005.458c.03 1.196.782 6.654.823 8.332.007.61 0 3.132 0 3.132s-.647-2.035-.737-2.648c-.468-1.466-1.913-6.221-1.854-8.816.008-.785.045-1.48.119-2.052z"/><path fill="#437021" d="M6.975-7.608s0 1.579-.018 3.985c-.038 2.326-.155 6.338-.518 8.815-.116 1.725-.258 3.108-.43 3.921 0 0 0-1.561-.006-3.921-.014-2.405-.057-6.616-.193-8.816-.035-1.225-.076-2.163-.124-2.675l1.289-1.309z"/><path fill="#97B73E" d="M15.883-6.702s.196 1.247.628 3.079c.985 1.92 3.197 5.236 7.11 6.327 0 0-3.771-3.364-5.04-6.327-.345-1.752-.504-3.439-.354-4.898l-2.344 1.819z"/><path fill="#437021" d="M9.85-5.319s.092.634.228 1.696c.142.508.334 1.229.522 2.055 1.082 2.174 1.493 4.988 1.032 6.761-.151.579-.393 1.083-.676 1.509 0 0-.066-.557-.196-1.509l-.159-.52c-.279-1.934-.908-5.756-1.845-8.296-.127-.75-.26-1.447-.398-2.077l1.492.381z"/><path fill="#61A246" d="M6.76-8.068s-.031 1.773-.032 4.444c-.002 2.367.107 6.268.763 8.816.101.852.214 1.635.343 2.325l-.046-2.325c-.077-1.872-.218-5.829-.189-8.816.016-3.507.082-6.398.234-7.63l-1.073 3.186z"/><path fill="#97B73E" d="M5.735-6.236s.006 1.006.007 2.612c.002 2.132-.038 6.565-.38 8.816-.049.69-.103 1.285-.164 1.759l-.014-1.759c-.034-1.776-.147-6.076-.452-8.816-.081-1.587-.176-2.934-.287-3.872l1.29 1.26z"/><path fill="#61A246" d="M23.916-11.304s-.169 3.539.076 7.681c.253 1.972.95 4.24 2.739 5.305 0 0-1.004-3.138-.993-5.305.003-1.312.085-2.461.288-3.253l-2.11-4.428z"/><path fill="#437021" d="M20.724-6.172s.106.993.346 2.548c.678 2.022 2.429 6.114 5.891 7.806 0 0-2.564-4.192-3.986-7.806-.588-3.251-.981-6.287-.917-8.375l-1.334 5.827z"/><path fill="#97B73E" d="M-.021-4.879l-.072 1.255c-.218 1.702-.877 6.714-1.389 8.816-.106.948-.205 1.624-.293 1.907l.065-1.907c.132-1.842.414-6.163.378-8.816-.012-1.873-.058-3.365-.153-4.165l1.464 2.91zM4.539-4.879l-.072 1.255c-.218 1.702-.877 6.714-1.389 8.816-.106.948-.205 1.624-.293 1.907l.065-1.907c.131-1.842.414-6.163.378-8.816-.012-1.873-.058-3.365-.153-4.165l1.464 2.91zM13.456-7.901s.172 1.742.484 4.277c.67 2.499 1.989 6.674 3.649 8.227 0 0-1.97-7.365-1.97-9.1 0 0-.052-1.001-.144-1.06-.618-.876-2.019-2.344-2.019-2.344z"/><path fill="#61A246" d="M25.852-8.845s.215 2.185.603 5.221c.7 2.523 1.647 8.141 2.535 9.724 0 0 .129-7.621.03-9.724l-.01-.74-3.158-4.481z"/><path fill="#97B73E" d="M7.751-3.891l.016.267c.102.797.658 5.31.643 8.816-.006 2.914-.095 5.508-.324 7.211 0 0 .267-2.969.542-7.211.357-2.522.727-6.024.554-8.816-.039-1.36-.105-2.643-.205-3.808l-1.226 3.541z"/><path fill="#61A246" d="M-22.792-4.358l-3.049-1.489s.025.833.053 2.224c.08 1.829.185 5.756-.201 8.816-.195 3.359-.515 6.238-1.026 7.807 0 0 1.305-2.87 2.483-7.807 1.129-2.175 2.142-5.222 1.778-8.816l-.038-.735z"/><path fill="#437021" d="M-7.937-6.469l1.072 2.031-.008.815c-.026 1.36-.102 6.097.028 8.816.041 1.877.103 3.312.194 3.929 0 0-.175-1.492-.397-3.929-.401-2.019-.959-5.448-.932-8.816.004-.954.018-1.905.043-2.846z"/><path fill="#61A246" d="M-9.769-9.119l1.08.652.713.94s-.017 1.561-.032 3.903c-.036 2.5-.068 6.936.126 8.816.04.839.089 1.444.15 1.73 0 0-.068-.636-.176-1.73-.191-.893-.505-2.45-.78-4.217-.5-1.475-.939-3.096-1.109-4.598-.104-1.967-.109-3.841.028-5.496z"/><path fill="#97B73E" d="M-3.939-4.48l.753-1.308.011 2.164.095 8.816.001.224-.018-.224c-.138-.816-1.039-6.266-.879-8.816l.037-.856z"/><path fill="#437021" d="M-19.277-4.48l.004.856c.025 1.389.186 6.122 1.24 8.816.24 1.336.527 2.442.869 3.178 0 0 0-1.243.01-3.178.025-2.273.115-6.622.433-8.816.074-1.105.16-1.959.26-2.446l-2.816 1.59z"/><path fill="#61A246" d="M-1.059-4.537l.051.913c.187 1.37.959 5.744 3.385 7.847 0 0-1.907-4.713-2.467-7.847-.143-1.742-.198-3.26-.111-4.325l-.858 3.412zM-13.008-4.537l.051.913c.187 1.37.959 5.744 3.385 7.847 0 0-1.907-4.713-2.467-7.847-.143-1.742-.198-3.26-.111-4.325l-.858 3.412z"/><path fill="#437021" d="M2.593-12.03s-.075 3.701-.228 8.407c-.226 3.172-.62 7.339-1.195 8.584 0 0 .238-5.144.248-8.584.004-2.865-.025-5.187-.114-6.132l1.289-2.275zM-5.872-7.439s.114 1.59.37 3.816c.486 1.949 1.484 4.959 3.174 5.989 0 0-1.598-3.113-2.237-5.989-.205-2.015-.311-3.975-.233-5.638l-1.074 1.822z"/><path fill="#97B73E" d="M-25.429-4.8l.001 1.177c.006.831-1.361 6.067-4.021 8.816-.223.23-.437.453-.673.638l.131-.638c.512-1.17 2.352-5.595 2.385-8.816.006-1.231-.044-2.381-.167-3.398l2.344 2.221z"/><path fill="#61A246" d="M-18.807-8.809s.08 2.106.069 5.185c-.02 2.501-.326 6.399-1.868 8.816-.167.57-.349 1.102-.546 1.588l.07-1.588c.15-1.631.485-5.676.447-8.816-.021-3.836-.161-7.052-.517-8.369l2.345 3.184zM-17.099-5.909s-.033.861-.054 2.286c-.06 1.876-.02 5.88 1.174 8.816.319 1.706.72 3.246 1.224 4.487 0 0-.084-1.788-.185-4.487-.191-2.348-.44-6.196-.288-8.816.067-2.51.212-4.502.473-5.469l-2.344 3.183z"/><path fill="#97B73E" d="M-15.208-6.312s-.014 1.041-.015 2.688c-.002 2.22.109 6.835 1.015 8.816.055.262.113.503.174.72l.011-.72c.045-1.25.245-5.767.894-8.816.2-2.038.442-3.775.735-4.911l-2.814 2.223z"/><path fill="#61A246" d="M1.997-5.274s-.027.622-.1 1.65c-.257 1.647-1.084 5.556-3.336 7.507 0 0 1.774-4.384 2.402-7.507.19-2.051.275-3.851.175-5.065l.859 3.415z"/><path fill="#437021" d="M-3.31-7.155s0 1.417.057 3.532c.126 2.151.532 5.874 1.836 7.593 0 0-.679-4.016-.964-7.593-.131-3.583-.179-6.964-.039-9.196l-.89 5.664zM-28.203-7.155s0 1.417.057 3.532c.126 2.151.532 5.874 1.836 7.593 0 0-.679-4.016-.964-7.593-.131-3.583-.179-6.964-.039-9.196l-.89 5.664z"/><path fill="#97B73E" d="M-11.965-5.617s.093.757.253 1.994c.565 2.005 1.96 6.751 3.022 8.632l.05.184c.073.56.142.964.205 1.166l-.04-1.166c-.049-.666-.135-1.883-.215-3.282-.226-1.81-.432-3.923-.418-5.534.009-2.219.105-4 .34-4.902l-3.197 2.908zM-7.439-7.673s.074 1.638.209 4.05c.303 2.485.913 6.757 1.684 8.332 0 0-.446-6.399-.446-8.133l-.14-.199-1.307-4.05zM-1.306-9.586s.115 2.546.32 5.962c.328 2.514.887 6.053 1.573 7.454 0 0-.358-5.138-.433-7.454-.009-.584-.014-1.086-.014-1.479l-1.446-4.483zM10.642-7.653s.115 2.546.32 5.962c.328 2.514.887 6.052 1.573 7.454 0 0-.358-5.138-.433-7.454-.009-.585-.013-1.087-.013-1.479l-1.447-4.483zM-20.972-4.632l-.128 1.008c-.371 1.387-1.978 3.674-1.869 6.883.041 2.611-.189 4.915.269 6.472 0 0-.515-.695-1.077-4.539-.776-2.443-.645-5.954-.357-8.816.076-1.636.231-3.174.488-4.547l2.674 3.539z"/><path fill="#437021" d="M-14.49-5.149s.159.57.384 1.525c.889 1.736 3.795 6.239.904 8.219 0 0 .345-5.308-2.549-8.219-.203-.444-.422-.863-.658-1.251l1.919-.274z"/><path fill="#61A246" d="M-5.615-5.571s.128.732.296 1.948c.508 1.684 1.387 5.391.257 8.007 0 0-.353-4.934-1.211-8.007-.232-1.809-.501-3.322-.811-4.245l1.469 2.297zM17.453-7.673s.074 1.638.209 4.05c.303 2.485.913 6.757 1.684 8.332 0 0-.446-6.399-.446-8.133l-.14-.199-1.307-4.05z"/><path fill="#97B73E" d="M26.248-5.571s.128.732.296 1.948c.508 1.684 1.938 6.424.807 9.04 0 0-.904-5.967-1.762-9.04-.232-1.809-.501-3.322-.811-4.245l1.47 2.297z"/><path fill="#61A246" d="M4.196-7.702s.227 1.64.426 4.079c.34 1.918.598 4.913-.507 7.042 0 0-.001-3.971-.46-7.043-.192-2.795-.464-5.248-.849-6.585l1.39 2.507z"/><path fill="#97B73E" d="M30.077-4.537s-.031.333-.111.913c-.409 1.37-2.191 3.438-5.187 7.593 0 0 1.959-4.459 3.181-7.593.312-1.742.432-3.26.242-4.325l1.875 3.412z"/><path fill="#437021" d="M-31.38-10.325s0 2.904.129 6.701c.199 2.679.703 6.324 1.98 7.591 0 0 .002-4.67.313-7.591.097-1.992.225-3.611.392-4.426l-2.814-2.275zM28.563-10.325s0 2.904.129 6.701c.199 2.679.703 6.324 1.98 7.591 0 0 .002-4.67.313-7.591.097-1.992.225-3.611.392-4.426l-2.814-2.275zM-20.764-12.03s-.075 3.701-.228 8.407c-.225 3.173-.619 7.339-1.194 8.584 0 0 .238-5.144.248-8.584.004-2.864-.026-5.186-.114-6.131l1.288-2.276zM13.652-5.476s.112.713.353 1.852c.806 1.749 3.053 5.683 7.385 6.891 0 0-4.271-3.809-5.254-6.891-.192-1.309-.259-2.559-.143-3.674l-2.341 1.822z"/></g></symbol><use xlink:href="#c" width="62.757" height="26.731" x="-31.379" y="-13.214" transform="matrix(.999 0 0 -.999 30.09 13.5)" overflow="visible"/></svg>