<svg baseProfile="tiny" xmlns="http://www.w3.org/2000/svg" viewBox="0 0 72 22" height="22" width="72"><path fill="#61A246" d="M32.928 22h1.098l.04-1.031c.161-1.775.383-3.293.383-3.293-.877 1.14-1.277 2.332-1.451 3.293-.03.362-.052.703-.07 1.031zM48.157.419s-.769 2.872-1.315 9.972c-.396 2.365-.674 5.75-.457 10.393l.31.186.791 1.031h.549l-.033-1.031c-.127-1.884-.41-6.669-.309-10.579.049-4.051.184-7.67.464-9.972zM52.556 10.391c-1.138 3.125-2.477 7.319-2.83 10.579l-.04 1.031h2.914l.023-1.031c.127-2.535.389-7.126.771-10.579.25-4.918.552-4.135.9-4.982.001-.001-.8-.619-1.738 4.982z"/><g fill="#61A246"><path d="M38.718 12.305c-.039-.281-.084-.496-.137-.61l.137.61zM38.932 22h1.271l-.046-1.031c-.378-3.612-1.132-7.26-1.439-8.665.221 1.581.242 5.517.218 8.665l-.004 1.031z"/></g><path fill="#61A246" d="M62.285 10.391c-.561 1.759-2.296 7.465-2.225 10.579.004.366.018.7.033 1.031h1.587l.496-.481.006-.55c.036-1.435.938-7.985.988-9.998.008-.732 0-3.758 0-3.758s-.777 2.441-.885 3.177z"/><path fill="#437021" d="M43.284 10.391c-.016 2.886-.068 7.939-.231 10.579l-.033 1.031h1.416l-.007-1.031c-.045-2.792-.186-7.606-.622-10.579-.14-2.07-.309-3.73-.516-4.705.001 0 .001 1.873-.007 4.705z"/><path fill="#97B73E" d="M55.893 20.969l-.233 1.031h2.542c.056-.342.108-.683.176-1.031 1.522-3.557 6.048-7.593 6.048-7.593-4.696 1.31-7.351 5.29-8.533 7.593z"/><path fill="#437021" d="M49.228 8.579s-.079.669-.236 1.811l-.191.624c-.334 2.321-1.09 6.907-2.214 9.955l-.185 1.031h1.636l.136-1.031c.171-.609.401-1.474.627-2.466 1.299-2.609 1.791-5.986 1.238-8.113-.18-.695-.471-1.299-.811-1.811z"/><path fill="#61A246" d="M44.155 20.969l.002 1.031h1.051l-.007-1.031c-.035-3.584.134-8.332.226-10.579l.055-2.79c-.154.828-.29 1.767-.411 2.79-.787 3.058-.918 7.739-.916 10.579z"/><path fill="#97B73E" d="M42.319 8.28l-.016 2.111c-.042 2.131-.177 7.291-.543 10.579l-.057 1.031h1.267l.001-1.031c.003-2.558-.045-7.878-.456-10.579-.058-.828-.123-1.542-.196-2.111z"/><path fill="#61A246" d="M64.871 20.969l-.055 1.031h2.168c-.011-.333-.018-.675-.019-1.031-.013-2.601 1.191-6.366 1.191-6.366-2.145 1.278-2.981 4-3.285 6.366z"/><path fill="#437021" d="M61.365 20.969l-.152 1.031h2.259l.18-1.031c1.707-4.337 4.783-9.367 4.783-9.367-4.155 2.031-6.256 6.941-7.07 9.367z"/><path fill="#97B73E" d="M34.472 22h1.556l-.06-1.031c-.26-2.042-1.052-8.057-1.665-10.579-.127-1.138-.247-1.949-.352-2.288l.078 2.288c.158 2.21.497 7.395.454 10.579l-.011 1.031zM39.944 22h1.556l-.06-1.031c-.26-2.042-1.052-8.057-1.665-10.579-.127-1.138-.247-1.949-.352-2.288l.078 2.288c.158 2.21.497 7.395.454 10.579l-.011 1.031zM52.684 22h2.14c.011-2.107 2.363-10.903 2.363-10.903-1.992 1.863-3.574 6.874-4.379 9.873l-.124 1.03z"/><path fill="#61A246" d="M67.827 20.969l-.129 1.031h3.096l.1-.142.011-.888c.118-2.525-.037-11.67-.037-11.67-1.065 1.9-2.201 8.642-3.041 11.669z"/><g fill="#97B73E"><path d="M46.058 5.08c-.062-1.285-.15-2.426-.273-3.342 0 0 .113 1.26.273 3.342zM46.058 5.08c.076 1.58.112 3.383.116 5.311.018 4.207-.65 9.623-.772 10.579l-.019.321.245.709h1.43l.041-1.031c.208-3.35-.237-7.552-.664-10.579-.134-2.07-.267-3.882-.377-5.31z"/></g><path fill="#61A246" d="M3.663 1.022c.614 1.883.997 5.338 1.231 9.368.464 3.672.338 8.384.241 10.579l-.021 1.031h3.312l.305-.149.046-.881c.436-4.313-.779-7.97-2.134-10.579-1.414-5.924-2.98-9.369-2.98-9.369z"/><g fill="#437021"><path d="M26.506 20.969l.015 1.031h1.294l.028-.053-.009-.978c-.031-1.631-.122-7.316.034-10.579.041-1.884.101-3.387.183-4.265-.077.697-.236 2.187-.426 4.265-.482 2.423-1.151 6.538-1.119 10.579zM28.05 6.126l.051-.45-.051.45z"/></g><g fill="#61A246"><path d="M25.654 15.451c-.6 1.77-1.127 3.715-1.331 5.518l-.041 1.031h2.196l-.007-1.031c-.044-3-.082-8.324.151-10.579l.038-.701-.07.701c-.23 1.072-.607 2.941-.936 5.061zM26.659 9.69l.141-1.376c-.054.258-.101.731-.141 1.376z"/></g><path fill="#97B73E" d="M31.31 20.969c.011.366.025.71.044 1.027l.002.004h.909l.005-1.031.115-10.579.001-.269-.021.269c-.165.979-1.246 7.52-1.055 10.579z"/><path fill="#437021" d="M16.016 20.969c-.382-2.632-.489-7.851-.519-10.579-.012-2.322-.012-3.813-.012-3.813-.41.883-.754 2.21-1.043 3.813-1.265 3.232-1.459 8.912-1.488 10.579l-.005 1.027.006.004h3.14l-.079-1.031z"/><path fill="#61A246" d="M34.871 20.969l-.058 1.031h1.087l.073-1.031c.672-3.76 2.96-9.416 2.96-9.416-2.911 2.524-3.837 7.772-4.062 9.416zM20.533 20.969l-.058 1.031h1.087l.074-1.031c.672-3.76 2.96-9.416 2.96-9.416-2.912 2.524-3.839 7.772-4.063 9.416z"/><path fill="#437021" d="M38.951 22l-.033-1.031c-.27-3.808-.743-8.807-1.433-10.301 0 0 .285 6.172.297 10.301v1.031h1.169zM29.479 20.969l-.114 1.031h1.146l.092-1.031c.766-3.45 2.684-7.186 2.684-7.186-2.028 1.236-3.225 4.847-3.808 7.186z"/><path fill="#97B73E" d="M0 9.683v.257l.092.451c.614 1.404 2.823 6.714 2.862 10.579.002.35-.001.693-.007 1.031h2.62l.001-1.031c.007-.997-1.634-7.281-4.825-10.579-.246-.255-.486-.497-.743-.708z"/><path fill="#61A246" d="M11.354 10.391c-.201-.684-.418-1.322-.655-1.905l.084 1.905c.18 1.957.583 6.811.537 10.579l-.01 1.031h2.287l-.001-1.031c-.024-3.002-.391-7.679-2.242-10.579zM15.498 20.969l.018 1.031h2.324l-.032-1.031c-.182-3.144.117-7.762.346-10.579.121-3.239.222-5.385.222-5.385-.605 1.49-1.086 3.338-1.469 5.385-1.433 3.523-1.48 8.328-1.409 10.579z"/><path fill="#97B73E" d="M20.327 20.969c-.78-3.658-1.02-9.079-1.073-10.579l-.013-.864c-.073.261-.143.55-.209.864-1.087 2.377-1.22 7.915-1.218 10.579l.002 1.031h2.618l-.107-1.031z"/><path fill="#61A246" d="M38.357 20.969c-.308-1.975-1.3-6.666-4.003-9.008 0 0 2.129 5.26 2.883 9.008l.089 1.031h1.1l-.069-1.031z"/><path fill="#437021" d="M32.152 22h1.036l.035-1.031c.342-4.292 1.157-9.111 1.157-9.111-1.564 2.062-2.051 6.53-2.203 9.111l-.025 1.031zM2.281 22h1.036l.035-1.031c.342-4.292 1.157-9.111 1.157-9.111-1.565 2.062-2.051 6.53-2.203 9.111l-.025 1.031z"/><path fill="#97B73E" d="M25.654 10.611c-1.275 2.257-2.95 7.953-3.627 10.358l-.132 1.031h3.268l-.01-1.031c-.016-1.934.231-4.469.502-6.641.096-1.679.199-3.14.257-3.938l.048-1.399c-.076.243-.158.727-.246 1.399l-.06.221zM28.89 20.731c0-2.081.536-9.759.536-9.759-.925 1.89-1.657 7.016-2.021 9.998l-.057 1.031h1.042l.333-1.031.167-.239zM34.837 22h1.417l.012-1.031c.089-2.779.519-8.944.519-8.944-.824 1.682-1.494 5.928-1.888 8.944l-.06 1.031zM49.045 22h1.035l.508-1.575c0-.471.006-1.073.016-1.775.09-2.779.519-8.944.519-8.944-.824 1.682-1.494 5.928-1.888 8.944-.073 1.23-.137 2.362-.19 3.35zM10.762 20.969c-.445-1.664-2.373-4.409-2.243-8.259.049-3.134-.227-5.898.323-7.766 0 0-.618.834-1.292 5.447-.932 2.931-.774 7.145-.428 10.579.015.348.038.689.061 1.03h3.709l-.13-1.031z"/><path fill="#437021" d="M20.238 11.106s.414 6.37-3.059 9.863c-.167.366-.357.696-.543 1.031h2.266l.251-1.031c1.067-2.083 4.554-7.487 1.085-9.863z"/><path fill="#61A246" d="M28.554 20.969l-.141 1.031h1.138l.148-1.031c.61-2.021 1.665-6.469.308-9.608 0 0-.424 5.921-1.453 9.608zM57.219 22h1.042l.333-1.031.168-.239c0-2.081.536-9.759.536-9.759-.925 1.89-1.657 7.016-2.021 9.998l-.058 1.031z"/><path fill="#97B73E" d="M66.789 20.969l-.141 1.031h1.138l.149-1.031c.61-2.021 2.325-7.708.969-10.848-.001.001-1.086 7.161-2.115 10.848z"/><path fill="#61A246" d="M40.467 20.969l-.076 1.031h1.147l.089-1.031c.408-2.303.718-5.896-.608-8.451.001 0-.001 4.765-.552 8.451z"/><path fill="#97B73E" d="M72 20.853c-.553-1.645-2.67-4.123-6.184-8.995 0 0 2.351 5.351 3.818 9.111.064.356.111.692.16 1.031h2.206v-1.147z"/><path fill="#437021" d="M1.332 20.969c-.373-3.506-.375-9.11-.375-9.11-.371.369-.687.906-.957 1.552v8.589h1.387l-.055-1.031zM70.48 22h1.52v-8.741c-.893 2.015-1.302 5.211-1.488 7.711l-.032 1.03zM10.923 22l-.033-1.031c-.27-3.808-.743-8.807-1.433-10.301 0 0 .285 6.172.297 10.301v1.031h1.169zM52.888 20.969l-.209 1.031h2.639c.036-.34.076-.683.127-1.031 1.18-3.698 6.305-8.269 6.305-8.269-5.198 1.45-7.895 6.171-8.862 8.269z"/></svg>