<svg baseProfile="tiny" xmlns="http://www.w3.org/2000/svg" viewBox="0 0 500 700" height="700" width="500"><g><g stroke="#0095B7" stroke-width="3" stroke-miterlimit="10" fill="none"><path d="M206.113 538.992v13.273h-70.589l-69.247 69.247-15.271 15.271M75.974 611.194h-20.212l-28.83 28.83M66.029 621.512v25.456l-11.244 11.243"/><circle cx="52.148" cy="660.532" r="3.472"/><circle cx="47.981" cy="639.699" r="3.472"/><circle cx="25.759" cy="642.477" r="3.472"/></g><path fill="#0095B7" d="M224.864 380.271c.185 4.619 2.383 7.939 4.888 11.69 2.602 3.897 3.478 8.036 4.014 12.601.979 8.333.619 16.9.086 25.255-.766 12.025-1.599 23.93-3.122 35.911-1.902 14.967-3.954 30.014-7.058 44.788-1.009 4.802-2.806 7.957-5.598 12.099-2.453 3.638-5.419 8.047-9.452 10.037-2.985 1.473-3.819 3.58-3.979 6.868-.075 1.536 2.873 1.129 2.939-.209.236-4.831 3.75-5.116 6.707-8.111 2.95-2.987 5.426-6.385 7.687-9.914 2.416-3.77 3.704-6.648 4.635-10.979 3.171-14.753 5.135-29.832 7.057-44.788 1.54-11.98 2.318-23.89 3.122-35.911.516-7.715.666-15.487.111-23.202-.259-3.591-.725-7.19-1.828-10.627-1.826-5.687-7.018-9.409-7.27-15.718-.062-1.546-2.992-1.112-2.939.21zM226.696 344.426c3.75 2.678 7.233 4.962 9.036 9.32 1.376 3.327 1.732 7.116 2.048 10.665.456 5.117.495 10.256.207 15.379-.522 9.282-1.619 17.524-4.11 26.445-.334 1.197 2.607.797 2.914-.302 1.059-3.791 2.463-7.598 2.914-11.518.679-5.898 1.067-11.852 1.344-17.781.243-5.217-.074-10.545-.642-15.727-.38-3.465-1.066-7.387-2.919-10.406-1.988-3.24-5.477-5.422-8.516-7.592-.884-.632-3.519.629-2.276 1.517z"/><g fill="#0095B7"><path d="M135.548 303.685l-.324-.166-.354-.084c-2.394-.568-7.854-3.019-9.757-3.916l-9.32-4.393 5.504 8.71c1.265 2.001 4.433 4.049 5.374 4.629l.249.154.274.102c3.316 1.24 5.573 3.142 7.109 5.064-20.576-4.25-42.956-7.362-64.4-7.362-14.401 0-27.563 1.409-39.121 4.187l.701 5.917c.464 0 22.309.103 53.133 4.116-2.428 2.66-6.469 5.625-12.729 6.202l-.292.027-.281.083c-1.218.359-5.347 1.672-7.315 3.477l2.795 5.112c2.212-.585 8.605-2.104 11.59-2.104l.592.016.185-.039c-.483.69-1.112 1.372-1.955 1.991l-.236.173-.198.216c-.621.676-2.115 2.414-2.572 3.957l-2.71 9.145 7.457-5.947c1.214-.968 3.541-2.727 4.62-3.327l.318-.177.267-.248c.206-.192 4.462-4.231 4.365-9.942l-.233.149c2.509-1.694 5.049-4.038 6.885-7.269 15.606 2.353 32.929 5.7 50.661 10.449-1.775 1.657-5.208 3.348-11.84 3.349h-.002c-1.24 0-2.568-.061-3.946-.181l-.293-.025-.292.032c-1.269.138-7.759.926-10.905 2.91l2.046 5.504c.058-.009 5.885-.876 11.008-.876 1.958 0 3.527.124 4.665.369l.94.202.313-.135c3.103-.016 12.136-.786 17.093-8.69 17.703 5.188 35.564 11.812 52.264 20.319.714.581 1.564 1.172 2.53 1.843 4.904 3.407 13.113 9.11 15.488 22.975l2.957-.507c-3.106-18.128-15.392-23.466-19.313-26.83-17.738-9.066-36.712-16.038-55.409-21.405-.45 1.011-.969 1.912-1.54 2.716-5.168 7.26-14.565 6.525-14.693 6.58-5.609-1.205-16.751.473-16.751.473 2.719-1.714 9.629-2.465 9.629-2.465 11.988 1.045 17.115-2.372 19.301-5.29.802-1.07 1.209-2.071 1.413-2.762-20.032-5.598-39.662-9.369-57.02-11.91-.433 1.04-.948 1.996-1.528 2.868-1.846 2.773-4.313 4.722-6.619 6.075.254 1.216.226 2.367.019 3.417-.687 3.482-3.239 5.862-3.239 5.862-1.701.947-5.032 3.603-5.032 3.603.309-1.043 1.904-2.779 1.904-2.779 2.366-1.737 3.544-3.835 4.122-5.664.46-1.456.541-2.73.53-3.523-2.749 1.344-4.92 1.806-4.92 1.806-3.891-.13-12.685 2.198-12.685 2.198 1.609-1.475 6.137-2.81 6.137-2.81 8.392-.774 13.369-5.336 15.956-8.723l.001-.001.001-.001v-.001c.871-1.141 1.471-2.145 1.837-2.829-34.018-4.745-58.476-4.751-58.476-4.751 32.536-7.82 72.585-3.422 108.426 4.514-.3-.942-.758-2.114-1.445-3.376-1.681-3.087-4.734-6.703-10.22-8.754 0 0-3.42-2.108-4.412-3.678 0 0 7.117 3.356 10.344 4.121 0 0 6.034 3.103 8.553 9.253 1.156.261 2.306.526 3.447.793-2.324-8.361-10.241-12.521-10.626-12.718zm-48.359 26.42l-.405.247.405-.247zM219.28 339.07c-5.268-2.052-12.567-4.776-21.423-7.79l.57.193c-2.448-4.624-6.158-7.332-8.784-8.375-2.886-1.147-10.053-8.737-14.221-13.761l-5.193 2.743c1.358 4.736 7.514 11.657 8.211 12.431l.141.156.161.135.639.533.996.301c-10.878-3.322-23.735-6.885-37.645-10.03.414 1.012.735 2.103.916 3.28 17.948 4.129 34.725 9.078 48.802 13.742-1.215-1.367-2.966-2.859-5.496-4.94-1.713-1.409-3.777-3.085-6.286-5.186 0 0-6.349-7.043-7.555-11.25 0 0 10.521 12.686 15.422 14.634 1.416.563 3.429 1.865 5.231 4.018.924 1.104 1.793 2.431 2.497 4.002 15.245 5.17 26.922 9.843 32.876 12.434l.304.132.283-3.17c-2.403-1.038-5.753-2.404-10.446-4.232zm-23.418-8.465l1.318.445-1.318-.445z"/></g></g></svg>