<svg xmlns="http://www.w3.org/2000/svg" viewBox="0 0 500 700" enable-background="new 0 0 500 700"><g fill="#0095B7"><path d="M446.409 221.993l-.373-.054-.293.002c-.696 0-1.328-.083-1.913-.213 1.505-.492 2.377-.883 2.473-.928l.331-.153.285-.228c2.766-2.214 7.539-4.695 7.587-4.719l8.963-4.641-10.042-1.009c-.229-.023-.475-.035-.731-.035-2.679 0-6.476 1.357-7.21 1.629l-.274.102-.25.153c-2.605 1.597-6.508 2.406-11.598 2.406-2.261 0-4.715-.162-7.336-.478 11.139-10.846 22.276-21.343 22.464-21.519l-3.323-4.903c-12.788 5.956-29.443 21.203-30.146 21.849l-.093.085-.085.093c-8.121 8.83-18.253 16.874-30.128 23.999.344-2.709 1.461-5.964 4.334-9.041l.199-.214.155-.248c.583-.939 2.507-4.185 2.746-6.541l.966-9.515-6.228 7.259c-1.406 1.639-5.478 6.246-7.407 7.854l-.279.232-.215.292c-.249.338-5.178 7.163-3.985 15.342-9.181 4.765-19.229 9.037-30.055 12.762 1.028-2.219 4.002-4.741 12.248-8.591l.266-.125.237-.173c.949-.695 9.345-6.93 11.918-11.82l-4.565-3.711c-.117.097-11.78 9.679-19.61 12.206l-.255.083-.236.126c-.332.177-7.799 4.302-11.214 15.581-1.794.53-3.602 1.051-5.433 1.553-30.242 8.288-56.921 10.359-64.648 10.458l-2.962.109c-7.064 1.627-8.83 11.361-10.324 18.465-1.378 6.552-.723 14.114-.741 20.759-.021 7.642-.253 15.802 1.477 23.3 1.732 7.502 6.874 15.134 10.574 21.802.099.178.253.295.434.372-1.429 10.663-2.253 21.463-3.25 32.031-1.247 13.212-2.182 25.918-1.206 39.148 1.457 19.745 3.57 39.453 5.867 59.116.928 7.946 1.896 15.892 3.063 23.807 1.339 9.077 4.457 17.741 5.782 26.814.232 1.769-.017 4.217.005 6.003.038 1.34 3.03 1.065 3 0-.296-10.346-3.851-20.884-5.49-31.001-1.178-7.27-2.047-14.596-2.929-21.907-2.391-19.804-4.475-39.659-6.085-59.543-1.115-13.778-.56-26.727.694-40.493 1.606-17.628 2.97-35.679 6.797-52.995l2.073-6.952c2.866-9.631 6.158-17.2 10.361-23.818 5.624-8.857 24.854-17.738 40.341-22.242 44.613-12.975 69.228-31.313 79.605-40.67 2.217.869 4.53 1.312 6.916 1.312 1.607 0 3.235-.203 4.839-.604.456-.114 1.587-.306 4.025-.306 6.452 0 15.978 1.31 16.074 1.323l2.05-5.485c-4.129-2.689-13.315-3.888-14.348-4.016l-.209-.025-.21.003c-2.434.042-4.534.1-6.365.15-2.064.058-3.848.107-5.302.107l-.051-.001c2.345-2.508 5.412-5.635 8.821-9.036 3.914.841 7.858 1.267 11.769 1.267 1.731 0 3.349-.089 4.864-.228 3.351 3.561 8.02 4.961 8.273 5.034l.607.176.627-.084c.184-.025.622-.066 1.498-.066 1.875 0 4.15.188 4.173.189l10.434.868-8.391-6.262c-1.288-.96-3.525-1.458-4.427-1.628zm-3.688 3.928s-5.123-1.484-7.837-5.301c-4.934.612-11.406.638-18.841-1.188-4.721 4.69-8.931 8.985-11.643 11.989 0 0-.789.943-2.433 2.578 3.174 1.182 7.437.689 17.963.511 0 0 9.411 1.164 13.078 3.552 0 0-16.122-2.236-21.239-.956-3.066.767-7.226.935-11.619-1.359-9.136 8.541-33.686 27.925-79.85 41.351-16.712 4.86-35.98 13.979-42.035 23.515-3.884 6.117-6.653 12.475-8.784 18.596l-3.743 12.883c-1.229 5.068-2.19 10.225-2.982 15.426-3.119-5.634-6.216-11.404-8.443-17.408-2.267-6.109-1.656-13.85-1.733-20.244-.084-6.907.043-13.831.43-20.728.43-7.666 2.034-16.773 9.841-18.571l.843-.366c8.742-.112 39.094-2.537 72.48-12.604l.001-.025c2.857-11.402 10.19-15.317 10.19-15.317 8.48-2.737 20.598-12.747 20.598-12.747-2.325 4.417-11.037 10.797-11.037 10.797-15.319 7.153-14.649 11.087-14.425 15.628 12.343-3.994 24.96-9.053 36.938-15.443-2.381-7.936 2.965-15.2 2.965-15.2 2.547-2.123 7.764-8.205 7.764-8.205-.188 1.847-2.31 5.259-2.31 5.259-5.755 6.165-5.55 12.985-5.001 16.276 13.015-7.302 25.154-16.235 35.197-27.155 0 0 16.868-15.509 29.382-21.339 0 0-14.275 13.446-26.784 25.742 8.696 1.635 20.232 2.665 26.878-1.408 0 0 4.426-1.641 6.598-1.422 0 0-5.043 2.609-8.083 5.042 0 0-3.115 1.435-8.414 2.293 1.055 1.451 3.957 4.615 9.223 4.57 0 0 2.317.436 3.189 1.086 0-.001-4.392-.368-6.322-.108z"/><path d="M383.64 667.994c-.652 0-1.271.134-1.842.363l-33.256-33.256-.081.081v-20.179l-41.1-41.099h-31.985v-34.977h-3v37.977h33.743l39.342 39.341v61.8c-2.305.432-4.058 2.451-4.058 4.879 0 2.742 2.23 4.973 4.973 4.973 2.741 0 4.972-2.23 4.972-4.973 0-1.994-1.188-3.706-2.887-4.498v-39.164l31.011 31.011c-.504.778-.804 1.7-.804 2.694 0 2.742 2.23 4.973 4.973 4.973 2.742 0 4.973-2.231 4.973-4.973s-2.232-4.973-4.974-4.973zm-37.265 16.902c-1.088 0-1.973-.885-1.973-1.973 0-1.087.885-1.972 1.973-1.972 1.087 0 1.972.885 1.972 1.972 0 1.089-.885 1.973-1.972 1.973zm37.265-9.956c-1.088 0-1.973-.885-1.973-1.973s.885-1.973 1.973-1.973 1.973.885 1.973 1.973-.885 1.973-1.973 1.973z"/></g></svg>