<svg xmlns="http://www.w3.org/2000/svg" viewBox="0 0 500 700" enable-background="new 0 0 500 700"><g fill="#0095B7"><path d="M207.454 205.017l-.481-.934-.959-.429c-7.907-3.542-20.681-10.322-35.169-22.05 2.439-6.855.655-12.462-1.06-15.738-1.585-3.025-3.132-13.735-3.735-19.774l-5.813-.703c-1.644 4.645-.65 13.854-.531 14.888l.024.209.053.204c.612 2.356 1.163 4.384 1.643 6.152 1.081 3.982 1.774 6.544 1.986 8.42-10.382-9.32-21.331-21.158-31.801-36.091 1.524-1.778 2.633-3.698 3.423-5.613 5.45-1.883 7.769-7.344 7.878-7.605l.139-.337.054-.361c.167-1.114 1.326-4.531 2.095-6.602l1.575-6.624-6.194 3.185c-1.285.969-2.388 2.979-2.803 3.797l-.132.261-.08.281c-.183.649-1.627 3.769-1.898 4.284-.049-.618 1.631-6.011-1.66-14.308l-1.834-6.266-3.901 5.67c-.999 2.477-.779 6.804-.688 8.071l.021.293.077.283c1.622 5.938.355 10.702-1.235 13.907-.555-.863-1.109-1.736-1.661-2.618l-.654-1.053c-6.042-9.773-11.827-20.68-17.131-32.851l-.065-.15-.081-.142c-.266-.463-6.619-11.439-17.462-20.073l-4.288 4.121c.144.196 13.771 18.902 26.132 44.864-1.345.472-3.202.929-5.367.93-2.778 0-5.497-.747-8.081-2.22l-.254-.145-.277-.093c-.608-.204-3.757-1.221-6.083-1.221-.327 0-.634.02-.915.057l-2.905 1.311 1.989 4.362c1.47.713 5.72 2.89 7.707 4.38l.317.238.368.147c.275.11 6.807 2.688 13.657 2.688h.001c1.622 0 3.135-.147 4.542-.433 4.108 8.454 8.406 16.153 12.809 23.211-3.919-1.19-8.206-3.191-12.829-6.001l-.251-.153-.276-.101c-.382-.14-9.431-3.428-15.108-3.428-.471 0-.921.021-1.337.065l-.556 5.857c.145.043 14.575 4.427 21.032 9.549l.153.122.168.1c.277.166 6.877 4.064 15.469 4.064h.001l.181-.004c24.064 34.389 50.089 50.87 65.849 60.841 1.5.949 2.915 1.844 4.238 2.697l3.599 2.32-1.973-4.841c-15.634-10.076-44.155-26.125-70.236-64.083-8.648.574-15.584-3.566-15.584-3.566-6.981-5.538-22.031-10.071-22.031-10.071 4.965-.515 15.105 3.196 15.105 3.196 8.692 5.282 15.46 7.32 20.643 7.674-6.033-9.068-11.914-19.342-17.451-31.019-7.718 2.914-18.7-1.471-18.7-1.471-2.654-1.989-8.197-4.678-8.197-4.678 1.841-.243 5.65 1.034 5.65 1.034 10.111 5.763 18.823.196 18.823.196l.119-.031c-12.955-27.965-27.724-48.12-27.724-48.12 10.518 8.375 16.727 19.217 16.727 19.217 6.777 15.55 14.327 29.066 22.204 40.806 2.281-2.807 6.89-10.042 4.121-20.18 0 0-.339-4.708.478-6.733 0 0 1.247 6.99 2.734 10.588 0 0 .483 3.225-.245 7.281 1.716-.63 5.498-2.548 6.91-7.559 0 0 1.066-2.103 1.934-2.758 0 0-1.961 5.276-2.25 7.201 0 0-2.213 5.332-7.384 6.239-.896 2.702-2.43 5.497-5.021 7.804 12.352 18.031 25.443 31.749 37.588 42.08 2.374-4.748.914-7.345-2.634-20.997 0 0-1.081-9.421.379-13.546 0 0 1.616 16.196 4.063 20.868 1.824 3.483 3.144 8.826.088 15.267 15.397 12.762 29.1 20.072 37.572 23.868l2.667-1.374z"/><g><path d="M220.637 682.354l-2.121-2.121 33.531-33.531v-22.999l-16.232-16.231 10.871-10.871v-57.609h3v58.851l-9.628 9.629 14.989 14.989v25.483zM216.754 688.421c-2.742 0-4.972-2.23-4.972-4.972 0-2.742 2.23-4.973 4.972-4.973s4.972 2.23 4.972 4.973c0 2.741-2.23 4.972-4.972 4.972zm0-6.944c-1.087 0-1.972.885-1.972 1.973 0 1.087.885 1.972 1.972 1.972s1.972-.885 1.972-1.972c0-1.089-.885-1.973-1.972-1.973zM258.421 688.421c-2.742 0-4.973-2.23-4.973-4.972 0-2.742 2.23-4.973 4.973-4.973 2.741 0 4.972 2.23 4.972 4.973 0 2.741-2.231 4.972-4.972 4.972zm0-6.944c-1.088 0-1.973.885-1.973 1.973 0 1.087.885 1.972 1.973 1.972 1.087 0 1.972-.885 1.972-1.972 0-1.089-.885-1.973-1.972-1.973zM255.62 682.231l-13.439-13.439v-11.416h3v10.174l12.56 12.56z"/></g><path d="M204.787 206.392c8.171 5.514 11.553 16.198 14.706 25.083 4.148 11.685 6.01 24.135 9.492 36.039 2.253 7.703 5.232 15.217 6.873 23.086 1.11 5.323 1.837 10.727 2.494 16.121 4.094 33.637 4.981 67.748 5.97 101.587 1.292 44.178 2.363 88.943 2.364 133.139 0 .716 2.898.223 2.898-.776 0-61.029-1.187-122.7-4.349-183.655-1.141-21.992-2.071-44.44-6.262-66.111-.657-3.398-1.543-6.693-2.637-9.974-3.945-11.836-7.414-23.842-10.125-36.022-1.733-7.783-3.924-15.208-7.092-22.552-2.747-6.368-6.214-14.268-12.147-18.271-.77-.52-3.46 1.032-2.826 1.459l.641.847zM205.051 229.888c7.819 9.798 17.598 17.236 22.135 29.354.249.665 2.692.242 2.491-.294-4.558-12.177-13.985-21.948-22.573-31.066-.601-.637-2.243 1.768-2.053 2.006z"/></g></svg>