<svg baseProfile="tiny" xmlns="http://www.w3.org/2000/svg" viewBox="0 0 500 700" height="700" width="500"><g fill="#0095B7"><path d="M228.492 381.838c-3.622-3.557-9.343-5.982-12.581-3.56-3.361 2.514-6.948 4.734-10.663 6.711.059 1.201.002 2.364-.152 3.48-.317 2.306-1.037 4.406-1.91 6.256.86.944 1.44 1.971 1.83 3.006 1.443 3.829.217 7.743.217 7.743-1.116 1.827-2.914 6.704-2.914 6.704-.269-1.165.318-3.69.318-3.69 1.437-3.194 1.302-6.032.755-8.161-.955 1.367-1.883 2.481-2.616 3.279-.039 1.105-.283 2.334-.875 3.65l-.12.268-.066.284c-.224.963-.703 3.381-.32 5.043l2.258 9.795 3.48-9.431c.657-1.78 1.96-5.032 2.661-6.179l.19-.312.11-.347c.094-.297 2.025-6.666-1.46-12.06l-.09.207c.925-2.3 1.6-4.899 1.712-7.748 3.377-1.884 6.533-3.915 9.451-6.097.336-.251.809-.379 1.405-.379 2.08 0 5.073 1.512 7.276 3.677l1.079 1.06 1.025-3.199zm-3.629-18.72s-.519-.372-1.613-.452c-1.094-.079-1.69.554-1.69.554-5.309 3.744-18.04 12.128-34.233 18.941-6.795-11.562-20.79-13.474-21.433-13.555l-.361-.045-.361.042c-.409.047-.896.071-1.447.071-4.692 0-11.877-1.682-11.949-1.698l-2.525 5.293c2.594 2.006 8.156 3.236 9.245 3.463l.289.06.294.003c10.845.098 17.122 6.054 19.905 9.604-11.317 4.016-23.841 6.914-36.475 6.914h-.004c-7.184 0-14.083-.939-20.505-2.788l-.282-.081-.293-.025c-.192-.017-4.776-.403-10.372-.403-7.515 0-13.117.694-16.651 2.061l1.002 5.797c.256.007 25.768.759 38.714 6.312l.539.23.585.012.957.007h.039c-1.56 4.522-5.103 10.74-13.145 14.627l-.264.128-.234.176c-.889.67-5.4 4.156-6.885 7.086l4.618 3.643c1.721-1.46 6.926-5.5 10.294-6.636l.346-.116.308-.196c.512-.326 10.947-7.122 13.247-18.975l-.083.004c6.031-.338 14.524-1.112 24.042-2.875 11.055-2.049 21.001-4.943 29.768-8.649-1.248 3.413-3.633 7.267-8.166 10.413l-.241.167-.204.211c-.684.706-4.139 4.369-5.049 7.171l4.909 3.112c1.611-1.515 6.407-5.767 9.219-7.236l.323-.169.273-.241c.188-.167 2.084-1.888 4.084-4.751-.396-1.544-1.005-2.713-1.401-3.358-2.19 3.662-4.669 5.86-4.669 5.86-3.793 1.982-9.884 7.709-9.884 7.709.742-2.283 4.351-6.01 4.351-6.01 6.343-4.402 8.99-10.038 10.069-14.481.327-1.345.511-2.578.608-3.637-22.337 10.966-48.579 13.378-60.579 13.889-.088 1.044-.247 2.052-.471 3.02-2.393 10.325-11.757 16.295-11.757 16.295-4.665 1.572-11.278 7.192-11.278 7.192 1.245-2.457 6.013-6.045 6.013-6.045 9.575-4.629 13.442-12.222 15.004-17.375l-.981.023.981-.023c.348-1.148.584-2.177.74-3.022-3.073.098-4.84.063-4.84.063-13.637-5.85-39.816-6.554-39.816-6.554 7.755-3 25.685-1.467 25.685-1.467 21.367 6.155 43.789 1.675 62.472-5.479-.089-.092-.176-.196-.258-.328 0 0-.474-.917-1.468-2.273-.891.337-1.793.666-2.7.989.908-.324 1.809-.652 2.7-.989-2.85-3.888-10.011-11.418-22.808-11.534 0 0-5.842-1.214-8.019-2.898 0 0 9.545 2.254 14.432 1.686 0 0 12.756 1.618 19.003 11.733.521.843.993 1.749 1.412 2.714 17.254-6.915 31.034-15.9 37.356-20.358l1.568-2.553zm-81.824 40.132l-.212.01.212-.01zm-5.475.176l.285-.005-.285.005zm68.202-7.141l.2-.425-.2.425z"/><g><path d="M76.241 678.549l-2.121-2.121 46.405-46.405v-16.258l53.278-53.278h39.225v-21.495h3v24.495h-40.983l-51.52 51.52v16.258zM97.683 635.234l-2.121-2.121 6.14-6.139v-25.957l27.047-27.047h32.186v3h-30.944l-25.289 25.289v25.957zM125 642.856l-2.121-2.121 24.806-24.805v-28.546h3v29.788zM120.921 649.532c-2.742 0-4.972-2.23-4.972-4.973 0-2.741 2.231-4.972 4.972-4.972s4.972 2.231 4.972 4.972c0 2.743-2.23 4.973-4.972 4.973zm0-6.944c-1.087 0-1.972.885-1.972 1.972 0 1.088.885 1.973 1.972 1.973s1.972-.885 1.972-1.973c0-1.087-.885-1.972-1.972-1.972zM72.738 684.713c-2.742 0-4.972-2.23-4.972-4.972 0-2.742 2.23-4.973 4.972-4.973 2.742 0 4.972 2.23 4.972 4.973 0 2.741-2.231 4.972-4.972 4.972zm0-6.944c-1.087 0-1.972.885-1.972 1.973 0 1.087.885 1.972 1.972 1.972s1.972-.885 1.972-1.972c0-1.089-.885-1.973-1.972-1.973zM93.814 641.894c-2.742 0-4.972-2.231-4.972-4.973 0-2.741 2.23-4.972 4.972-4.972s4.972 2.23 4.972 4.972c.001 2.742-2.23 4.973-4.972 4.973zm0-6.945c-1.087 0-1.972.885-1.972 1.972 0 1.088.885 1.973 1.972 1.973s1.972-.885 1.972-1.973c.001-1.087-.884-1.972-1.972-1.972zM72.515 667.588c-2.742 0-4.972-2.23-4.972-4.973 0-2.741 2.23-4.972 4.972-4.972s4.972 2.23 4.972 4.972c0 2.742-2.231 4.973-4.972 4.973zm0-6.944c-1.087 0-1.972.885-1.972 1.972 0 1.088.885 1.973 1.972 1.973 1.088 0 1.972-.885 1.972-1.973s-.885-1.972-1.972-1.972zM75.999 660.558l-2.121-2.121 9.126-9.127h18.677v3h-17.434z"/></g><path d="M225.071 382.293c4.393 4.199 5.051 13.328 5.778 19.038 1.101 8.644 2.057 17.423 2.608 26.119 1.148 18.124.37 36.673-2.682 54.576-2.272 13.33-5.982 26.391-10.414 39.153-1.454 4.187-3.023 8.332-4.579 12.482-.755 2.013-2.632 3.487-2.755 5.672-.074 1.322 2.911 1.679 2.972.583.111-1.969 1.771-4.078 2.445-5.896 1.624-4.379 3.281-8.744 4.828-13.151 4.858-13.833 8.625-28.025 10.97-42.502 2.752-16.985 3.027-34.538 2.111-51.694-.497-9.3-1.664-18.705-2.84-27.943-.702-5.511-1.538-13.583-5.767-17.626-.815-.78-3.557.346-2.675 1.189zM235 411.875c.057-13.047 2.373-26.237 2.163-39.249-.141-8.75-8.164-15.08-15.604-9.405-1.566 1.194.552 3.349 1.729 2.452 4.352-3.319 9.345-.729 10.621 4.067 1.013 3.809.239 8.495-.049 12.365-.743 9.953-.998 19.843-1.557 29.826-.093 1.658 2.697-.056 2.697-.056z"/></g></svg>