<svg baseProfile="tiny" xmlns="http://www.w3.org/2000/svg" viewBox="0 0 500 700" height="700" width="500"><g><path fill="#0095B7" d="M241.221 539.612c-.388-14.675-.496-29.386.036-44.058.4-11.018 2.223-21.76 3.806-32.655.953-6.564 1.923-13.465 1.115-20.091-.409-3.355-1.233-6.554-1.429-9.952-.245-4.25.317-8.573.771-12.791 1.532-14.234 1.008-28.494.758-42.78-.138-7.896-.472-16.015.586-23.862.824-6.111 2.658-12.017 3.191-18.179.888-10.261-6.612-17.231-11.239-25.636-3.34-6.068-6.359-12.35-9.117-18.704-.453-1.044-3.303-.156-2.898.776 2.59 5.966 5.45 11.823 8.502 17.565 2.139 4.025 4.443 7.977 7.093 11.689 4.121 5.771 5.316 10.509 4.448 17.618-.687 5.629-2.327 11.104-3.085 16.727-.919 6.818-.492 13.958-.408 20.822.197 16.123.499 31.965-1.119 48.027-.614 6.1-.426 11.896.777 17.909 1.489 7.443-.039 15.639-1.117 23.062-1.613 11.104-3.25 21.965-3.619 33.188-.461 14.019-.321 28.081.05 42.102.026.962 2.928.377 2.898-.777zM250.747 249.611c.879 2.05.993 3.886 1.044 6.098.062 2.72.968 5.324 1.444 7.987.447 2.501.32 4.684-.082 7.145-.932 5.705-2.297 11.353-3.604 16.981-1.207 5.199-2.47 10.385-3.755 15.564-.334 1.347-.914 2.979-.868 4.356.126 3.72 1.137 6.972.79 10.756-.158 1.723-.417 3.421-.685 5.103-.135.844 2.746.314 2.87-.465.568-3.556 1.128-7.143.66-10.787-.398-3.105-.786-5.856-.024-8.916 1.331-5.35 2.628-10.709 3.882-16.077 1.367-5.851 2.745-11.723 3.714-17.656.294-1.798.351-3.349.206-5.171-.216-2.721-1.071-5.326-1.553-7.998-.488-2.707-.018-5.079-1.142-7.697-.343-.802-3.172.135-2.897.777zM224.721 636.111h-3v-35.805l16.551-16.552v-44.762h3v46.004l-16.551 16.552zM211.199 673.144c-2.742 0-4.973-2.231-4.973-4.973 0-2.741 2.231-4.972 4.973-4.972s4.972 2.23 4.972 4.972c0 2.742-2.231 4.973-4.972 4.973zm0-6.945c-1.088 0-1.973.885-1.973 1.972 0 1.088.885 1.973 1.973 1.973 1.087 0 1.972-.885 1.972-1.973 0-1.087-.885-1.972-1.972-1.972zM223.699 643.977c-2.742 0-4.973-2.231-4.973-4.972 0-2.742 2.231-4.973 4.973-4.973s4.972 2.23 4.972 4.973c0 2.741-2.231 4.972-4.972 4.972zm0-6.945c-1.088 0-1.973.885-1.973 1.973 0 1.087.885 1.972 1.973 1.972 1.087 0 1.972-.885 1.972-1.972 0-1.088-.885-1.973-1.972-1.973zM213.821 666.771l-2.121-2.122 22.62-22.62v-20.019l-12.533-12.533 2.121-2.121 13.412 13.412v22.503z"/><g fill="#0095B7"><path d="M234.993 125.184l.117-.295.053-.312c.59-3.476 2.681-8.764 2.702-8.817l3.811-9.6-8.36 6.064c-2.159 1.566-4.274 5.35-4.871 6.472l-.138.259-.085.281c-2.241 7.411-7.355 10.81-10.633 12.282-.325-3.045-.648-6.075-.964-9.059-.796-7.505-1.576-14.853-2.353-21.896-.031-1.43-.371-11.573-3.93-19.921l-3.72-8.724-1.974 9.276c-.089.419-1.931 9.334-1.268 24.357l-.026-.555c-7.178-5.642-17.308-16.816-18.498-35.528l-.019-.293-.075-.284c-.302-1.141-3.056-11.27-6.679-15.461l-5.12 2.897c.047.144 4.734 14.541 4.228 22.799l-.022.363.065.358c.086.474.998 5.178 3.624 11.231l-.121-.27c-2.703-1.486-5.557-3.902-7.719-7.843l-.142-.257-.188-.226c-.815-.975-3.667-4.239-6.103-5.325l-9.442-4.211 5.722 8.611c.031.047 3.165 4.779 4.465 8.068l.117.295.176.264c.35.527 8.654 12.793 20.286 12.987l-.554-.751c3.826 5.163 8.997 10.137 15.96 13.581l.014-.155c-.536 5.817-1.426 16.697-2.022 30.325l.007-.164c-1.875-2.503-3.932-5.621-5.328-7.738-1.816-2.753-3.53-5.355-4.914-7.065l-.185-.229-.226-.188c-.975-.814-4.358-3.521-6.949-4.159l-6.639-1.635 3.292 5.993c.286.52 6.869 12.499 9.102 16.157.855 2.166 5.159 12.52 11.286 17.881l.005-.285c-.267 17.982.229 38.321 2.498 57.419 3.191 26.852 14.713 51.185 20.903 64.256 1.158 2.445 2.158 4.556 2.871 6.191l.249.57 1.882 4.315.62-6.084c-4.607-10.565-19.821-38.259-23.545-69.603-2.312-19.457-2.783-40.106-2.481-58.214-1.018-.743-1.997-1.682-2.927-2.737-5.09-5.775-8.664-15.052-8.664-15.052-2.054-3.31-9.169-16.26-9.169-16.26 2.119.522 5.743 3.548 5.743 3.548 3.108 3.845 8.351 13.014 12.392 17.424 1.071 1.169 2.058 2.004 2.898 2.315.625-18.454 1.91-32.958 2.469-38.664-.994-.43-1.951-.894-2.875-1.388l-.039.393.039-.393c-6.149-3.289-10.757-7.905-14.189-12.659-1.312.121-2.588.052-3.817-.174-9.001-1.658-15.497-11.42-15.497-11.42-1.431-3.621-4.757-8.626-4.757-8.626 1.992.888 5.024 4.511 5.024 4.511 3.428 6.248 8.368 9.177 12.314 10.552 1.548.539 2.941.841 4.03 1.008-5.082-8.673-6.546-16.658-6.546-16.658.547-8.927-4.371-23.918-4.371-23.918 3.275 3.789 6.049 14.268 6.049 14.268 1.382 21.735 14.066 33.862 21.703 39.252v-.004.004c1.2.847 2.271 1.527 3.158 2.052-1.466-18.202.859-29.143.859-29.143 3.567 8.365 3.693 18.936 3.693 18.936 1.219 11.044 2.446 22.844 3.732 34.826l.199-.092s1.09-.212 2.715-.864c3.762-1.508 10.41-5.382 13.173-14.521 0 0 2.218-4.171 3.983-5.452 0 0-2.22 5.584-2.871 9.423 0 0-4.691 11.774-13.832 14.752-.908.296-1.859.508-2.855.61l-.124-.254c2.422 22.396 5.075 45.244 8.316 64.896.854-.678 1.75-1.443 2.667-2.294-2.958-18.336-5.436-39.392-7.675-59.927 10.745-3.069 16.051-16.076 16.29-16.675zm-31.453-11.583l.034-.346-.034.346zm-.147 1.534l.012-.125-.012.125zm.083-.868l.026-.274-.026.274zm-16.43-12.265c-.493-.681-.971-1.364-1.42-2.047.449.683.925 1.367 1.42 2.047zm-5.531-9.464l.26.552-.26-.552zm21.898 13.702l.048.939-.048-.939zM229.938 221.179c-.696-3.284-1.367-6.742-2.016-10.338 4.74-3.822 8.77-9.021 11.897-15.44 3.816-7.834 4.97-14.697 5.018-14.985l.055-.338-.021-.342c-.456-7.008 3.506-19.345 3.546-19.469l-5.131-2.878c-3.166 3.688-5.528 12.498-5.787 13.491l-.075.284-.018.294c-.763 12.747-6.297 21.351-11.592 26.756.186 1.2.374 2.392.564 3.571 6.131-5.691 13.136-15.336 14.023-30.148 0 0 2.355-9.026 5.16-12.294 0 0-4.184 12.911-3.685 20.588 0 0-2.802 17.035-14.555 27.507-.843.751-1.734 1.466-2.673 2.141.753 4.263 1.535 8.355 2.354 12.221 3.857 18.198 24.096 28.153 24.096 28.153l2.276-1.517c-.189-.092-19.936-10.739-23.436-27.257z"/></g></g></svg>