<svg xmlns="http://www.w3.org/2000/svg" viewBox="0 0 500 700" enable-background="new 0 0 500 700"><path fill="#0095B7" d="M244.777 413.264c-1.531-8.835-2.881-18.496-6.139-26.876-2.593-6.669-5.838-12.625-7.77-19.618-.461-1.667-.899-3.356-1.299-5.06v-.002c.129-5.841 1.716-11.864 2.757-17.586 1.416-7.778 2.915-15.543 4.477-23.293 1.846-9.161 2.161-18.167 1.198-27.466-.842-8.138-2.186-15.81-9.391-20.489-.169-.11-.387-.156-.623-.16l-3.677-.191c-26.917-2.2-50.854-12.892-72.615-32.494 1.971-8.803-1.677-14.793-4.201-17.699-.618-.712-2.039-2.825-4.604-8.973l-5.512-2.416-1.345 7.65.534 1.009c1.14 2.152 2.143 3.999 3.018 5.609 1.485 2.732 2.531 4.675 3.229 6.189-2.153-2.244-4.287-4.57-6.398-7-4.933-5.677-10.848-11.049-17.855-16.189 2.472-8.633-2.662-17.351-2.912-17.767l-.188-.313-.258-.259c-2.193-2.203-5.909-6.87-5.946-6.917l-6.424-3.821 1.076 5.714c.021 2.368 1.635 5.778 2.13 6.767l.131.262.179.232c2.829 3.659 3.526 7.322 3.483 10.177-13.672-8.617-30.779-16.618-51.962-24.372l-2.531 5.415c.298.172 18.894 10.949 38.352 24.517-3.176 1.344-7.374 1.609-10.505 1.801-2.202.136-3.952.243-5.243.67-.646.185-3.965 1.155-6.006 2.134l1.447 5.701c.034-.001.831-.04 1.999-.04 3.245 0 5.954.289 7.432.793l.354.117.355.033s.525.048 1.429.048h.001c.396 0 .865-.013 1.368-.038-.771.774-1.805 1.498-3.197 1.987l-.276.097-.252.149c-.791.466-2.725 1.695-3.611 3.037l-2.042 3.639 5.585.828c1.923-.71 5.434-1.936 6.668-2.203l.592-.128.496-.347c.248-.174 5.538-3.959 6.815-9.807 1.487-.76 2.953-1.732 4.329-2.949 9.194 6.723 18.063 13.842 24.744 20.523 2.605 2.606 5.433 5.889 8.704 9.688-2.531-.462-5.549-.885-8.14-.885-1.224 0-2.266.09-3.183.275l.007 5.882c.149.03 14.945 3.02 21.85 7.493l.164.107.177.084c.055.026.449.21 1.111.468 12.958 13.656 31.369 29.699 60.293 42.835l.136.058c.634.258 15.553 6.69 17.271 37.849.02.353.015.782.012 1.237l-.025 8.136c.209 12.515 3.939 26.181 9.858 37.177 3.944 7.327 4.609 16.151 6.34 24.16 2.299 10.639 2.589 21.068 2.302 31.927-.25 9.452-.777 19.036-2.197 28.39-1.449 9.544-4.539 18.789-6.95 28.113-1.046 4.045-2.081 8.073-3.232 12.091-1.285 4.489-1.596 9.131-2.761 13.637-.919 3.555-3.129 6.483-4.905 9.613-1.168 2.058-1.399 4.437-1.477 6.77h-.087v29.994h-29.839l-15.429 15.428v24.34l-20.084 20.084c-.57-.228-1.187-.361-1.837-.361-2.742 0-4.972 2.23-4.972 4.973 0 2.741 2.23 4.972 4.972 4.972s4.972-2.23 4.972-4.972c0-.996-.301-1.92-.807-2.698l13.462-13.461v12.715l-21.228 21.229h-18.209l-21.007 21.007c-.596-.254-1.252-.395-1.94-.395-2.742 0-4.972 2.23-4.972 4.972 0 2.742 2.23 4.973 4.972 4.973s4.972-2.23 4.972-4.973c0-.959-.286-1.848-.758-2.609l19.975-19.975h18.21l12.16-12.161v8.116l-14.798 14.799c-.599-.256-1.257-.399-1.948-.399-2.742 0-4.972 2.231-4.972 4.972 0 2.742 2.23 4.973 4.972 4.973s4.972-2.23 4.972-4.973c0-.956-.284-1.842-.754-2.6l15.528-15.528v-12.358l7.825-7.826v-16.958l4.293-4.293v-24.34l13.671-13.67h31.597v-32.994h-.02c.089-2.606.363-5.045 1.697-7.397 1.444-2.545 2.937-4.935 4.098-7.639 1.823-4.243 1.801-9.171 2.894-13.624 1.135-4.621 2.541-9.178 3.694-13.799 2.192-8.788 4.949-17.406 6.642-26.316 1.873-9.861 2.175-20.176 2.505-30.187.298-8.934.356-17.948-1.173-26.771zm-16.905-60.987l-.313-14.701c-1.866-33.82-19.162-40.474-19.162-40.474-28.83-13.093-47.009-29.068-59.836-42.671-.965-.348-1.519-.609-1.519-.609-7.479-4.845-22.894-7.917-22.894-7.917 4.893-.988 15.341 1.736 15.341 1.736 1.668.806 3.261 1.51 4.784 2.124-6.489-7.23-11.516-13.537-15.979-18-7.323-7.323-17.154-15.114-27.177-22.347-2.033 2.382-4.497 3.923-6.924 4.916l.182-.039c-.318 5.521-5.811 9.367-5.811 9.367-1.903.411-7.075 2.322-7.075 2.322.599-.908 2.63-2.105 2.63-2.105 6.436-2.262 7.32-8.264 7.32-8.264.041-.177.223-.342.473-.493-4.394 1.26-8.129.939-8.129.939-3.685-1.256-10.55-.91-10.55-.91 1.969-.943 5.601-1.973 5.601-1.973 3.128-1.094 14.885.384 20.097-5.326-20.996-14.948-42.095-27.126-42.095-27.126 21.272 7.787 40.092 16.439 55.24 26.626.879-3.029 2.033-10.111-3.357-17.083 0 0-1.797-3.593-1.813-5.45 0 0 3.829 4.816 6.168 7.166 0 0 5.602 9.332 1.87 17.344 7.411 5.246 13.869 10.894 19.204 17.035 3.692 4.249 7.734 8.575 12.165 12.813 1.792-6.068-.023-7.625-7.097-20.983l.903-3.683c1.646 3.945 3.561 8.004 5.107 9.784 2.81 3.235 5.536 8.763 3.093 16.771 18.838 17.432 44.469 32.928 79.788 34.712l2.77 3.13c3.131 4.658 3.755 10.714 4.361 16.566.962 9.287.135 18.151-1.688 27.241-1.521 7.588-2.971 15.191-4.357 22.805-.399 2.216-.882 4.479-1.321 6.757zm-73.618 283.144c-1.087 0-1.972-.885-1.972-1.972 0-1.088.885-1.973 1.972-1.973s1.972.885 1.972 1.973c0 1.087-.885 1.972-1.972 1.972zm-44.757 43.369c-1.087 0-1.972-.885-1.972-1.973 0-1.087.885-1.972 1.972-1.972s1.972.885 1.972 1.972c0 1.088-.885 1.973-1.972 1.973zm37.813-7.258c-1.087 0-1.972-.885-1.972-1.973 0-1.087.885-1.972 1.972-1.972s1.972.885 1.972 1.972c0 1.089-.885 1.973-1.972 1.973z"/></svg>