<svg xmlns="http://www.w3.org/2000/svg" viewBox="0 0 500 700" enable-background="new 0 0 500 700"><g fill="#0095B7"><path d="M270.648 386.02c3.519-13.363 4.293-14.144 16.588-16.687 1.538-.331 3.259-.498 5.115-.498 1.541 0 3.155.122 4.819.328 1.817 2.606 4.138 4.734 6.583 6.448-.9 5.137 2.873 9.817 5.56 11.968.779.606 2.061 2.45 2.681 3.506l5.561-1.92c-.221-1.637-1.469-3.655-1.995-4.447l-.164-.248-.21-.211c-1.3-1.303-1.979-2.687-2.321-3.938 2.732 1.025 4.826 1.526 5.415 1.657 5.677 1.741 13.958 7.113 14.042 7.168l4.249-3.991c-1.009-1.784-1.832-3.161-2.647-4.277 6.97 2.738 13.572 5.268 19.614 6.967 1.857 9.014 8.988 10.775 9.255 10.835 3.388.877 8.79 4.474 10.586 5.785l4.34-3.971c-1.679-2.784-6.368-5.895-7.291-6.49l-.246-.158-.272-.108c-2.807-1.115-4.902-2.394-6.295-3.826 14.187 2.122 32.776 2.494 43.984 2.494 8.895 0 17.839-.249 19.141-.534l8.038-3.193-7.642-2.553c-2.559-.942-7.28-1.12-14.429-1.39-5.059-.19-11.128-.422-17.729-.991.611-2.166 1.849-4.735 4.383-6.13l.257-.141.225-.188c.759-.637 2.597-2.284 3.288-3.846l2.678-5.306-6.901 1.481c-1.016.576-3.975 2.2-5.448 2.787l-.281.112-.254.166c-.293.192-6.139 4.114-7.442 10.019-10.223-1.39-21.124-3.814-31.251-8.206 1.093.045 2.198.136 3.312.316l.288.047.292-.01c1.098-.036 6.72-.296 9.587-1.823l-1.689-5.635c-.022.002-2.34.215-5.154.215-2.988 0-5.37-.237-6.89-.686l-.357-.103-.359-.018-.597-.01c-1.588 0-5.602.173-10.163 1.629-17.2-8.389-66.621-17.301-73-18.428-.669-.351-4.731 0-5.448.798l4.344 2.644s.941-.427 2.634-.119c11.473 2.085 57.006 10.687 71.236 18.353 5.731-2.098 10.862-1.87 10.862-1.87 4.652 1.374 13.172.581 13.172.581-2.398 1.277-8.276 1.473-8.276 1.473-5.338-.866-9.892-.232-13.63 1.031 13.81 8.044 29.913 11.57 44.244 13.235l-.385-.305c-.655-6.048 6.318-10.621 6.318-10.621 1.987-.791 5.818-2.965 5.818-2.965-.485 1.094-2.472 2.762-2.472 2.762-5.201 2.862-6.256 8.994-6.472 11.436 16.778 1.707 30.644 1.04 34.655 2.518-1.783.39-45.119 1.686-67.5-2.953.249 3.376 2.463 7.465 10.204 10.539 0 0 4.943 3.187 6.348 5.517 0 0-6.907-5.052-11.605-6.268 0 0-6.411-1.504-7.325-10.324-.542-.133-1.072-.268-1.581-.41-14.804-4.109-34.074-13.813-50.375-17.626 3.792 3.281 9.127 7.153 14.898 9.036 11.085 3.619 11.085 3.619 14.798 10.18 0 0-8.754-5.707-14.925-7.56 0 0-4.359-.917-9.24-3.368-.321 1.485-.972 6.425 3.266 10.674 0 0 1.368 2.058 1.521 3.189 0 0-1.818-3.104-3.427-4.356 0 0-6.289-5.034-4.075-10.391l.223-.488c-3.177-1.917-6.303-4.51-8.364-7.949-4.485-.68-8.659-.772-12.333.019-13.57 2.806-15.089 4.54-18.858 18.855l2.896.766z"/><g><path d="M452.722 637.844l-84.079-84.079h-71.467v-14.773h3v11.773h69.709l84.958 84.958zM456.808 644.671c-2.742 0-4.973-2.23-4.973-4.972 0-2.742 2.23-4.973 4.973-4.973 2.741 0 4.972 2.23 4.972 4.973-.001 2.741-2.231 4.972-4.972 4.972zm0-6.944c-1.088 0-1.973.885-1.973 1.973 0 1.087.885 1.972 1.973 1.972 1.087 0 1.972-.885 1.972-1.972-.001-1.089-.885-1.973-1.972-1.973zM463.72 631.477c-2.741 0-4.972-2.23-4.972-4.972 0-2.742 2.23-4.973 4.972-4.973 2.742 0 4.973 2.23 4.973 4.973-.001 2.741-2.231 4.972-4.973 4.972zm0-6.945c-1.087 0-1.972.885-1.972 1.973 0 1.087.885 1.972 1.972 1.972 1.088 0 1.973-.885 1.973-1.972-.001-1.088-.885-1.973-1.973-1.973zM435.942 639.81c-2.742 0-4.973-2.23-4.973-4.972 0-2.742 2.23-4.973 4.973-4.973s4.973 2.23 4.973 4.973c0 2.741-2.23 4.972-4.973 4.972zm0-6.945c-1.088 0-1.973.885-1.973 1.973 0 1.087.885 1.972 1.973 1.972s1.973-.885 1.973-1.972c0-1.088-.885-1.973-1.973-1.973zM432.54 633.077l-21.263-21.262v-16.097h3v14.855l20.384 20.383zM460.382 625.697l-11.351-11.35h-18.491v-3h19.733l12.23 12.229z"/></g><path d="M267.768 384.907c-2.642 23.318-5.201 46.442-3.525 69.919 1.148 16.075 2.969 32.766 8.651 47.949 5.016 13.403 13.102 29.465 25.466 37.475.889.576 1.426-.841 1.816-1.256-12.831-8.312-20.34-25.64-25.308-39.517-5.143-14.368-6.58-30.312-7.727-45.426-1.767-23.291.947-45.128 3.568-68.257.145-1.288-2.817-1.981-2.941-.887zM264.049 350.788c-3.235 3.273-3.868 6.657-5.549 10.837-2.473 6.152-1.936 14.464-1.411 21.019 1.058 13.2 6.994 25.624 7.289 38.953.029 1.328 2.934.74 2.91-.316-.246-11.121-3.988-21.881-6.235-32.692-1.355-6.516-1.592-12.966-.427-19.534.987-5.563 3.428-14.187 7.124-15.388 5-1.625-.21-3.636-.958-2.879h-2.743z"/></g></svg>