<svg baseProfile="tiny" xmlns="http://www.w3.org/2000/svg" viewBox="0 0 500 700" height="700" width="500"><g fill="#0095B7"><g><path d="M410.974 684.949c-2.741 0-4.972-2.23-4.972-4.973 0-2.741 2.23-4.972 4.972-4.972 2.742 0 4.973 2.231 4.973 4.972-.001 2.743-2.231 4.973-4.973 4.973zm0-6.944c-1.087 0-1.972.885-1.972 1.972 0 1.088.885 1.973 1.972 1.973 1.088 0 1.973-.885 1.973-1.973-.001-1.087-.886-1.972-1.973-1.972zM397.085 655.782c-2.741 0-4.972-2.23-4.972-4.973 0-2.741 2.23-4.972 4.972-4.972 2.742 0 4.973 2.231 4.973 4.972 0 2.743-2.231 4.973-4.973 4.973zm0-6.944c-1.087 0-1.972.885-1.972 1.972 0 1.088.885 1.973 1.972 1.973 1.088 0 1.973-.885 1.973-1.973 0-1.087-.885-1.972-1.973-1.972zM393.787 649.174l-44.27-44.271v-16.89l-20.36-20.36h-48.811v-28.661h3v25.661h47.053l22.118 22.118v16.89l43.391 43.392zM407.177 678.578l-29.23-29.23v-16.593h3v15.351l28.351 28.351z"/></g><path d="M274.768 305.278l3.494.666c1.065-2.001 1.798-2.83 2.613-3.694 4.135-4.384 13.465-5.188 32.264-6.448l3.559-.24c5.726 9.009 16.81 10.393 17.308 10.45l.362.042.362-.046c1.258-.161 3.353-.246 6.057-.246 3.033 0 5.812.107 5.839.108l6.54-.627-4.612-4.763c-2.126-1.609-6.36-2.532-7.607-2.776l-.329-.056h-.292c-4.548 0-8.071-1.366-10.689-3.055 10.249-.861 22.927-2.201 37.384-4.642 10.219-1.725 21.456-2.599 33.401-2.599 4.121 0 8.377.104 12.679.312 3.335 8.954 12.143 13.111 12.545 13.296l.33.153.357.069c2.864.554 9.956 3.514 9.447 2.608l9.699 4.258-3.025-6.712c-1.52-2.196-5.254-4.393-6.362-5.015l-.257-.144-.279-.091c-5.13-1.674-8.294-4.716-10.225-7.571 24.865 2.247 43.417 7.009 43.614 7.061l1.81-5.712c-15.707-5.903-34.755-9.943-56.699-12.032 3.938-5.208 12.555-11.319 12.647-11.384l-2.38-5.38c-4.424.982-11.075 6.202-11.819 6.794l-.231.183-.511.598c.499-4.013 1.053-7.224 1.062-7.275l-1.28-5.904-3.867 3.341c-3.095 3.31-5.636 11.374-5.915 12.282l-.087.281-.03.292c-.209 2.019-.168 3.751.125 5.223-8.085-.484-16.603-.729-25.334-.729-2.016 0-4.06.013-6.12.039 1.545-1.368 3.319-2.524 5.312-3.459l.265-.125.236-.173c.776-.571 4.718-3.547 6.057-6.113l5.16-9.884-9.423 5.961c-2.033 1.286-7.959 4.833-10.931 5.798l-.347.113-.31.192c-.203.127-4.633 2.916-8.064 7.983-39.9 1.433-72.91 7.102-77.42 7.905l.026 3.043s35.335-6.564 79.082-8.004c3.163-5.399 7.96-8.379 7.96-8.379 3.98-1.293 11.607-6.117 11.607-6.117-1.086 2.078-5.174 5.084-5.174 5.084-5.221 2.451-8.475 5.951-10.51 9.299 12.517-.319 25.642-.2 38.77.623.939-.518 1.881-1.09 2.821-1.715-.679-1.083-1.145-2.961-.804-6.257 0 0 2.527-8.215 5.24-11.115 0 0-1.488 8.557-1.825 15.472 2.16-1.7 4.289-3.711 6.328-6.117 0 0 6.725-5.352 10.602-6.213 0 0-10.224 7.209-14.101 13.147 0 0-1.045.968-2.892 2.31l.003.215-.301.003-.812.563c22.102 1.647 44.018 5.368 62.828 12.438 0 0-21.332-5.543-49.435-7.58 1.321 3.714 4.994 10.79 14.361 13.846 0 0 4.119 2.309 5.361 4.105 0 0-9.259-4.066-13.085-4.806 0 0-9.286-4.287-11.559-13.46-15.327-.852-32.327-.567-48.821 2.217-17.12 2.89-31.747 4.245-43.981 5.147 2.485 3.144 8.15 8.523 17.83 8.507 0 0 4.636.908 6.375 2.224 0 0-8.531-.334-12.393.159 0 0-11.336-1.311-15.977-10.593-26.436 1.834-40.56 1.964-43.036 12.838"/><path d="M274.768 305.458c-5.706 10.645-9.846 21.051-12.56 32.832-2.927 12.705-4.233 25.921-5.592 38.867-2.618 24.94-2.747 51.346 1.909 76.079 2.732 14.512 6.731 28.885 10.418 43.175 3.601 13.956 8.628 29.149 11.62 43.258.282 1.329 3.07.676 2.783-.676-2.848-13.43-7.508-28.056-10.978-41.326-3.766-14.404-7.524-28.874-10.596-43.445-5.011-23.772-4.726-49.478-2.586-73.555 1.179-13.267 2.774-26.674 5.347-39.748 2.487-12.634 7.664-23.659 13.729-34.973.197-1.527-1.59-4.01-2.185-2.901l-1.309 2.413zM280.849 284.392c-10.068 4.858-14.631 13.453-18.224 23.656-5 14.202-3.418 29.392-2.422 41.406.036.429 2.956-.077 2.898-.776-.956-11.535-2.263-23.298.557-34.683 2.57-10.377 7.557-21.216 17.216-26.559 1.196-.661 1.853-2.074 1.376-1.81l-1.401-1.234z"/></g></svg>