<svg baseProfile="tiny" xmlns="http://www.w3.org/2000/svg" viewBox="0 0 500 700" height="700" width="500"><path fill="#0095B7" d="M374.455 179.936l-.253.148-.22.195c-11.683 10.347-24.029 12.519-32.331 12.519-2.375 0-4.543-.174-6.42-.418 10.306-8.809 17.746-15.776 20.73-21.83 1.389-2.815 3.708-7.76 6.905-14.719 2.143.845 4.433 1.271 6.843 1.271 4.421 0 7.648-1.445 8.002-1.61l.134-.062.128-.075c2.512-1.488 7.746-3.355 9.551-3.95l9.953-3.275-10.177-2.49c-.644-.158-1.386-.234-2.267-.234-2.555 0-5.688.677-5.819.705l-.287.063-.27.117c-2.906 1.264-5.741 1.904-8.424 1.905-1.392 0-2.624-.175-3.68-.427 7.136-15.663 14.899-33.008 14.982-33.192l-5.012-3.183c-12.813 14.887-23.759 37.796-24.213 38.752-7.691 16.001-19.286 26.824-34.241 37.319.977-11.491 3.775-20.173 7.911-24.271 9.574-9.486 7.076-17.471 5.734-21.761l-.024-.077.042.246-2.898.675c1.287 4.113 3.349 10.549-4.966 18.786-7.34 7.271-8.876 23.275-9.133 32.317 16.126-10.779 30.986-22.602 40.279-41.934 0 0 11.086-23.342 23.782-38.094 0 0-8.776 19.615-16.329 36.147 3.204 1.525 9.221 3.094 17.386-.456 0 0 4.614-1.007 6.733-.489 0 0-6.791 2.233-10.142 4.218 0 0-7.686 3.583-15.009-1.017-3.392 7.408-6.433 13.955-8.165 17.468-3.245 6.583-12.919 14.937-24.727 24.893 6.692 1.817 27.944 5.664 47.428-11.592 0 0 9.353-5.48 14.35-5.854 0 0-14.059 7.164-19.965 13.88 0 0-21.999 15.306-44.357 5.709-7.507 6.322-15.715 13.257-23.607 20.764 1.927 1.095 8.709 4.29 16.701.433 0 0 3.536-.933 5.216-.627 0 0-6.392 2.229-8.898 3.849 0 0-8.353 2.882-14.898-1.849-16.158 15.673-30.604 33.764-34.32 53.926l-.27 1.592c-.301 1.812-1.121 4.36-1.496 5.679l-3.661 9.376c-2.9 6.877-5.315 13.87-7.136 21.099l-.171.684c-2.45-7.41-2.834-15.997-3.94-23.44-.794-5.337-1.879-10.517-2-15.941-.178-7.978.763-13.838 3.732-21.207l.79-1.6 1.654-2.813c14.52-23.803 35.705-36.294 55.7-49.289-.527-4.051-.1-8.447.879-12.775-5.013-4.526-5.429-11.598-5.429-11.598.539-2.935.156-9.694.156-9.694.925 1.436 1.414 5.06 1.414 5.06-.367 6.371 2.395 10.758 4.626 13.233 3.259-11.485 9.806-21.766 11.784-22.727 6.461-5.165 6.534-12.245 5.973-16.108l-2.893.674-.076-.25c.565 3.862.168 9.207-4.728 13.22-3.164 2.039-7.764 10.311-10.842 18.197-.618-1.71-.984-3.73-.85-6.067l.017-.288-.038-.285c-.136-1.006-.671-4.431-1.864-6.284l-3.549-5.509-1.968 7.303c.14 2.475.233 7.102-.112 8.983l-.064.356.021.361c.018.312.477 7.172 5.156 12.386-.717 3.688-.975 7.133-.771 10.285-.998.646-1.999 1.292-3.001 1.938-18.95 12.225-38.514 24.846-52.298 47.639l-2.019 3.49c-4.389 11.893-4.636 25.61-2.604 38.086 1.557 9.558 1.62 20.857 5.965 29.678l.05.1-.118.429c-2.897 14.043-3.852 28.301-3.933 42.631-.198 34.879 1.633 69.804 3.371 104.629 1.267 25.392 2.423 49.558 3.898 74.938v72.382l16.83 16.83v37.811l18.21 18.21c-.506.778-.806 1.702-.806 2.697 0 2.742 2.23 4.973 4.973 4.973 2.741 0 4.972-2.23 4.972-4.973 0-2.741-2.23-4.972-4.972-4.972-.65 0-1.268.134-1.838.362l-17.538-17.538v-33.568l19.504 19.504c-.582.814-.934 1.804-.934 2.88 0 2.741 2.23 4.972 4.972 4.972 2.742 0 4.973-2.231 4.973-4.972 0-2.742-2.23-4.973-4.973-4.973-.563 0-1.096.115-1.601.288l-38.771-38.771v-71.14c-3.191-54.904-6.422-109.407-7.273-164.41-.27-17.44-.134-34.615 2.646-51.881 1.707-10.607 4.497-20.944 8.531-30.9l3.312-7.145s2.808-6.781 3.122-9.753l.235-1.4c2.903-16.054 13.068-32.29 31.83-50.835 2.531 1.293 5.409 1.946 8.588 1.946 3.751 0 6.547-.928 6.853-1.034l.344-.119.306-.197c1.603-1.036 5.917-2.719 8.259-3.536l10.733-3.746-11.184-2.038c-.407-.074-.847-.11-1.344-.11-2.128 0-4.87.707-5.176.788l-.278.074-.26.126c-2.135 1.03-4.355 1.552-6.596 1.553-1.193 0-2.291-.146-3.26-.361 6.439-5.933 13.01-11.505 18.618-16.23 4.767 1.796 9.837 2.706 15.1 2.706 16.703 0 29.865-9.025 30.418-9.409l.299-.208.24-.273c5.454-6.202 18.939-13.12 19.075-13.188l-1.587-5.665c-5.533.41-14.626 5.656-15.645 6.253zm-79.704 504.948c1.087 0 1.972.885 1.972 1.972 0 1.088-.885 1.973-1.972 1.973-1.088 0-1.973-.885-1.973-1.973.001-1.087.885-1.972 1.973-1.972zm4.166-33.334c1.088 0 1.973.885 1.973 1.973 0 1.087-.885 1.972-1.973 1.972-1.087 0-1.972-.885-1.972-1.972 0-1.088.885-1.973 1.972-1.973z"/></svg>