<svg xmlns="http://www.w3.org/2000/svg" viewBox="0 0 500 700" enable-background="new 0 0 500 700"><path fill="#0095B7" d="M461.74 331.945l3.116-5.106c-16.123-11.665-33.123-17.098-53.501-17.098-7.12 0-14.187.673-20.525 1.528l.614-.294.266-.122.238-.171c.897-.646 3.909-2.916 5.027-5.003l4.116-7.685-7.974 3.525c-.055.024-5.512 2.432-8.478 3.364l-.35.11-.314.191c-.229.14-5.278 3.26-8.496 8.583-2.891.527-5.795 1.076-8.716 1.628-3.184.602-6.386 1.208-9.611 1.791-6.756 1.223-13.262 1.818-19.89 1.818-6.948 0-13.373-.651-19.587-1.28-6.364-.645-12.946-1.312-20.206-1.312-10.067 0-19.786 1.273-30.587 4.006l-2.635 1.332c-7.801 6.081-8.996 18.94-10.728 28.776-1.235 7.01.326 14.461 1.06 21.477.695 6.64.914 13.949 3.076 20.321-1.619 14.226-2.244 28.561-1.714 42.872.676 18.24 3.614 36.367 8.913 53.835 2.833 9.338 6.516 18.401 10.79 27.167 2.366 4.852 5.02 9.557 7.811 14.174 1.82 3.011 4.289 5.883 5.302 9.297v21.039h61.822l19.03 19.031v23.684l42.401 42.4v11.455c-1.884.708-3.235 2.513-3.235 4.641 0 2.742 2.23 4.973 4.973 4.973 2.741 0 4.972-2.231 4.972-4.973 0-2.302-1.581-4.226-3.709-4.789v-12.55l-23.711-23.711h10.206l38.534 38.534c-.439.741-.708 1.594-.708 2.516 0 2.742 2.23 4.973 4.973 4.973 2.741 0 4.972-2.231 4.972-4.973 0-2.741-2.23-4.972-4.972-4.972-.726 0-1.411.165-2.033.445l-39.523-39.523h-14.448l-15.69-15.69v-19.439l15.019 15.02c-.663.845-1.075 1.895-1.075 3.05 0 2.742 2.23 4.973 4.972 4.973 2.742 0 4.973-2.23 4.973-4.973 0-2.741-2.231-4.972-4.973-4.972-.475 0-.927.088-1.362.214l-38.342-38.343h-60.065v-18.168c.031-.086.045-.173.022-.263l-.022-.07v-.217h-.067c-.706-2.437-2.209-4.509-3.582-6.619-2.896-4.452-5.498-9.083-7.965-13.783-4.563-8.694-8.274-17.817-11.373-27.126-5.795-17.408-8.761-35.672-9.79-53.957-.955-16.974.056-34.019 2.2-50.867 1.867-14.672 2.205-18.324 8.586-31.806l1.222-1.459c2.367-5.459 4.603-10.616 12.121-14.477 4.369-2.244 15.136-2.431 24.884-2.431 1.76 0 3.561.007 5.395.014 3.969 3.395 8.287 4.369 11.309 4.571 3.407.227 13.35 4.497 18.816 7.135l3.634-4.592c-2.395-2.951-7.923-5.981-10.76-7.414 2.248-.107 4.503-.249 6.727-.436 7.079 4.466 14.473 4.799 14.788 4.811l.195.008.195-.018c.633-.058 1.336-.088 2.091-.088 8.398 0 20.616 3.562 20.738 3.598l2.738-5.207c-4.29-3.483-14.461-5.914-15.606-6.18l-.286-.066-.294-.01c-1.715-.056-3.361-.162-4.936-.318 1.112-.349 2.179-.721 3.203-1.118 4.118-1.596 8.36-3.005 12.616-4.191.622-.044 1.131-.208 1.541-.418 5.38-1.429 10.859-2.519 16.324-3.247 1.613 2.473 3.74 4.537 6.35 6.159.77 5.952 5.759 10.174 5.991 10.368l.465.387.579.177c1.207.369 4.604 1.884 6.461 2.753l8.291 3.879-4.387-8.034c-.771-1.412-2.596-2.798-3.345-3.328l-.238-.169-.268-.12c-1.344-.603-2.317-1.409-3.021-2.243 1.532.207 2.568.219 2.78.219h.369l.358-.089c.614-.154 1.771-.337 3.784-.337 2.854 0 5.649.37 5.678.374l1.917-5.561c-1.952-1.144-5.177-2.388-5.806-2.626-1.25-.533-2.983-.787-5.165-1.107-2.421-.354-5.5-.806-8.188-1.754 1.461-.05 2.922-.075 4.377-.075 28.646-.001 48.146 9.676 48.336 9.772zm-47.988 328.004c1.087 0 1.972.885 1.972 1.972 0 1.088-.885 1.973-1.972 1.973-1.088 0-1.973-.885-1.973-1.973 0-1.087.885-1.972 1.973-1.972zm30.556 0c1.087 0 1.972.885 1.972 1.972 0 1.088-.885 1.973-1.972 1.973-1.088 0-1.973-.885-1.973-1.973 0-1.087.885-1.972 1.973-1.972zm-52.779-61.111c1.088 0 1.973.885 1.973 1.972 0 1.088-.885 1.973-1.973 1.973-1.087 0-1.972-.885-1.972-1.973.001-1.087.885-1.972 1.972-1.972zm29.729-270.95s3.534 1.33 5.417 2.434c0 0-6.812-.918-10.589.025 0 0-3.749.007-8.022-1.615.237.171.404.35.43.53 0 0 .38 6.054 6.604 8.846 0 0 1.924 1.362 2.445 2.317 0 0-4.994-2.337-6.857-2.905 0 0-5.152-4.292-5.007-9.82l.178.055c-2.78-1.419-5.552-3.613-7.478-7.015l-.102-.694c-6.191.715-12.677 1.912-19.393 3.72-.168.169-.445.223-.767.208-4.332 1.194-8.756 2.64-13.258 4.384-4.668 1.809-10.098 2.987-15.916 3.752 4.398 1.853 10.41 3.211 18.636 3.48 0 0 10.518 2.439 14.393 5.586 0 0-15.079-4.438-23.952-3.62 0 0-6.977-.269-13.522-4.491-.201-.129-.363-.269-.509-.411-8.144.748-16.808.853-25.083.842 2.779 1.259 7.025 2.305 14.557 4.593 0 0 8.6 3.995 11.357 7.393 0 0-14.658-7.075-19.921-7.427-3.065-.205-6.937-1.272-10.344-4.572-14.462-.059-27.15-.164-32.812 2.743-5.207 2.674-8.18 5.941-10.272 9.381l-5.056 8.974c-5.969 12.612-5.952 15.602-7.735 29.498-1.497-8.343-1.475-17.245-2.566-25.442-1.021-7.669 1.744-15.585 3.257-23.064 0 0 1.828-8.933 9.27-12.504 39.141-9.62 53.411 3.518 89.047-2.934 6.663-1.207 13.229-2.504 19.723-3.672 2.76-5.447 8.129-8.721 8.129-8.721 3.163-.995 8.791-3.482 8.791-3.482-.876 1.637-4.137 3.985-4.137 3.985-4.25 1.947-6.881 4.778-8.511 7.469 27.738-4.718 54.237-6.11 81.414 13.554 0 0-25.589-12.984-62.164-9.506 4.061 7.325 17.124 6.696 20.325 8.126z"/></svg>