<svg baseProfile="tiny" xmlns="http://www.w3.org/2000/svg" viewBox="0 0 45 52" height="52" width="45"><path fill="#0195B6" d="M18.401 52c-4.871 0-10.162-1.858-15.724-5.521l-1.569-1.032-.478-1.815c-.112-.436-2.726-10.749 3.596-19.589 4.813-6.731 13.187-10.565 24.89-11.394l.34-.012c.024-.005 3.106-.184 6.246-3.328l9.298-9.309-.952 13.131c-.117 1.588-3.082 38.869-25.647 38.869z"/><linearGradient id="a" gradientUnits="userSpaceOnUse" x1="17.349" y1="23.603" x2="31.875" y2="34.39"><stop offset="0" stop-color="#7BA22E"/><stop offset="1" stop-color="#416F21"/></linearGradient><path fill="url(#a)" d="M5.493 42.708s-6.097-23.162 24.602-25.337c0 0 5.054-.007 9.905-4.857 0 0-3.664 50.478-34.507 30.194z"/><path fill="#47642E" d="M5.493 42.708s22.539-7.966 30.909-26.13c0 0-6.848 20.352-30.909 26.13z"/></svg>