<svg xmlns="http://www.w3.org/2000/svg" viewBox="0 0 500 700" enable-background="new 0 0 500 700"><g fill="#0095B7"><path d="M266.049 231.531s-6.451-27.177 14.136-84.636c-9.807-6.76-10.962-19.552-10.962-19.552.756-4.941-1.23-13.535-1.23-13.535 1.636 2.273 2.813 8.249 2.813 8.249-.307 11.436 6.292 17.663 10.922 20.613 4.778-12.848 10.884-27.142 18.657-42.909.957-5.625-.768-11.018-.955-19.319-.036-.253-.049-.476-.017-.634 0 0-4.723-30.354-16.018-50.716 5.007 3.956 12.52 21.324 16.671 36.567 1.054-4.498 3.497-10.233 8.918-16.204 0 0-10.284 11.969-4.86 29.214 0 0 1.369 5.186 1.05 12.34 8.88-15.006 35.045-57.123 51.788-62.122 0 0-20.259 18.572-36.562 44.063 5.416-2.233 10.692-1.717 10.692-1.717 3.672 1.296 10.543 1.026 10.543 1.026-1.981.923-6.705 1.994-6.705 1.994-9.398-2.046-16.045 3.107-19.162 6.341-4.018 7.02-7.598 14.438-10.306 22.044 4.143.818 11.206 1.014 18.185-4.362 0 0 4.229-2.1 6.412-2.114 0 0-6.323 4.018-9.091 6.761 0 0-8.378 6.737-17.025 4.263-12.962 40.515-27.063 93.761-20.36 111.797l2.28-2.747c-3.845-14.747 3.405-52.848 20.131-105.606.634.068 1.275.103 1.923.103 8.034 0 14.652-5.248 14.93-5.471l.121-.098.11-.109c2.078-2.059 6.904-5.289 8.589-6.36l8.803-5.597-10.431.065c-2.67.017-6.59 1.862-7.728 2.427l-.264.131-.233.18c-3.595 2.769-7.605 4.173-11.921 4.173l-.265-.002c2.263-5.724 5.13-11.646 8.552-17.654 2.211-2.218 6.578-5.632 12.505-5.632 1.18 0 2.392.134 3.605.398l.651.142.649-.147c.516-.117 5.1-1.172 7.308-2.2l-1.383-5.717c-.027.001-.572.021-1.413.021-3.512 0-6.434-.32-8.014-.878l-.344-.121-.363-.036c-.069-.007-.701-.065-1.71-.065-.668 0-1.546.026-2.569.12 15.002-21.617 31.702-37.037 31.885-37.204l-2.886-5.086c-15.077 4.501-36.309 35.536-48.452 55.118-.295-1.949-.6-3.123-.627-3.227l-.039-.134c-4.828-15.353 3.908-25.925 4.274-26.359l-4.497-3.972c-2.6 2.864-4.729 5.86-6.374 8.965-4.3-12.886-10.355-25.889-15.133-29.665l-4.483 3.809c10.272 18.522 15.067 46.047 15.622 49.389-.004.227.009.467.039.729.086 3.461.426 6.428.727 9.049.405 3.533.729 6.358.331 9.13-6.588 13.39-12.349 26.495-17.156 39.022-3.547-3.183-6.735-8.163-6.531-15.729l.009-.333-.065-.327c-.218-1.105-1.4-6.752-3.32-9.421l-5.358 2.427c.516 2.234 1.735 8.819 1.187 12.406l-.055.36.032.363c.05.544 1.248 12.678 10.393 20.339-17.299 49.201-14.863 75.955-13.805 82.632l.167 5.208 3.062-4.261z"/><g><path d="M330.419 664.115c-2.742 0-4.973-2.23-4.973-4.972 0-2.742 2.23-4.973 4.973-4.973 2.741 0 4.972 2.231 4.972 4.973s-2.231 4.972-4.972 4.972zm0-6.944c-1.088 0-1.973.885-1.973 1.973 0 1.087.885 1.972 1.973 1.972 1.087 0 1.972-.885 1.972-1.972 0-1.088-.885-1.973-1.972-1.973zM318.505 680.782c-2.742 0-4.973-2.23-4.973-4.973 0-2.741 2.23-4.972 4.973-4.972 2.742 0 4.973 2.231 4.973 4.972-.001 2.743-2.231 4.973-4.973 4.973zm0-6.944c-1.088 0-1.973.885-1.973 1.972 0 1.088.885 1.973 1.973 1.973s1.973-.885 1.973-1.973c-.001-1.087-.885-1.972-1.973-1.972zM320.005 673.032h-3v-27.835l-53.488-53.488v-52.717h3v51.475l53.488 53.488zM332.116 655.707h-3v-31.582l-19.737-19.737h-33.007v-3h34.249l21.495 21.495z"/></g><path d="M282.989 216.951c.768 7.526-3.332 14.034-7.192 20.142-4.234 6.7-8.046 13.483-11.453 20.644-4.123 8.666-3.309 5.309-6.295 14.282-2.658 15.745-6.833 43.045-7.154 59.029-.697 34.753 1.437 69.687 3.427 104.372.858 14.963 2.392 29.865 3.729 44.792 1.14 12.734 2.26 25.47 3.314 38.212.651 7.86 2.206 15.87 2.261 23.764.01 1.413 2.9-.588 2.892-1.75-.087-12.631-2.335-23.968-3.417-36.538-1.428-16.601-2.924-33.196-4.449-49.788-2.517-27.392-3.402-54.997-4.286-82.48-.707-21.995-1.143-43.812 1.367-65.699.792-6.903 1.695-13.794 2.767-20.66.869-5.567 1.595-11.544 3.684-16.817 3.85-9.721 8.927-19.421 14.509-28.248 4.645-7.344 10.124-14.913 9.194-24.034-.122-1.191-3.03-.509-2.898.777zM262.926 233.076c.227 13.017-1.205 26.43-4.878 38.943-.32 1.091 2.603.681 2.903-.341 3.718-12.668 5.327-26.973 5.098-40.147-.017-.976-3.143.376-3.123 1.545z"/></g></svg>