<svg baseProfile="tiny" xmlns="http://www.w3.org/2000/svg" viewBox="0 0 500 700" height="700" width="500"><g fill="#0095B7"><g><path d="M186.67 668.889l-2.121-2.121 11.616-11.616v-49.47l33.692-33.694v-32.996h3v34.239l-33.692 33.693v49.47zM183.453 674.5c-2.742 0-4.972-2.231-4.972-4.972 0-2.742 2.23-4.973 4.972-4.973s4.972 2.23 4.972 4.973c0 2.741-2.231 4.972-4.972 4.972zm0-6.944c-1.087 0-1.972.885-1.972 1.973 0 1.087.885 1.972 1.972 1.972s1.972-.885 1.972-1.972c0-1.089-.885-1.973-1.972-1.973zM196.819 631.52l2.121 2.121-10.148 10.148-2.121-2.121zM184.842 650.889c-2.742 0-4.972-2.23-4.972-4.972 0-2.742 2.23-4.973 4.972-4.973s4.972 2.231 4.972 4.973c0 2.741-2.231 4.972-4.972 4.972zm0-6.945c-1.087 0-1.972.885-1.972 1.973 0 1.087.885 1.972 1.972 1.972s1.972-.885 1.972-1.972c0-1.088-.885-1.973-1.972-1.973z"/></g><path d="M221.648 310.704c-2.823-12.238-31.244-22.561-61.019-29.763-4.87 7.229-14.659 5.842-14.659 5.842-3.875-.378-12.392.211-12.392.211 1.699-1.367 6.306-2.414 6.306-2.414 9.466.028 14.294-2.432 16.709-4.597-15.689-3.636-31.436-6.393-43.732-8.098-3.925 6.948-11.7 9.6-11.7 9.6-3.881.34-13.512 3.426-13.512 3.426 1.422-1.658 5.757-3.528 5.757-3.528 7.926-1.704 12.3-6.514 14.547-10.147-5.338-.668-9.798-1.096-12.989-1.262-7.536-.391-16.802-1.052-26.051-1.782-2.643.195-12.373 1.618-17.878 11.983 0 0-6.472 3.664-8.456 4.579 0 0 4.647-5.068 6.031-8.708 0 0 4.507-6.509 12.007-8.526-18.085-1.501-34.021-3.04-34.021-3.04 10.038-1.581 19.978-2.576 29.717-3.108-1.157-1.124-1.786-1.842-1.786-1.842-4.088-7.954-15.972-18.332-15.972-18.332 4.75 1.586 12.488 9.177 12.488 9.177 2.993 4.381 6.274 7.917 9.657 10.788 18.991-.77 37.134.199 53.612 2.069-3.539-3.388-8.732-6.631-16.117-7.657 0 0-5.728-1.982-7.701-3.969 0 0 10.408 2.805 15.406 2.871 0 0 8.852 2.312 14.655 9.516 44.29 5.761 75.077 17.538 75.077 17.538l.719-2.934c-3.54-1.306-33.092-11.889-74.228-17.398-6.311-7.162-15.052-9.517-15.468-9.625l-.353-.092-.364-.004c-3.786-.05-11.87-2.015-14.666-2.768l-10.77-2.901 7.862 7.913c2.345 2.36 7.782 4.32 8.848 4.689l.277.096.291.04c.61.085 1.199.19 1.775.307-8.273-.609-16.854-.962-25.656-.962-4.072 0-8.122.076-12.142.225-3.048-2.721-5.81-5.88-8.238-9.434l-.166-.243-.21-.206c-.843-.827-8.384-8.127-13.64-9.881l-2.923 5.105c.104.09 9.43 8.28 14.004 15.278-8.329.604-16.504 1.527-24.455 2.78l.178 5.95c.213.021 10.686 1.029 24.211 2.204-2.711 2.308-4.242 4.477-4.375 4.67l-.208.3-.129.341c-.963 2.534-4.252 6.452-5.438 7.747l3.469 4.75c2.039-.94 8.004-4.311 8.678-4.692l.761-.431.41-.772c4.688-8.826 12.799-10.177 15.212-10.384 9.222.727 18.439 1.384 25.913 1.772 1.949.101 4.46.312 7.406.624-2.177 2.05-5.225 3.949-9.44 4.856l-.288.062-.27.116c-1.166.503-5.108 2.302-6.846 4.33l-6.895 8.04 10.087-3.231c2.591-.83 9.952-3.039 12.858-3.294l.361-.032.344-.117c.405-.138 7.652-2.683 12.239-9.194 9.477 1.358 20.914 3.321 32.783 5.833-1.935.378-4.275.616-7.108.616l-.49-.001-.332.075c-1.24.282-5.445 1.33-7.522 3.002l-7.436 5.987 9.525-.658c.048-.003 4.829-.33 8.727-.33 1.31 0 2.359.036 3.12.108.27.034 1.109.126 2.293.126h.001c3.032 0 9.453-.659 13.868-5.58.864.213 1.727.429 2.588.648 32.205 8.181 51.975 17.707 54.293 26.154.167.951 2.423 1.52 1.325 1.52l.25-.57m1.396-1.357"/><path d="M218.551 310.598c4.096 9.932 7.29 20.242 10.526 30.478 3.165 10.012 6.769 20.067 9.266 30.269 3.516 14.369 1.248 29.514 1.196 44.113-.016 4.44-.361 8.89-.64 13.319-2.007 31.834-4.842 63.625-7.569 95.404-.428 4.984-.857 9.968-1.294 14.952-.12 1.372 2.817.886 2.92-.281 2.199-25.083 4.31-50.174 6.291-75.275 1.125-14.253 2.298-28.516 3.016-42.797.429-8.53.526-17.087.791-25.624.395-12.72-1.519-24.165-5.292-36.261-5.12-16.418-9.75-33.156-16.314-49.073-.486-1.181-3.354-.332-2.897.776zM194.137 280.876c11.322 4.603 20.788 10.278 27.781 20.534 7.799 11.435 7.734 23.271 7.925 39.527.01.862 2.417 2.533 2.453 1.38.569-18.335.557-29.482-7.705-42.108-6.971-10.653-16.705-16.921-28.241-21.611-1.049-.427-3.867 1.605-2.213 2.278z"/></g></svg>