<svg xmlns="http://www.w3.org/2000/svg" viewBox="0 0 60 154" enable-background="new 0 0 60 154"><g><path fill="#fff" d="M23.125 50.823l.32 6.031c.202 3.619.36 8.443.555 13.268.083 2.412.279 4.825.302 7.086-.005 2.262-.133 4.373-.302 6.182-.314 3.619-.875 6.031-.875 6.031h-.25s-.561-2.412-.875-6.031c-.169-1.809-.297-3.92-.302-6.182.023-2.262.219-4.674.302-7.086.195-4.825.353-9.649.555-13.268l.32-6.031h.25zM53.125 91.823l.32 5.562c.202 3.337.36 7.787.555 12.237.083 2.225.279 4.45.302 6.536-.005 2.086-.133 4.033-.302 5.701-.314 3.337-.875 5.562-.875 5.562h-.25s-.561-2.225-.875-5.562c-.169-1.669-.297-3.615-.302-5.701.023-2.086.219-4.311.302-6.536.195-4.45.353-8.899.555-12.237l.32-5.562h.25zM37.125 40.823l.32 5.406c.202 3.244.36 7.568.555 11.893.083 2.162.279 4.325.302 6.352-.005 2.027-.133 3.919-.302 5.541-.314 3.244-.875 5.406-.875 5.406h-.25s-.561-2.162-.875-5.406c-.169-1.622-.297-3.514-.302-5.541.023-2.027.219-4.19.302-6.352.195-4.325.353-8.649.555-11.893l.32-5.406h.25zM31.1 76.823l.256 5.25c.162 3.15.288 7.35.444 11.549.067 2.1.223 4.2.242 6.168-.004 1.969-.107 3.806-.242 5.381-.251 3.15-.7 5.25-.7 5.25h-.2s-.449-2.1-.7-5.25c-.135-1.575-.238-3.412-.242-5.381.019-1.969.175-4.069.242-6.168.156-4.2.282-8.399.444-11.549l.256-5.25h.2zM11.1 119.823l.256 5.25c.162 3.15.288 7.35.444 11.549.067 2.1.223 4.2.242 6.168-.004 1.969-.107 3.806-.242 5.381-.251 3.15-.7 5.25-.7 5.25h-.2s-.449-2.1-.7-5.25c-.135-1.575-.238-3.412-.242-5.381.019-1.969.175-4.069.242-6.168.156-4.2.282-8.399.444-11.549l.256-5.25h.2z" opacity=".5"/><path fill="#fff" d="M45.1 50.823l.25 7.593c.171 4.556.293 10.631.45 16.706.073 3.037.213 6.075.242 8.922-.004 2.848-.107 5.505-.242 7.783-.256 4.556-.7 7.593-.7 7.593h-.2s-.444-3.037-.7-7.593c-.135-2.278-.238-4.936-.242-7.783.029-2.848.169-5.885.242-8.922.157-6.075.279-12.149.45-16.706l.25-7.593h.2zM17.1 4.5l.25 6.031c.171 3.619.293 8.443.45 13.268.073 2.412.213 4.825.242 7.086-.004 2.262-.107 4.372-.242 6.182-.256 3.619-.7 6.031-.7 6.031h-.2s-.444-2.412-.7-6.031c-.135-1.809-.238-3.92-.242-6.182.029-2.262.169-4.674.242-7.086.157-4.825.279-9.649.45-13.268l.25-6.031h.2zM1.1 42.823l.25 5.718c.171 3.431.293 8.006.45 12.581.073 2.287.213 4.575.242 6.719-.004 2.144-.107 4.146-.242 5.861-.256 3.431-.7 5.718-.7 5.718h-.2s-.444-2.287-.7-5.718c-.135-1.716-.238-3.717-.242-5.861.029-2.144.169-4.432.242-6.719.157-4.575.279-9.149.45-12.581l.25-5.718h.2z" opacity=".35"/><path fill="#fff" d="M4.1 90.823l.25 6.031c.171 3.619.293 8.443.45 13.268.073 2.412.213 4.825.242 7.086-.004 2.262-.107 4.372-.242 6.182-.256 3.619-.7 6.031-.7 6.031h-.2s-.444-2.412-.7-6.031c-.135-1.809-.238-3.92-.242-6.182.029-2.262.169-4.674.242-7.086.157-4.825.279-9.649.45-13.268l.25-6.031h.2zM21.125 94.823l.32 7.593c.202 4.556.36 10.631.555 16.706.083 3.037.279 6.075.302 8.922-.005 2.848-.133 5.505-.302 7.783-.314 4.556-.875 7.593-.875 7.593h-.25s-.561-3.037-.875-7.593c-.169-2.278-.297-4.936-.302-7.783.023-2.848.219-5.885.302-8.922.195-6.075.353-12.149.555-16.706l.32-7.593h.25zM9.125 14.823l.32 7.593c.202 4.557.36 10.631.555 16.706.083 3.037.279 6.075.302 8.922-.005 2.848-.133 5.505-.302 7.783-.314 4.556-.875 7.593-.875 7.593h-.25s-.561-3.037-.875-7.593c-.169-2.278-.297-4.936-.302-7.783.023-2.847.219-5.885.302-8.922.195-6.075.353-12.149.555-16.706l.32-7.593h.25z" opacity=".5"/><path fill="#fff" d="M29.075 23.823l.188 5.562c.129 3.337.22 7.787.337 12.237.067 2.225.156 4.45.181 6.536-.021 1.043-.011 2.051-.056 3.007-.031.956-.074 1.86-.125 2.694-.043.834-.122 1.599-.171 2.277-.049.678-.104 1.269-.165 1.756-.102.973-.189 1.53-.189 1.53h-.15s-.086-.556-.189-1.53c-.061-.487-.116-1.078-.165-1.756-.049-.678-.128-1.443-.171-2.277-.052-.834-.094-1.738-.125-2.694-.045-.956-.035-1.964-.056-3.007.025-2.086.114-4.311.181-6.536.118-4.45.209-8.899.337-12.237l.188-5.562h.15zM14.075 65.823l.188 5.562c.129 3.337.22 7.787.337 12.237.067 2.225.156 4.45.181 6.536-.021 1.043-.011 2.051-.056 3.007-.031.956-.074 1.86-.125 2.694-.043.834-.122 1.599-.171 2.277-.049.678-.104 1.269-.165 1.756-.102.973-.189 1.53-.189 1.53h-.15s-.086-.556-.189-1.53c-.061-.487-.116-1.078-.165-1.756-.049-.678-.128-1.443-.171-2.277-.052-.834-.094-1.738-.125-2.694-.045-.956-.035-1.964-.056-3.007.025-2.086.114-4.311.181-6.536.118-4.45.209-8.899.337-12.237l.188-5.562h.15zM58.525 40.865l.351 7.266c.221 4.36.404 10.173.624 15.987.096 2.907.304 5.813.339 8.538.007 2.725-.111 5.27-.27 7.451-.295 4.362-.844 7.272-.844 7.272l-.25.001s-.574-2.905-.906-7.264c-.178-2.18-.318-4.723-.334-7.448.012-2.726.195-5.633.265-8.541.17-5.815.303-11.63.486-15.991l.289-7.269.25-.002zM39.125 101.823l.32 7.281c.202 4.369.36 10.193.555 16.018.083 2.912.279 5.825.302 8.555-.005 2.73-.133 5.279-.302 7.463-.314 4.369-.875 7.281-.875 7.281h-.25s-.561-2.912-.875-7.281c-.169-2.184-.297-4.733-.302-7.463.023-2.73.219-5.643.302-8.555.195-5.825.353-11.649.555-16.018l.32-7.281h.25z" opacity=".25"/><path fill="#fff" d="M51.125-.177l.32 7.593c.202 4.556.36 10.631.555 16.706.083 3.037.279 6.075.302 8.922-.005 2.848-.133 5.505-.302 7.783-.314 4.556-.875 7.593-.875 7.593h-.25s-.561-3.037-.875-7.593c-.169-2.278-.297-4.936-.302-7.783.023-2.848.219-5.885.302-8.922.195-6.075.353-12.149.555-16.706l.32-7.593h.25z" opacity=".5"/><path fill="#fff" d="M37.125 6.823s.149 1.412.32 3.531c.19 2.119.398 4.943.555 7.768.083 1.412.279 2.825.302 4.149-.005 1.324-.133 2.56-.302 3.619-.314 2.119-.875 3.531-.875 3.531h-.25s-.561-1.412-.875-3.531c-.169-1.059-.297-2.295-.302-3.619.023-1.324.219-2.736.302-4.149.157-2.825.365-5.649.555-7.768.171-2.119.32-3.531.32-3.531h.25zM28.125 125.823s.149 1.412.32 3.531c.19 2.119.398 4.943.555 7.768.083 1.412.279 2.825.302 4.149-.005 1.324-.133 2.56-.302 3.619-.314 2.119-.875 3.531-.875 3.531h-.25s-.561-1.412-.875-3.531c-.169-1.059-.297-2.295-.302-3.619.023-1.324.219-2.736.302-4.149.157-2.825.365-5.649.555-7.768.171-2.119.32-3.531.32-3.531h.25z" opacity=".4"/></g></svg>