<svg xmlns="http://www.w3.org/2000/svg" viewBox="0 0 145 100" enable-background="new 0 0 145 100"><g opacity=".3"><path fill="#C2AF6B" d="M27.683 62.813c.673.684 1.78.691 2.464.014.684-.669.694-1.776.021-2.459-.673-.687-1.776-.698-2.464-.021-.687.672-.694 1.775-.021 2.466z"/><path fill="#8C8162" d="M39.021 48.993c.342.349.895.352 1.234.018.349-.342.352-.891.014-1.237-.338-.342-.888-.352-1.234-.007-.345.335-.345.888-.014 1.226z"/><path fill="#E5CF9B" d="M8.898 58.563c.772.574 1.871.416 2.442-.356.578-.772.423-1.867-.352-2.445-.776-.578-1.868-.419-2.446.356-.578.772-.42 1.867.356 2.445z"/><path fill="#F3DCBB" d="M.358 58.926c.38.285.93.204 1.219-.176.289-.391.208-.941-.176-1.223-.388-.292-.934-.215-1.223.176-.289.381-.215.934.18 1.223z"/><path fill="#908039" d="M50.122 28.272c.754.839 2.051.909 2.89.152.839-.758.906-2.051.148-2.889-.754-.839-2.051-.906-2.89-.152s-.902 2.051-.148 2.889z"/><path fill="#E5CF9B" d="M126.124 41.79c.543.599 1.466.648 2.065.106.599-.536.649-1.462.106-2.065-.536-.599-1.463-.641-2.058-.106-.603.543-.649 1.466-.113 2.065z"/><path fill="#C1AF6B" d="M29.089 92.551c.698.67 1.812.652 2.488-.046.67-.694.652-1.807-.042-2.481-.698-.669-1.812-.659-2.485.039-.673.698-.659 1.815.039 2.488z"/><path fill="#FAF7E3" d="M28.849 95.349c.469.455 1.209.441 1.664-.025.448-.469.437-1.209-.032-1.66-.462-.447-1.202-.437-1.653.032-.451.462-.444 1.202.021 1.653z"/><path fill="#2B2700" d="M24.616 87.104c.582.564 1.509.55 2.069-.028.564-.585.55-1.512-.035-2.075-.578-.56-1.505-.546-2.069.042-.56.574-.546 1.501.035 2.061z"/><path fill="#C7C1AF" d="M32.684 80.575c.585.56 1.512.546 2.076-.039.564-.585.546-1.508-.035-2.072-.582-.564-1.512-.55-2.072.035-.568.578-.551 1.509.031 2.076z"/><path fill="#908039" d="M34.136 87.809c.567.55 1.477.535 2.03-.035.55-.571.536-1.48-.035-2.026-.571-.553-1.48-.539-2.03.032-.55.563-.536 1.476.035 2.029z"/><path fill="#FAF7E4" d="M15.083 89.659c.522.391 1.255.289 1.65-.233.388-.518.285-1.251-.236-1.645-.518-.388-1.251-.279-1.642.232-.392.521-.286 1.254.228 1.646z"/><path fill="#8F8138" d="M79.805 30.354c.906.68 2.192.504 2.876-.405.684-.909.5-2.198-.409-2.875-.902-.684-2.192-.504-2.876.402-.683.909-.5 2.199.409 2.878z"/><path fill="#E4CF9C" d="M18.794 64.884c.648.49 1.568.356 2.061-.292.48-.645.353-1.568-.296-2.054-.649-.483-1.568-.356-2.051.289-.493.648-.359 1.575.286 2.057z"/><path fill="#E5CF9B" d="M2.374 92.054c.807.539 1.896.314 2.432-.49.536-.807.317-1.899-.493-2.435-.804-.536-1.896-.314-2.432.497-.536.804-.314 1.893.493 2.428z"/><path fill="#C2AF6B" d="M14.815 28.462c.804.529 1.889.31 2.425-.497.536-.803.314-1.892-.49-2.424-.807-.539-1.896-.317-2.428.486-.536.808-.318 1.9.493 2.435z"/><path fill="#FAF7E3" d="M15.082 31.246c.543.363 1.269.219 1.628-.324.353-.539.208-1.261-.331-1.621-.539-.356-1.262-.211-1.621.328-.356.543-.211 1.265.324 1.617z"/><path fill="#A19A81" d="M1.524 96.829c.673.451 1.583.268 2.026-.402.444-.677.261-1.582-.409-2.03-.673-.444-1.579-.261-2.026.412-.443.671-.257 1.576.409 2.02z"/><path fill="#F3DCBB" d="M8.253 88.957c.677.444 1.579.261 2.03-.412.444-.673.264-1.582-.409-2.026-.677-.451-1.583-.268-2.03.408-.448.674-.265 1.579.409 2.03z"/><path fill="#908039" d="M10.988 95.793c.659.437 1.551.254 1.988-.402.437-.662.254-1.55-.402-1.984-.659-.44-1.551-.261-1.988.402-.437.656-.254 1.544.402 1.984z"/><path fill="#F3DCBB" d="M15.185 85.409c.405.271.951.162 1.216-.243.271-.409.162-.951-.247-1.219-.398-.268-.944-.159-1.212.246-.268.402-.155.952.243 1.216z"/><path fill="#F5BB22" d="M37.047 53.405c.726.342 1.593.032 1.935-.698.342-.726.032-1.589-.694-1.931-.726-.345-1.593-.035-1.931.694-.346.726-.036 1.589.69 1.935z"/><path fill="#928039" d="M40.72 59.726c.708.338 1.558.028 1.893-.68.335-.708.032-1.557-.68-1.892-.708-.335-1.558-.028-1.893.677-.335.711-.032 1.56.68 1.895z"/><path fill="#E6CF9A" d="M36.793 43.761c.726.342 1.593.032 1.935-.694.342-.722.032-1.586-.694-1.927-.722-.342-1.59-.032-1.928.691-.345.728-.035 1.588.687 1.93z"/><path fill="#8C8162" d="M78.784 39.487c.564.574 1.484.585 2.058.025.571-.567.582-1.49.018-2.061-.564-.578-1.484-.585-2.058-.021s-.582 1.486-.018 2.057zM86.255 37.468c.345.342.895.342 1.237.011.349-.345.349-.888.011-1.24-.331-.335-.888-.345-1.234-.007-.341.334-.345.89-.014 1.236z"/><path fill="#E5CF9B" d="M81.885 30.34c.564.574 1.487.581 2.058.018.571-.56.578-1.48.014-2.054-.557-.571-1.48-.578-2.051-.014-.571.563-.578 1.482-.021 2.05zM29.383 56.086c.772.578 1.872.416 2.446-.352.578-.775.42-1.868-.356-2.446-.768-.578-1.868-.423-2.446.356-.578.772-.416 1.868.356 2.442z"/><path fill="#C2AF6B" d="M60.122 56.53c.772.574 1.864.416 2.442-.352.574-.772.416-1.871-.352-2.442-.775-.574-1.868-.416-2.446.352-.578.768-.416 1.868.356 2.442z"/><path fill="#FAF7E3" d="M21.567 72.674c.518.391 1.248.282 1.632-.233.384-.518.278-1.247-.236-1.628-.515-.384-1.241-.282-1.628.233-.388.518-.283 1.244.232 1.628z"/><path fill="#A19A81" d="M55.022 51.731c.649.483 1.558.349 2.037-.292.486-.641.352-1.557-.296-2.037-.641-.479-1.551-.349-2.034.296-.479.641-.349 1.554.293 2.033z"/><path fill="#908039" d="M115.487 42.91c.631.472 1.526.349 1.995-.289.472-.627.342-1.522-.289-1.994-.627-.472-1.526-.342-1.995.289-.472.631-.342 1.529.289 1.994z"/><path fill="#E5CF9B" d="M63.826 34.744c.648.483 1.558.352 2.044-.292.479-.645.345-1.55-.303-2.037-.641-.479-1.551-.345-2.03.296-.483.645-.353 1.554.289 2.033z"/><path fill="#FCCA92" d="M88.444 54.631c.539.599 1.463.648 2.065.109.603-.543.652-1.466.109-2.068-.543-.595-1.466-.645-2.069-.102-.602.542-.648 1.462-.105 2.061zM96.046 52.922c.324.363.881.391 1.234.067.367-.328.395-.881.067-1.24-.321-.359-.878-.391-1.241-.063-.356.327-.384.884-.06 1.236z"/><path fill="#E5CF9B" d="M91.958 45.579c.546.595 1.466.645 2.069.102.599-.536.645-1.459.102-2.065-.536-.599-1.459-.641-2.058-.106-.599.543-.649 1.466-.113 2.069z"/><path fill="#908039" d="M81.371 66.041c.571.55 1.48.535 2.03-.035.55-.571.536-1.476-.035-2.03-.564-.546-1.48-.532-2.03.035-.551.568-.536 1.481.035 2.03z"/><path fill="#FCCA92" d="M126.772 50c.649.493 1.572.359 2.058-.289.49-.648.359-1.572-.289-2.058-.649-.49-1.572-.359-2.058.289-.489.652-.359 1.575.289 2.058z"/><path fill="#E5CF9B" d="M49.608 80.522c.811.536 1.896.314 2.432-.49.536-.814.317-1.899-.49-2.435s-1.896-.314-2.432.493c-.535.807-.313 1.896.49 2.432z"/><path fill="#F3DCBB" d="M41.069 81.361c.398.268.948.155 1.212-.243.271-.409.159-.951-.243-1.216-.409-.271-.948-.162-1.219.246-.261.399-.156.945.25 1.213z"/><path fill="#E6CF9A" d="M33.161 57.291c.87.412 1.914.039 2.322-.831.409-.871.035-1.907-.835-2.319-.87-.409-1.907-.035-2.319.831-.412.875-.035 1.911.832 2.319z"/><path fill="#F5BB22" d="M38.494 53.405c.726.342 1.593.032 1.931-.694.345-.726.035-1.589-.691-1.934-.726-.342-1.593-.032-1.935.694-.341.725-.031 1.592.695 1.934z"/><path fill="#928039" d="M35.313 2.408c.705.335 1.558.032 1.889-.68.338-.708.035-1.554-.677-1.892-.712-.334-1.558-.032-1.896.68-.334.712-.028 1.558.684 1.892z"/><path fill="#F5BB22" d="M18.036 2.028c.43.204.952.018 1.156-.412.208-.444.021-.958-.413-1.163-.44-.208-.955-.021-1.163.416-.2.43-.017.951.42 1.159zM44.795 48.923c.441.208.959.018 1.163-.412.204-.437.021-.955-.419-1.163-.433-.201-.952-.021-1.16.419-.204.434-.014.955.416 1.156z"/><path fill="#E6CF9A" d="M5.501 10.352c.726.345 1.59.035 1.931-.694.342-.722.032-1.585-.694-1.924-.723-.345-1.59-.032-1.928.687-.346.726-.035 1.597.691 1.931z"/><path fill="#918039" d="M81.485 46.7c.55.564 1.452.574 2.016.021.557-.55.564-1.459.014-2.015-.55-.56-1.452-.571-2.012-.017-.561.548-.568 1.454-.018 2.011z"/><path fill="#E5CF9B" d="M57.575 47.035c.775.574 1.871.416 2.446-.36.578-.771.423-1.871-.352-2.445-.775-.578-1.868-.419-2.446.356-.578.771-.42 1.867.352 2.449z"/><path fill="#C2AF6B" d="M141.793 4.42c.768.574 1.861.416 2.443-.359.574-.768.412-1.867-.356-2.435-.775-.581-1.868-.423-2.442.345-.579.772-.42 1.868.355 2.449z"/><path fill="#FAF7E3" d="M54.832 2c.515.391 1.244.282 1.628-.236.388-.514.282-1.24-.236-1.628-.515-.384-1.244-.278-1.625.233-.388.521-.282 1.247.233 1.631z"/><path fill="#908039" d="M110.237 51.742c.628.469 1.53.338 1.995-.292.472-.631.342-1.526-.289-1.998-.627-.469-1.526-.342-1.995.289-.472.63-.342 1.525.289 2.001z"/><path fill="#F3DCBB" d="M49.039 47.394c.381.285.93.204 1.219-.18.289-.388.208-.937-.176-1.219-.388-.293-.934-.215-1.226.176-.286.384-.212.93.183 1.223z"/><path fill="#FAF7E3" d="M78.206 11.763c.437.483 1.17.521 1.656.085.479-.43.515-1.17.085-1.649-.437-.479-1.17-.518-1.649-.085-.487.43-.522 1.17-.092 1.649z"/><path fill="#FCCA92" d="M89.887 54.635c.543.599 1.466.648 2.065.109.603-.543.652-1.47.109-2.072-.539-.603-1.466-.648-2.069-.109-.598.543-.648 1.466-.105 2.072z"/><circle fill="#908039" cx="113.441" cy="10.282" r="2.046"/><path fill="#FCCA92" d="M97.486 52.926c.331.359.888.384 1.241.063.363-.328.395-.877.063-1.244-.321-.352-.874-.384-1.237-.06-.356.321-.388.878-.067 1.241z"/><path fill="#E5CF9B" d="M93.404 45.572c.543.603 1.466.648 2.065.109s.648-1.462.106-2.061c-.536-.599-1.463-.648-2.058-.109-.602.539-.648 1.462-.113 2.061z"/><path fill="#2B2700" d="M66.445 18.254c.582.567 1.508.55 2.069-.032.564-.581.55-1.508-.035-2.075-.578-.557-1.505-.543-2.065.042-.565.578-.551 1.501.031 2.065z"/><path fill="#908039" d="M110.51 21.795c.571.553 1.477.539 2.03-.035.55-.567.536-1.476-.035-2.03-.571-.55-1.48-.536-2.03.035-.55.568-.535 1.48.035 2.03z"/><path fill="#E4CF9C" d="M50.907 56.446c.782.585 1.886.426 2.471-.352.585-.775.43-1.882-.349-2.467-.775-.585-1.882-.43-2.467.353-.586.774-.431 1.877.345 2.466z"/><path fill="#8F8138" d="M124.735 14.174c.906.687 2.196.5 2.876-.398.684-.909.501-2.202-.405-2.886-.906-.68-2.196-.5-2.879.412-.681.902-.501 2.195.408 2.872z"/><path fill="#FCCA92" d="M116.312 25.209c.388.289.944.211 1.234-.176.296-.391.215-.944-.173-1.233-.391-.296-.941-.218-1.237.176-.289.384-.215.937.176 1.233z"/><path fill="#E5CF9B" d="M44.202 23.204c.807.536 1.896.314 2.432-.49.536-.81.317-1.899-.493-2.435-.804-.532-1.896-.31-2.432.493-.533.812-.314 1.897.493 2.432z"/><path fill="#C2AF6B" d="M136.817 42.227c.804.529 1.893.31 2.429-.497.532-.8.314-1.892-.49-2.428-.811-.536-1.896-.314-2.432.493-.536.804-.318 1.9.493 2.432z"/><path fill="#A19A81" d="M43.352 27.979c.673.451 1.582.268 2.027-.405.444-.673.261-1.582-.409-2.026-.673-.444-1.579-.261-2.027.412-.44.669-.26 1.578.409 2.019z"/><path fill="#908039" d="M98.661 25.91c.656.433 1.547.257 1.988-.405.434-.652.254-1.543-.402-1.98-.663-.437-1.551-.261-1.988.405-.436.652-.257 1.54.402 1.98z"/><path fill="#F3DCBB" d="M35.662 24.047c.398.264.948.155 1.209-.247.275-.409.159-.951-.24-1.216-.409-.271-.952-.155-1.219.247-.268.398-.159.944.25 1.216z"/><path fill="#703F20" d="M35.637 26.101c0 .363.296.659.656.659.367 0 .663-.296.663-.659 0-.363-.296-.659-.663-.659-.359 0-.656.296-.656.659z"/><path fill="#A39384" d="M49.679 2.743c0 .606.493 1.103 1.093 1.103.606 0 1.1-.497 1.1-1.103 0-.599-.493-1.092-1.1-1.092-.6 0-1.093.493-1.093 1.092z"/><path fill="#703F20" d="M51.526 9.706c0 .359.296.655.656.655.367 0 .659-.296.659-.655 0-.366-.293-.662-.659-.662-.36-.001-.656.295-.656.662zM65.045 19.931c0 .366.296.655.656.655.367 0 .659-.289.659-.655 0-.359-.293-.655-.659-.655-.36 0-.656.296-.656.655z"/><path fill="#FCC588" d="M85.114 3.955c0 .726.592 1.318 1.318 1.318s1.311-.592 1.311-1.318-.585-1.307-1.311-1.307-1.318.581-1.318 1.307z"/><path fill="#A39384" d="M40.607 13.92c0 .606.49 1.099 1.093 1.099.606 0 1.1-.493 1.1-1.099 0-.599-.493-1.092-1.1-1.092-.603 0-1.093.493-1.093 1.092z"/><circle fill="#9F795F" cx="98.781" cy="15.139" r="1.071"/><path fill="#FCC588" d="M99.109 9.522c0 .606.49 1.096 1.096 1.096.603 0 1.093-.49 1.093-1.096 0-.599-.49-1.092-1.093-1.092-.606 0-1.096.493-1.096 1.092z"/><path fill="#A39384" d="M54.733 29.684c0 .606.49 1.092 1.093 1.092.606 0 1.096-.486 1.096-1.092s-.49-1.092-1.096-1.092c-.603 0-1.093.486-1.093 1.092z"/><path fill="#703F20" d="M62.437 30.621c0 .606.49 1.092 1.096 1.092s1.096-.486 1.096-1.092c0-.606-.49-1.099-1.096-1.099s-1.096.493-1.096 1.099zM125.22 44.61c0 .359.296.655.655.655.367 0 .659-.296.659-.655 0-.367-.293-.659-.659-.659-.36 0-.655.293-.655.659zM67.523 33.476c0 .366.296.662.656.662.367 0 .659-.296.659-.662 0-.359-.293-.655-.659-.655-.36-.001-.656.295-.656.655z"/><path fill="#FCC588" d="M109.622 36.495c0 .722.589 1.311 1.315 1.311s1.315-.588 1.315-1.311c0-.729-.589-1.318-1.315-1.318s-1.315.589-1.315 1.318z"/><path fill="#A39384" d="M47.603 38.888c0 .606.49 1.092 1.093 1.092.606 0 1.096-.486 1.096-1.092 0-.606-.49-1.092-1.096-1.092-.603-.001-1.093.486-1.093 1.092z"/><path fill="#703F20" d="M60.393 42.679c0 .366.296.662.656.662.367 0 .659-.296.659-.662 0-.359-.293-.655-.659-.655-.36 0-.656.296-.656.655z"/><path fill="#C7A588" d="M67.927 72.499c0 .715.589 1.307 1.315 1.307.722 0 1.311-.592 1.311-1.307 0-.729-.589-1.321-1.311-1.321-.727 0-1.315.592-1.315 1.321z"/><circle fill="#703F20" cx="98.764" cy="39.821" r="1.096"/><path fill="#FCC588" d="M119.783 9.103c0 .606.49 1.096 1.096 1.096.603 0 1.092-.49 1.092-1.096 0-.603-.49-1.092-1.092-1.092-.606 0-1.096.49-1.096 1.092z"/><path fill="#A39384" d="M141.385 43.425c0 .606.49 1.099 1.093 1.099.606 0 1.096-.493 1.096-1.099 0-.599-.49-1.089-1.096-1.089-.603 0-1.093.49-1.093 1.089z"/><path fill="#703F20" d="M9.246 7.662c0 .606.494 1.099 1.1 1.099.606 0 1.093-.493 1.093-1.099s-.486-1.092-1.093-1.092c-.606 0-1.1.486-1.1 1.092z"/><path fill="#FCC588" d="M127.407 18.983c-.747.807-.698 2.061.109 2.808.807.747 2.065.701 2.809-.106.747-.81.698-2.065-.106-2.812-.803-.746-2.065-.697-2.812.11z"/><path fill="#A39384" d="M106.126 87.661c-.62.677-.578 1.719.088 2.34.673.623 1.724.585 2.344-.092.62-.666.578-1.712-.092-2.336-.669-.621-1.719-.582-2.34.088z"/><path fill="#703F20" d="M83.901 78.64c-.62.673-.582 1.719.092 2.34.673.627 1.72.585 2.344-.088.624-.67.582-1.72-.088-2.343-.677-.62-1.724-.578-2.348.091zM86.611 87.041c-.377.402-.349 1.032.053 1.402.405.377 1.033.352 1.41-.057.367-.394.345-1.029-.06-1.402-.398-.37-1.033-.345-1.403.057z"/><path fill="#FCC588" d="M130.487 60.882c-.818.719-.888 1.963-.169 2.777.719.81 1.967.888 2.778.169.814-.719.888-1.966.169-2.78-.723-.815-1.964-.889-2.778-.166z"/><path fill="#C7A588" d="M119.089 63.109c-.807.719-.881 1.959-.162 2.773.719.807 1.959.884 2.77.166.814-.719.888-1.963.173-2.773-.723-.815-1.963-.885-2.781-.166z"/><path fill="#703F20" d="M132.151 68.144c-.677.603-.74 1.638-.141 2.315.603.684 1.639.743 2.319.141.677-.595.74-1.631.141-2.315-.607-.677-1.639-.74-2.319-.141z"/><path fill="#9F795F" d="M123.953 69.141c-.663.585-.726 1.6-.138 2.269.589.659 1.603.719 2.266.134.663-.588.726-1.603.138-2.269-.589-.659-1.604-.723-2.266-.134z"/><path fill="#703F20" d="M132.034 51.379c-.405.356-.441.983-.081 1.385.36.412.983.444 1.389.088.409-.359.444-.983.081-1.392-.356-.402-.976-.444-1.389-.081zM133.998 76.681c-.409.363-.444.986-.085 1.388.359.408.98.447 1.389.084.405-.359.444-.98.084-1.388-.359-.404-.987-.439-1.388-.084z"/><path fill="#FCC588" d="M142.28 72.175c-.684.599-.744 1.631-.141 2.315.599.673 1.635.736 2.312.134.677-.596.74-1.635.141-2.304-.603-.684-1.639-.748-2.312-.145z"/><path fill="#C7A588" d="M77.719 62.492c-.779.751-.804 1.991-.053 2.77.747.779 1.991.8 2.767.053.782-.747.803-1.991.056-2.77-.747-.779-1.991-.803-2.77-.053z"/><path fill="#FFFACB" d="M95.884 59.469c-.525.504-.543 1.328-.042 1.85s1.329.536 1.854.035c.518-.497.532-1.325.035-1.846-.508-.518-1.332-.536-1.847-.039z"/><path fill="#A39384" d="M101.122 45.811c-.652.627-.673 1.66-.049 2.308.627.655 1.66.673 2.312.046.649-.624.67-1.656.043-2.308-.622-.648-1.658-.669-2.306-.046z"/><path fill="#703F20" d="M112.202 64.338c-.655.624-.67 1.66-.049 2.315.627.648 1.664.669 2.316.042.652-.627.673-1.663.046-2.311-.628-.655-1.664-.669-2.313-.046z"/><path fill="#9F795F" d="M104.075 65.663c-.634.61-.655 1.628-.042 2.259.61.645 1.628.662 2.263.046.638-.61.655-1.624.046-2.259-.617-.641-1.633-.662-2.267-.046z"/><path fill="#703F20" d="M114.388 72.766c-.395.377-.402.997-.032 1.388.377.391.997.402 1.392.021.388-.37.402-.99.021-1.385-.373-.386-.994-.4-1.381-.024z"/><path fill="#FCC588" d="M122.451 67.936c-.655.631-.677 1.663-.049 2.315.627.648 1.656.666 2.312.042.649-.624.669-1.66.042-2.308-.627-.648-1.656-.669-2.305-.049z"/><path fill="#FFFACB" d="M120.062 85.092c-.55.48-.606 1.314-.12 1.864.479.55 1.311.606 1.861.12.55-.48.606-1.311.127-1.861-.487-.549-1.318-.602-1.868-.123z"/><path fill="#9F795F" d="M141.776 51.811c-.673.585-.743 1.614-.152 2.283.585.677 1.614.74 2.284.155.673-.592.74-1.614.155-2.287-.588-.673-1.614-.736-2.287-.151z"/><path fill="#703F20" d="M136.313 73.876c-.409.36-.451.987-.095 1.396.367.416.994.454 1.403.099.416-.367.458-.986.092-1.402-.357-.409-.984-.459-1.4-.093zM138.135 90.193c-.416.363-.454.99-.099 1.395.367.419.987.458 1.403.102.409-.363.458-.99.092-1.406-.36-.408-.987-.447-1.396-.091z"/><circle fill="#FCC588" cx="131.653" cy="27.627" r="2.005"/><path fill="#A39384" d="M117.323 96.804c-.68.627-.723 1.681-.102 2.358.627.677 1.678.722 2.361.099.677-.62.719-1.677.092-2.354-.62-.681-1.674-.726-2.351-.103z"/><path fill="#9F795F" d="M87.045 15.396c-.666.61-.708 1.645-.099 2.308.61.669 1.646.712 2.312.099.663-.61.708-1.645.099-2.311-.613-.663-1.65-.705-2.312-.096z"/><path fill="#FFFACB" d="M93.417 30.667c-.536.511-.55 1.35-.042 1.878.507.532 1.35.55 1.882.035.529-.507.543-1.346.035-1.875-.507-.531-1.35-.549-1.875-.038z"/><path fill="#703F20" d="M111.899 87.188c-.663.641-.684 1.691-.049 2.357.638.659 1.692.68 2.355.042s.684-1.688.046-2.35c-.639-.662-1.689-.683-2.352-.049z"/><path fill="#9F795F" d="M103.638 88.534c-.648.62-.669 1.653-.049 2.304.624.642 1.657.662 2.305.042.649-.617.67-1.656.043-2.304-.621-.644-1.651-.665-2.299-.042z"/><path fill="#703F20" d="M111.096 70.219c-.395.381-.409 1.015-.029 1.409.384.405 1.015.409 1.41.028.402-.381.412-1.011.028-1.409-.38-.394-1.007-.412-1.409-.028z"/><path fill="#C7A588" d="M19.362 95.314c-.782.782-.779 2.058.01 2.843.786.779 2.058.779 2.837-.007.786-.789.782-2.058 0-2.84-.789-.782-2.065-.782-2.847.004z"/><path fill="#FFFACB" d="M92.063 29.308c-.522.529-.522 1.374.007 1.896.525.521 1.371.521 1.896-.007.522-.521.522-1.37-.003-1.888-.529-.526-1.375-.526-1.9-.001z"/><path fill="#703F20" d="M99.817 89.722c-.388.391-.388 1.036 0 1.42.402.395 1.036.388 1.424 0 .398-.398.395-1.032 0-1.431-.394-.387-1.029-.387-1.424.011z"/><path fill="#F5BB22" d="M1.116 32.552c-.455.398-.504 1.092-.109 1.547.398.458 1.089.511 1.548.113.454-.398.504-1.085.109-1.547-.399-.458-1.09-.507-1.548-.113zM1.158 21.355c-.271.243-.3.655-.067.93.24.275.655.303.927.063.279-.24.307-.652.067-.93-.236-.268-.649-.303-.927-.063zM2.289 38.268c-.275.24-.303.655-.07.927.243.278.655.307.93.067.275-.236.303-.652.064-.93-.233-.269-.652-.301-.924-.064z"/><path fill="#918039" d="M102.567 17.243c-.469.363-.557 1.036-.197 1.505.363.472 1.036.557 1.509.201.468-.363.557-1.036.197-1.512-.361-.466-1.037-.557-1.509-.194z"/><path fill="#E5CF9B" d="M38.401 24.744c-.479.37-.571 1.057-.201 1.536.37.479 1.054.571 1.533.197.479-.366.571-1.046.204-1.526-.37-.478-1.057-.573-1.536-.207z"/><path fill="#F3DCBB" d="M19.978 12.412c-.279.226-.321.641-.095.923.233.282.645.324.924.099.285-.233.328-.645.095-.93-.226-.279-.638-.325-.924-.092z"/><path fill="#FCCA92" d="M20.167 45.776c-.486.363-.585 1.05-.218 1.536.359.486 1.047.578 1.533.218.483-.366.581-1.05.218-1.536-.363-.485-1.05-.584-1.533-.218zM37.805 24.131c-.285.218-.345.631-.13.92.219.292.634.349.923.13.289-.218.349-.627.127-.916-.215-.289-.627-.352-.92-.134zM37.742 41.079c-.293.222-.349.634-.134.923.222.289.631.349.923.127.289-.211.349-.627.13-.916-.218-.289-.634-.345-.919-.134z"/><path fill="#C7C1AF" d="M129.458.21c-.289.218-.345.634-.127.919.226.289.634.345.923.13.293-.226.345-.638.123-.927-.214-.288-.63-.344-.919-.122zM31.637 52.693c-.293.218-.345.634-.13.916.226.296.634.349.93.127.282-.218.338-.624.12-.923-.218-.282-.634-.338-.92-.12z"/><path fill="#C0AF6A" d="M134.406 18.085c-.557.458-.645 1.283-.187 1.846.455.567 1.283.648 1.843.194.564-.458.652-1.286.197-1.846-.457-.561-1.289-.652-1.853-.194z"/><path fill="#FCCA92" d="M21.924 37.792c-.468.381-.539 1.068-.158 1.54s1.072.543 1.54.162c.472-.381.546-1.068.158-1.543-.381-.469-1.068-.543-1.54-.159z"/><path fill="#C2AF6B" d="M5.997 46.71c-.56.458-.642 1.286-.183 1.846.458.567 1.283.645 1.847.19.564-.462.641-1.286.187-1.85-.459-.56-1.287-.644-1.851-.186z"/><path fill="#FAF7E3" d="M3.939 46.287c-.374.314-.43.86-.123 1.237.306.373.856.426 1.234.123.374-.31.43-.856.123-1.233-.307-.374-.861-.43-1.234-.127z"/><path fill="#A19A81" d="M10.431 43.863c-.472.384-.543 1.075-.159 1.54.384.469 1.072.543 1.54.159.472-.384.539-1.068.155-1.543-.38-.466-1.071-.537-1.536-.156z"/><path fill="#908039" d="M107.043 33.835c-.458.377-.525 1.05-.152 1.508.377.458 1.054.529 1.512.155.458-.377.528-1.054.152-1.512-.377-.461-1.054-.525-1.512-.151z"/><path fill="#F3DCBB" d="M14.949 39.233c-.282.226-.32.641-.092.92.229.285.645.321.924.095.282-.233.324-.641.092-.927-.226-.278-.642-.321-.924-.088z"/><path fill="#E6CF9A" d="M43.324 66.981c-.546.476-.606 1.307-.13 1.857.476.546 1.304.606 1.854.13s.606-1.307.134-1.857c-.48-.546-1.308-.602-1.858-.13z"/><path fill="#F5BB22" d="M44.427 60.649c-.268.233-.303.655-.067.927.243.271.656.303.927.067.278-.24.307-.655.07-.93-.239-.275-.655-.303-.93-.064zM45.559 77.559c-.275.24-.303.655-.067.927.24.275.652.307.93.067.268-.236.303-.652.063-.927-.239-.275-.655-.304-.926-.067z"/><circle fill="#E6CF9A" cx="51.838" cy="75.434" r="1.095"/><path fill="#C2AF6B" d="M41.559 56.921c-.571.444-.677 1.268-.236 1.843.441.574 1.265.68 1.836.24.578-.44.684-1.269.247-1.843-.445-.571-1.269-.68-1.847-.24z"/><path fill="#FAF7E3" d="M90.153 83.415c-.384.293-.458.842-.162 1.223.296.391.846.458 1.234.162.381-.296.451-.846.155-1.226-.296-.388-.842-.459-1.227-.159z"/><path fill="#8C8162" d="M75.943 56.426c-.289.222-.338.638-.12.92.222.292.634.345.923.12.286-.215.342-.627.12-.916-.218-.29-.634-.343-.923-.124z"/><path fill="#C2AF6B" d="M15.607 72.523c-.56.455-.645 1.279-.187 1.843.458.567 1.283.648 1.847.19.56-.455.649-1.283.19-1.843-.458-.567-1.286-.652-1.85-.19z"/><path fill="#FAF7E3" d="M52.223 58.736c-.377.307-.434.86-.127 1.237.303.374.856.43 1.234.12.374-.303.43-.849.127-1.226-.31-.381-.86-.438-1.234-.131z"/><path fill="#A19A81" d="M58.715 56.326c-.469.384-.539 1.071-.159 1.54.384.472 1.071.543 1.54.159.469-.381.539-1.068.155-1.54-.376-.466-1.067-.54-1.536-.159z"/><path fill="#908039" d="M44.575 36.83c-.462.373-.529 1.054-.159 1.508.377.458 1.054.529 1.512.155.458-.37.529-1.05.155-1.505-.373-.461-1.049-.532-1.508-.158z"/><path fill="#F3DCBB" d="M85.491 22.369c-.278.226-.321.641-.095.92.233.289.645.324.923.099.285-.233.328-.641.099-.927-.23-.282-.642-.321-.927-.092z"/><path fill="#E5CF9B" d="M69.497 55.633c-.472.388-.543 1.075-.159 1.543.381.469 1.068.539 1.537.155.469-.381.539-1.068.162-1.533-.388-.472-1.075-.542-1.54-.165z"/><path fill="#FCCA92" d="M109.277 70.149c-.328-.511-1.008-.662-1.515-.335-.511.324-.659 1.004-.335 1.512.328.514 1.004.659 1.515.335.511-.328.659-1.001.335-1.512z"/><path fill="#908039" d="M74.456 64.213c-.677.504-.814 1.469-.307 2.142.511.677 1.47.814 2.146.307.677-.504.814-1.473.307-2.146-.508-.68-1.47-.814-2.146-.303z"/><path fill="#FCCA92" d="M81.011 80.374c-.293.219-.349.631-.134.916.219.296.627.353.923.134.289-.218.349-.627.127-.923-.215-.286-.627-.342-.916-.127z"/><path fill="#E5CF9B" d="M86.766 77.819c-.483.363-.582 1.05-.219 1.533.363.483 1.047.582 1.533.219.479-.363.578-1.05.219-1.529-.366-.487-1.05-.586-1.533-.223z"/><path fill="#C7C1AF" d="M74.1 86.205c-.483.367-.574 1.054-.208 1.533.367.486 1.054.578 1.537.211.483-.366.574-1.054.208-1.533-.367-.485-1.055-.581-1.537-.211z"/><path fill="#908039" d="M68.591 86.466c-.472.353-.564 1.025-.204 1.497.359.472 1.036.564 1.501.205.472-.359.564-1.032.204-1.505-.359-.468-1.032-.56-1.501-.197z"/><path fill="#C7C1AF" d="M74.907 91.98c-.293.226-.345.634-.127.923s.631.345.923.123c.285-.215.345-.631.12-.92-.215-.288-.631-.34-.916-.126z"/><path fill="#FFF698" d="M80.645 89.391c-.483.366-.574 1.053-.208 1.533.363.482 1.054.574 1.533.208.479-.363.571-1.054.208-1.533-.367-.479-1.054-.571-1.533-.208z"/><path fill="#FAF7E4" d="M54.571 72.911c-.377.31-.437.86-.127 1.236.303.374.853.434 1.23.123.377-.303.433-.849.13-1.226-.31-.38-.86-.436-1.233-.133z"/><path fill="#FCCA92" d="M65.602 55.661c-.278.226-.321.641-.092.923.229.282.641.324.92.099.285-.229.328-.641.095-.93-.225-.275-.637-.321-.923-.092z"/><path fill="#F3DCBB" d="M58.849 95.458c-.282.232-.321.645-.092.927.233.282.641.324.923.092.282-.226.324-.641.092-.923-.225-.283-.641-.325-.923-.096z"/><path fill="#E5CF9B" d="M64.496 92.671c-.465.388-.536 1.075-.155 1.544.381.465 1.071.535 1.544.152.465-.381.536-1.068.155-1.54-.388-.466-1.076-.536-1.544-.156z"/></g></svg>